<?xml version="1.0" encoding="utf-8" standalone="no"?>
<!DOCTYPE svg PUBLIC "-//W3C//DTD SVG 1.1//EN"
  "http://www.w3.org/Graphics/SVG/1.1/DTD/svg11.dtd">
<svg height="360pt" version="1.1" viewBox="0 0 576 360" width="576pt" xmlns="http://www.w3.org/2000/svg" xmlns:xlink="http://www.w3.org/1999/xlink">
 <metadata>
  <rdf:RDF xmlns:cc="http://creativecommons.org/ns#" xmlns:dc="http://purl.org/dc/elements/1.1/" xmlns:rdf="http://www.w3.org/1999/02/22-rdf-syntax-ns#">
   <cc:Work>
    <dc:type rdf:resource="http://purl.org/dc/dcmitype/StillImage"/>
    <dc:date>2021-04-23T15:56:51.764300</dc:date>
    <dc:format>image/svg+xml</dc:format>
    <dc:creator>
     <cc:Agent>
      <dc:title>Matplotlib v3.4.1, https://matplotlib.org/</dc:title>
     </cc:Agent>
    </dc:creator>
   </cc:Work>
  </rdf:RDF>
 </metadata>
 <defs>
  <style type="text/css">*{stroke-linecap:butt;stroke-linejoin:round;}</style>
 </defs>
 <g id="figure_1">
  <g id="patch_1">
   <path d="M 0 360 
L 576 360 
L 576 0 
L 0 0 
z
" style="fill:#ffffff;"/>
  </g>
  <g id="axes_1">
   <g id="patch_2">
    <path d="M 72 320.4 
L 518.4 320.4 
L 518.4 43.2 
L 72 43.2 
z
" style="fill:#ffffff;"/>
   </g>
   <g id="matplotlib.axis_1">
    <g id="xtick_1">
     <g id="line2d_1">
      <defs>
       <path d="M 0 0 
L 0 3.5 
" id="m5e5e832a1d" style="stroke:#000000;stroke-width:0.8;"/>
      </defs>
      <g>
       <use style="stroke:#000000;stroke-width:0.8;" x="72" xlink:href="#m5e5e832a1d" y="320.4"/>
      </g>
     </g>
     <g id="text_1">
      <!-- 0 -->
      <g transform="translate(68 338.51)scale(0.16 -0.16)">
       <defs>
        <path d="M 231 2094 
Q 231 2819 450 3342 
Q 669 3866 1031 4122 
Q 1313 4325 1613 4325 
Q 2100 4325 2488 3828 
Q 2972 3213 2972 2159 
Q 2972 1422 2759 906 
Q 2547 391 2217 158 
Q 1888 -75 1581 -75 
Q 975 -75 572 641 
Q 231 1244 231 2094 
z
M 844 2016 
Q 844 1141 1059 588 
Q 1238 122 1591 122 
Q 1759 122 1940 273 
Q 2122 425 2216 781 
Q 2359 1319 2359 2297 
Q 2359 3022 2209 3506 
Q 2097 3866 1919 4016 
Q 1791 4119 1609 4119 
Q 1397 4119 1231 3928 
Q 1006 3669 925 3112 
Q 844 2556 844 2016 
z
" id="TimesNewRomanPSMT-30" transform="scale(0.015625)"/>
       </defs>
       <use xlink:href="#TimesNewRomanPSMT-30"/>
      </g>
     </g>
    </g>
    <g id="xtick_2">
     <g id="line2d_2">
      <g>
       <use style="stroke:#000000;stroke-width:0.8;" x="122.157303" xlink:href="#m5e5e832a1d" y="320.4"/>
      </g>
     </g>
     <g id="text_2">
      <!-- 10 -->
      <g transform="translate(114.157303 338.51)scale(0.16 -0.16)">
       <defs>
        <path d="M 750 3822 
L 1781 4325 
L 1884 4325 
L 1884 747 
Q 1884 391 1914 303 
Q 1944 216 2037 169 
Q 2131 122 2419 116 
L 2419 0 
L 825 0 
L 825 116 
Q 1125 122 1212 167 
Q 1300 213 1334 289 
Q 1369 366 1369 747 
L 1369 3034 
Q 1369 3497 1338 3628 
Q 1316 3728 1258 3775 
Q 1200 3822 1119 3822 
Q 1003 3822 797 3725 
L 750 3822 
z
" id="TimesNewRomanPSMT-31" transform="scale(0.015625)"/>
       </defs>
       <use xlink:href="#TimesNewRomanPSMT-31"/>
       <use x="50" xlink:href="#TimesNewRomanPSMT-30"/>
      </g>
     </g>
    </g>
    <g id="xtick_3">
     <g id="line2d_3">
      <g>
       <use style="stroke:#000000;stroke-width:0.8;" x="172.314607" xlink:href="#m5e5e832a1d" y="320.4"/>
      </g>
     </g>
     <g id="text_3">
      <!-- 20 -->
      <g transform="translate(164.314607 338.51)scale(0.16 -0.16)">
       <defs>
        <path d="M 2934 816 
L 2638 0 
L 138 0 
L 138 116 
Q 1241 1122 1691 1759 
Q 2141 2397 2141 2925 
Q 2141 3328 1894 3587 
Q 1647 3847 1303 3847 
Q 991 3847 742 3664 
Q 494 3481 375 3128 
L 259 3128 
Q 338 3706 661 4015 
Q 984 4325 1469 4325 
Q 1984 4325 2329 3994 
Q 2675 3663 2675 3213 
Q 2675 2891 2525 2569 
Q 2294 2063 1775 1497 
Q 997 647 803 472 
L 1909 472 
Q 2247 472 2383 497 
Q 2519 522 2628 598 
Q 2738 675 2819 816 
L 2934 816 
z
" id="TimesNewRomanPSMT-32" transform="scale(0.015625)"/>
       </defs>
       <use xlink:href="#TimesNewRomanPSMT-32"/>
       <use x="50" xlink:href="#TimesNewRomanPSMT-30"/>
      </g>
     </g>
    </g>
    <g id="xtick_4">
     <g id="line2d_4">
      <g>
       <use style="stroke:#000000;stroke-width:0.8;" x="222.47191" xlink:href="#m5e5e832a1d" y="320.4"/>
      </g>
     </g>
     <g id="text_4">
      <!-- 30 -->
      <g transform="translate(214.47191 338.51)scale(0.16 -0.16)">
       <defs>
        <path d="M 325 3431 
Q 506 3859 782 4092 
Q 1059 4325 1472 4325 
Q 1981 4325 2253 3994 
Q 2459 3747 2459 3466 
Q 2459 3003 1878 2509 
Q 2269 2356 2469 2072 
Q 2669 1788 2669 1403 
Q 2669 853 2319 450 
Q 1863 -75 997 -75 
Q 569 -75 414 31 
Q 259 138 259 259 
Q 259 350 332 419 
Q 406 488 509 488 
Q 588 488 669 463 
Q 722 447 909 348 
Q 1097 250 1169 231 
Q 1284 197 1416 197 
Q 1734 197 1970 444 
Q 2206 691 2206 1028 
Q 2206 1275 2097 1509 
Q 2016 1684 1919 1775 
Q 1784 1900 1550 2001 
Q 1316 2103 1072 2103 
L 972 2103 
L 972 2197 
Q 1219 2228 1467 2375 
Q 1716 2522 1828 2728 
Q 1941 2934 1941 3181 
Q 1941 3503 1739 3701 
Q 1538 3900 1238 3900 
Q 753 3900 428 3381 
L 325 3431 
z
" id="TimesNewRomanPSMT-33" transform="scale(0.015625)"/>
       </defs>
       <use xlink:href="#TimesNewRomanPSMT-33"/>
       <use x="50" xlink:href="#TimesNewRomanPSMT-30"/>
      </g>
     </g>
    </g>
    <g id="xtick_5">
     <g id="line2d_5">
      <g>
       <use style="stroke:#000000;stroke-width:0.8;" x="272.629213" xlink:href="#m5e5e832a1d" y="320.4"/>
      </g>
     </g>
     <g id="text_5">
      <!-- 40 -->
      <g transform="translate(264.629213 338.51)scale(0.16 -0.16)">
       <defs>
        <path d="M 2978 1563 
L 2978 1119 
L 2409 1119 
L 2409 0 
L 1894 0 
L 1894 1119 
L 100 1119 
L 100 1519 
L 2066 4325 
L 2409 4325 
L 2409 1563 
L 2978 1563 
z
M 1894 1563 
L 1894 3666 
L 406 1563 
L 1894 1563 
z
" id="TimesNewRomanPSMT-34" transform="scale(0.015625)"/>
       </defs>
       <use xlink:href="#TimesNewRomanPSMT-34"/>
       <use x="50" xlink:href="#TimesNewRomanPSMT-30"/>
      </g>
     </g>
    </g>
    <g id="xtick_6">
     <g id="line2d_6">
      <g>
       <use style="stroke:#000000;stroke-width:0.8;" x="322.786517" xlink:href="#m5e5e832a1d" y="320.4"/>
      </g>
     </g>
     <g id="text_6">
      <!-- 50 -->
      <g transform="translate(314.786517 338.51)scale(0.16 -0.16)">
       <defs>
        <path d="M 2778 4238 
L 2534 3706 
L 1259 3706 
L 981 3138 
Q 1809 3016 2294 2522 
Q 2709 2097 2709 1522 
Q 2709 1188 2573 903 
Q 2438 619 2231 419 
Q 2025 219 1772 97 
Q 1413 -75 1034 -75 
Q 653 -75 479 54 
Q 306 184 306 341 
Q 306 428 378 495 
Q 450 563 559 563 
Q 641 563 702 538 
Q 763 513 909 409 
Q 1144 247 1384 247 
Q 1750 247 2026 523 
Q 2303 800 2303 1197 
Q 2303 1581 2056 1914 
Q 1809 2247 1375 2428 
Q 1034 2569 447 2591 
L 1259 4238 
L 2778 4238 
z
" id="TimesNewRomanPSMT-35" transform="scale(0.015625)"/>
       </defs>
       <use xlink:href="#TimesNewRomanPSMT-35"/>
       <use x="50" xlink:href="#TimesNewRomanPSMT-30"/>
      </g>
     </g>
    </g>
    <g id="xtick_7">
     <g id="line2d_7">
      <g>
       <use style="stroke:#000000;stroke-width:0.8;" x="372.94382" xlink:href="#m5e5e832a1d" y="320.4"/>
      </g>
     </g>
     <g id="text_7">
      <!-- 60 -->
      <g transform="translate(364.94382 338.51)scale(0.16 -0.16)">
       <defs>
        <path d="M 2869 4325 
L 2869 4209 
Q 2456 4169 2195 4045 
Q 1934 3922 1679 3669 
Q 1425 3416 1258 3105 
Q 1091 2794 978 2366 
Q 1428 2675 1881 2675 
Q 2316 2675 2634 2325 
Q 2953 1975 2953 1425 
Q 2953 894 2631 456 
Q 2244 -75 1606 -75 
Q 1172 -75 869 213 
Q 275 772 275 1663 
Q 275 2231 503 2743 
Q 731 3256 1154 3653 
Q 1578 4050 1965 4187 
Q 2353 4325 2688 4325 
L 2869 4325 
z
M 925 2138 
Q 869 1716 869 1456 
Q 869 1156 980 804 
Q 1091 453 1309 247 
Q 1469 100 1697 100 
Q 1969 100 2183 356 
Q 2397 613 2397 1088 
Q 2397 1622 2184 2012 
Q 1972 2403 1581 2403 
Q 1463 2403 1327 2353 
Q 1191 2303 925 2138 
z
" id="TimesNewRomanPSMT-36" transform="scale(0.015625)"/>
       </defs>
       <use xlink:href="#TimesNewRomanPSMT-36"/>
       <use x="50" xlink:href="#TimesNewRomanPSMT-30"/>
      </g>
     </g>
    </g>
    <g id="xtick_8">
     <g id="line2d_8">
      <g>
       <use style="stroke:#000000;stroke-width:0.8;" x="423.101124" xlink:href="#m5e5e832a1d" y="320.4"/>
      </g>
     </g>
     <g id="text_8">
      <!-- 70 -->
      <g transform="translate(415.101124 338.51)scale(0.16 -0.16)">
       <defs>
        <path d="M 644 4238 
L 2916 4238 
L 2916 4119 
L 1503 -88 
L 1153 -88 
L 2419 3728 
L 1253 3728 
Q 900 3728 750 3644 
Q 488 3500 328 3200 
L 238 3234 
L 644 4238 
z
" id="TimesNewRomanPSMT-37" transform="scale(0.015625)"/>
       </defs>
       <use xlink:href="#TimesNewRomanPSMT-37"/>
       <use x="50" xlink:href="#TimesNewRomanPSMT-30"/>
      </g>
     </g>
    </g>
    <g id="xtick_9">
     <g id="line2d_9">
      <g>
       <use style="stroke:#000000;stroke-width:0.8;" x="473.258427" xlink:href="#m5e5e832a1d" y="320.4"/>
      </g>
     </g>
     <g id="text_9">
      <!-- 80 -->
      <g transform="translate(465.258427 338.51)scale(0.16 -0.16)">
       <defs>
        <path d="M 1228 2134 
Q 725 2547 579 2797 
Q 434 3047 434 3316 
Q 434 3728 753 4026 
Q 1072 4325 1600 4325 
Q 2113 4325 2425 4047 
Q 2738 3769 2738 3413 
Q 2738 3175 2569 2928 
Q 2400 2681 1866 2347 
Q 2416 1922 2594 1678 
Q 2831 1359 2831 1006 
Q 2831 559 2490 242 
Q 2150 -75 1597 -75 
Q 994 -75 656 303 
Q 388 606 388 966 
Q 388 1247 577 1523 
Q 766 1800 1228 2134 
z
M 1719 2469 
Q 2094 2806 2194 3001 
Q 2294 3197 2294 3444 
Q 2294 3772 2109 3958 
Q 1925 4144 1606 4144 
Q 1288 4144 1088 3959 
Q 888 3775 888 3528 
Q 888 3366 970 3203 
Q 1053 3041 1206 2894 
L 1719 2469 
z
M 1375 2016 
Q 1116 1797 991 1539 
Q 866 1281 866 981 
Q 866 578 1086 336 
Q 1306 94 1647 94 
Q 1984 94 2187 284 
Q 2391 475 2391 747 
Q 2391 972 2272 1150 
Q 2050 1481 1375 2016 
z
" id="TimesNewRomanPSMT-38" transform="scale(0.015625)"/>
       </defs>
       <use xlink:href="#TimesNewRomanPSMT-38"/>
       <use x="50" xlink:href="#TimesNewRomanPSMT-30"/>
      </g>
     </g>
    </g>
    <g id="text_10">
     <!-- Time (sec) -->
     <g transform="translate(261.05375 357.0425)scale(0.16 -0.16)">
      <defs>
       <path d="M 3703 4238 
L 3750 3244 
L 3631 3244 
Q 3597 3506 3538 3619 
Q 3441 3800 3280 3886 
Q 3119 3972 2856 3972 
L 2259 3972 
L 2259 734 
Q 2259 344 2344 247 
Q 2463 116 2709 116 
L 2856 116 
L 2856 0 
L 1059 0 
L 1059 116 
L 1209 116 
Q 1478 116 1591 278 
Q 1659 378 1659 734 
L 1659 3972 
L 1150 3972 
Q 853 3972 728 3928 
Q 566 3869 450 3700 
Q 334 3531 313 3244 
L 194 3244 
L 244 4238 
L 3703 4238 
z
" id="TimesNewRomanPSMT-54" transform="scale(0.015625)"/>
       <path d="M 928 4444 
Q 1059 4444 1151 4351 
Q 1244 4259 1244 4128 
Q 1244 3997 1151 3903 
Q 1059 3809 928 3809 
Q 797 3809 703 3903 
Q 609 3997 609 4128 
Q 609 4259 701 4351 
Q 794 4444 928 4444 
z
M 1188 2947 
L 1188 647 
Q 1188 378 1227 289 
Q 1266 200 1342 156 
Q 1419 113 1622 113 
L 1622 0 
L 231 0 
L 231 113 
Q 441 113 512 153 
Q 584 194 626 287 
Q 669 381 669 647 
L 669 1750 
Q 669 2216 641 2353 
Q 619 2453 572 2492 
Q 525 2531 444 2531 
Q 356 2531 231 2484 
L 188 2597 
L 1050 2947 
L 1188 2947 
z
" id="TimesNewRomanPSMT-69" transform="scale(0.015625)"/>
       <path d="M 1050 2338 
Q 1363 2650 1419 2697 
Q 1559 2816 1721 2881 
Q 1884 2947 2044 2947 
Q 2313 2947 2506 2790 
Q 2700 2634 2766 2338 
Q 3088 2713 3309 2830 
Q 3531 2947 3766 2947 
Q 3994 2947 4170 2830 
Q 4347 2713 4450 2447 
Q 4519 2266 4519 1878 
L 4519 647 
Q 4519 378 4559 278 
Q 4591 209 4675 161 
Q 4759 113 4950 113 
L 4950 0 
L 3538 0 
L 3538 113 
L 3597 113 
Q 3781 113 3884 184 
Q 3956 234 3988 344 
Q 4000 397 4000 647 
L 4000 1878 
Q 4000 2228 3916 2372 
Q 3794 2572 3525 2572 
Q 3359 2572 3192 2489 
Q 3025 2406 2788 2181 
L 2781 2147 
L 2788 2013 
L 2788 647 
Q 2788 353 2820 281 
Q 2853 209 2943 161 
Q 3034 113 3253 113 
L 3253 0 
L 1806 0 
L 1806 113 
Q 2044 113 2133 169 
Q 2222 225 2256 338 
Q 2272 391 2272 647 
L 2272 1878 
Q 2272 2228 2169 2381 
Q 2031 2581 1784 2581 
Q 1616 2581 1450 2491 
Q 1191 2353 1050 2181 
L 1050 647 
Q 1050 366 1089 281 
Q 1128 197 1204 155 
Q 1281 113 1516 113 
L 1516 0 
L 100 0 
L 100 113 
Q 297 113 375 155 
Q 453 197 493 289 
Q 534 381 534 647 
L 534 1741 
Q 534 2213 506 2350 
Q 484 2453 437 2492 
Q 391 2531 309 2531 
Q 222 2531 100 2484 
L 53 2597 
L 916 2947 
L 1050 2947 
L 1050 2338 
z
" id="TimesNewRomanPSMT-6d" transform="scale(0.015625)"/>
       <path d="M 681 1784 
Q 678 1147 991 784 
Q 1303 422 1725 422 
Q 2006 422 2214 576 
Q 2422 731 2563 1106 
L 2659 1044 
Q 2594 616 2278 264 
Q 1963 -88 1488 -88 
Q 972 -88 605 314 
Q 238 716 238 1394 
Q 238 2128 614 2539 
Q 991 2950 1559 2950 
Q 2041 2950 2350 2633 
Q 2659 2316 2659 1784 
L 681 1784 
z
M 681 1966 
L 2006 1966 
Q 1991 2241 1941 2353 
Q 1863 2528 1708 2628 
Q 1553 2728 1384 2728 
Q 1125 2728 920 2526 
Q 716 2325 681 1966 
z
" id="TimesNewRomanPSMT-65" transform="scale(0.015625)"/>
       <path id="TimesNewRomanPSMT-20" transform="scale(0.015625)"/>
       <path d="M 1988 -1253 
L 1988 -1369 
Q 1516 -1131 1200 -813 
Q 750 -359 506 256 
Q 263 872 263 1534 
Q 263 2503 741 3301 
Q 1219 4100 1988 4444 
L 1988 4313 
Q 1603 4100 1356 3731 
Q 1109 3363 987 2797 
Q 866 2231 866 1616 
Q 866 947 969 400 
Q 1050 -31 1165 -292 
Q 1281 -553 1476 -793 
Q 1672 -1034 1988 -1253 
z
" id="TimesNewRomanPSMT-28" transform="scale(0.015625)"/>
       <path d="M 2050 2947 
L 2050 1972 
L 1947 1972 
Q 1828 2431 1642 2597 
Q 1456 2763 1169 2763 
Q 950 2763 815 2647 
Q 681 2531 681 2391 
Q 681 2216 781 2091 
Q 878 1963 1175 1819 
L 1631 1597 
Q 2266 1288 2266 781 
Q 2266 391 1970 151 
Q 1675 -88 1309 -88 
Q 1047 -88 709 6 
Q 606 38 541 38 
Q 469 38 428 -44 
L 325 -44 
L 325 978 
L 428 978 
Q 516 541 762 319 
Q 1009 97 1316 97 
Q 1531 97 1667 223 
Q 1803 350 1803 528 
Q 1803 744 1651 891 
Q 1500 1038 1047 1263 
Q 594 1488 453 1669 
Q 313 1847 313 2119 
Q 313 2472 555 2709 
Q 797 2947 1181 2947 
Q 1350 2947 1591 2875 
Q 1750 2828 1803 2828 
Q 1853 2828 1881 2850 
Q 1909 2872 1947 2947 
L 2050 2947 
z
" id="TimesNewRomanPSMT-73" transform="scale(0.015625)"/>
       <path d="M 2631 1088 
Q 2516 522 2178 217 
Q 1841 -88 1431 -88 
Q 944 -88 581 321 
Q 219 731 219 1428 
Q 219 2103 620 2525 
Q 1022 2947 1584 2947 
Q 2006 2947 2278 2723 
Q 2550 2500 2550 2259 
Q 2550 2141 2473 2067 
Q 2397 1994 2259 1994 
Q 2075 1994 1981 2113 
Q 1928 2178 1911 2362 
Q 1894 2547 1784 2644 
Q 1675 2738 1481 2738 
Q 1169 2738 978 2506 
Q 725 2200 725 1697 
Q 725 1184 976 792 
Q 1228 400 1656 400 
Q 1963 400 2206 609 
Q 2378 753 2541 1131 
L 2631 1088 
z
" id="TimesNewRomanPSMT-63" transform="scale(0.015625)"/>
       <path d="M 144 4313 
L 144 4444 
Q 619 4209 934 3891 
Q 1381 3434 1625 2820 
Q 1869 2206 1869 1541 
Q 1869 572 1392 -226 
Q 916 -1025 144 -1369 
L 144 -1253 
Q 528 -1038 776 -670 
Q 1025 -303 1145 264 
Q 1266 831 1266 1447 
Q 1266 2113 1163 2663 
Q 1084 3094 967 3353 
Q 850 3613 656 3853 
Q 463 4094 144 4313 
z
" id="TimesNewRomanPSMT-29" transform="scale(0.015625)"/>
      </defs>
      <use xlink:href="#TimesNewRomanPSMT-54"/>
      <use x="57.583984" xlink:href="#TimesNewRomanPSMT-69"/>
      <use x="85.367188" xlink:href="#TimesNewRomanPSMT-6d"/>
      <use x="163.150391" xlink:href="#TimesNewRomanPSMT-65"/>
      <use x="207.535156" xlink:href="#TimesNewRomanPSMT-20"/>
      <use x="232.535156" xlink:href="#TimesNewRomanPSMT-28"/>
      <use x="265.835938" xlink:href="#TimesNewRomanPSMT-73"/>
      <use x="304.751953" xlink:href="#TimesNewRomanPSMT-65"/>
      <use x="349.136719" xlink:href="#TimesNewRomanPSMT-63"/>
      <use x="393.521484" xlink:href="#TimesNewRomanPSMT-29"/>
     </g>
    </g>
   </g>
   <g id="matplotlib.axis_2">
    <g id="ytick_1">
     <g id="line2d_10">
      <path clip-path="url(#p9fbf32effd)" d="M 72 320.4 
L 518.4 320.4 
" style="fill:none;stroke:#b2b2b2;stroke-dasharray:0.8,1.32;stroke-dashoffset:0;stroke-width:0.8;"/>
     </g>
     <g id="line2d_11">
      <defs>
       <path d="M 0 0 
L -3.5 0 
" id="m35b015f286" style="stroke:#000000;stroke-width:0.8;"/>
      </defs>
      <g>
       <use style="stroke:#000000;stroke-width:0.8;" x="72" xlink:href="#m35b015f286" y="320.4"/>
      </g>
     </g>
     <g id="text_11">
      <!-- 0 -->
      <g transform="translate(57 325.955)scale(0.16 -0.16)">
       <use xlink:href="#TimesNewRomanPSMT-30"/>
      </g>
     </g>
    </g>
    <g id="ytick_2">
     <g id="line2d_12">
      <path clip-path="url(#p9fbf32effd)" d="M 72 264.96 
L 518.4 264.96 
" style="fill:none;stroke:#b2b2b2;stroke-dasharray:0.8,1.32;stroke-dashoffset:0;stroke-width:0.8;"/>
     </g>
     <g id="line2d_13">
      <g>
       <use style="stroke:#000000;stroke-width:0.8;" x="72" xlink:href="#m35b015f286" y="264.96"/>
      </g>
     </g>
     <g id="text_12">
      <!-- 1000 -->
      <g transform="translate(33 270.515)scale(0.16 -0.16)">
       <use xlink:href="#TimesNewRomanPSMT-31"/>
       <use x="50" xlink:href="#TimesNewRomanPSMT-30"/>
       <use x="100" xlink:href="#TimesNewRomanPSMT-30"/>
       <use x="150" xlink:href="#TimesNewRomanPSMT-30"/>
      </g>
     </g>
    </g>
    <g id="ytick_3">
     <g id="line2d_14">
      <path clip-path="url(#p9fbf32effd)" d="M 72 209.52 
L 518.4 209.52 
" style="fill:none;stroke:#b2b2b2;stroke-dasharray:0.8,1.32;stroke-dashoffset:0;stroke-width:0.8;"/>
     </g>
     <g id="line2d_15">
      <g>
       <use style="stroke:#000000;stroke-width:0.8;" x="72" xlink:href="#m35b015f286" y="209.52"/>
      </g>
     </g>
     <g id="text_13">
      <!-- 2000 -->
      <g transform="translate(33 215.075)scale(0.16 -0.16)">
       <use xlink:href="#TimesNewRomanPSMT-32"/>
       <use x="50" xlink:href="#TimesNewRomanPSMT-30"/>
       <use x="100" xlink:href="#TimesNewRomanPSMT-30"/>
       <use x="150" xlink:href="#TimesNewRomanPSMT-30"/>
      </g>
     </g>
    </g>
    <g id="ytick_4">
     <g id="line2d_16">
      <path clip-path="url(#p9fbf32effd)" d="M 72 154.08 
L 518.4 154.08 
" style="fill:none;stroke:#b2b2b2;stroke-dasharray:0.8,1.32;stroke-dashoffset:0;stroke-width:0.8;"/>
     </g>
     <g id="line2d_17">
      <g>
       <use style="stroke:#000000;stroke-width:0.8;" x="72" xlink:href="#m35b015f286" y="154.08"/>
      </g>
     </g>
     <g id="text_14">
      <!-- 3000 -->
      <g transform="translate(33 159.635)scale(0.16 -0.16)">
       <use xlink:href="#TimesNewRomanPSMT-33"/>
       <use x="50" xlink:href="#TimesNewRomanPSMT-30"/>
       <use x="100" xlink:href="#TimesNewRomanPSMT-30"/>
       <use x="150" xlink:href="#TimesNewRomanPSMT-30"/>
      </g>
     </g>
    </g>
    <g id="ytick_5">
     <g id="line2d_18">
      <path clip-path="url(#p9fbf32effd)" d="M 72 98.64 
L 518.4 98.64 
" style="fill:none;stroke:#b2b2b2;stroke-dasharray:0.8,1.32;stroke-dashoffset:0;stroke-width:0.8;"/>
     </g>
     <g id="line2d_19">
      <g>
       <use style="stroke:#000000;stroke-width:0.8;" x="72" xlink:href="#m35b015f286" y="98.64"/>
      </g>
     </g>
     <g id="text_15">
      <!-- 4000 -->
      <g transform="translate(33 104.195)scale(0.16 -0.16)">
       <use xlink:href="#TimesNewRomanPSMT-34"/>
       <use x="50" xlink:href="#TimesNewRomanPSMT-30"/>
       <use x="100" xlink:href="#TimesNewRomanPSMT-30"/>
       <use x="150" xlink:href="#TimesNewRomanPSMT-30"/>
      </g>
     </g>
    </g>
    <g id="ytick_6">
     <g id="line2d_20">
      <path clip-path="url(#p9fbf32effd)" d="M 72 43.2 
L 518.4 43.2 
" style="fill:none;stroke:#b2b2b2;stroke-dasharray:0.8,1.32;stroke-dashoffset:0;stroke-width:0.8;"/>
     </g>
     <g id="line2d_21">
      <g>
       <use style="stroke:#000000;stroke-width:0.8;" x="72" xlink:href="#m35b015f286" y="43.2"/>
      </g>
     </g>
     <g id="text_16">
      <!-- 5000 -->
      <g transform="translate(33 48.755)scale(0.16 -0.16)">
       <use xlink:href="#TimesNewRomanPSMT-35"/>
       <use x="50" xlink:href="#TimesNewRomanPSMT-30"/>
       <use x="100" xlink:href="#TimesNewRomanPSMT-30"/>
       <use x="150" xlink:href="#TimesNewRomanPSMT-30"/>
      </g>
     </g>
    </g>
    <g id="text_17">
     <!-- IOPS -->
     <g transform="translate(25.5775 199.13875)rotate(-90)scale(0.16 -0.16)">
      <defs>
       <path d="M 1975 116 
L 1975 0 
L 159 0 
L 159 116 
L 309 116 
Q 572 116 691 269 
Q 766 369 766 750 
L 766 3488 
Q 766 3809 725 3913 
Q 694 3991 597 4047 
Q 459 4122 309 4122 
L 159 4122 
L 159 4238 
L 1975 4238 
L 1975 4122 
L 1822 4122 
Q 1563 4122 1444 3969 
Q 1366 3869 1366 3488 
L 1366 750 
Q 1366 428 1406 325 
Q 1438 247 1538 191 
Q 1672 116 1822 116 
L 1975 116 
z
" id="TimesNewRomanPSMT-49" transform="scale(0.015625)"/>
       <path d="M 2341 4334 
Q 3166 4334 3770 3707 
Q 4375 3081 4375 2144 
Q 4375 1178 3765 540 
Q 3156 -97 2291 -97 
Q 1416 -97 820 525 
Q 225 1147 225 2134 
Q 225 3144 913 3781 
Q 1509 4334 2341 4334 
z
M 2281 4106 
Q 1713 4106 1369 3684 
Q 941 3159 941 2147 
Q 941 1109 1384 550 
Q 1725 125 2284 125 
Q 2881 125 3270 590 
Q 3659 1056 3659 2059 
Q 3659 3147 3231 3681 
Q 2888 4106 2281 4106 
z
" id="TimesNewRomanPSMT-4f" transform="scale(0.015625)"/>
       <path d="M 1313 1984 
L 1313 750 
Q 1313 350 1400 253 
Q 1519 116 1759 116 
L 1922 116 
L 1922 0 
L 106 0 
L 106 116 
L 266 116 
Q 534 116 650 291 
Q 713 388 713 750 
L 713 3488 
Q 713 3888 628 3984 
Q 506 4122 266 4122 
L 106 4122 
L 106 4238 
L 1659 4238 
Q 2228 4238 2556 4120 
Q 2884 4003 3109 3725 
Q 3334 3447 3334 3066 
Q 3334 2547 2992 2222 
Q 2650 1897 2025 1897 
Q 1872 1897 1694 1919 
Q 1516 1941 1313 1984 
z
M 1313 2163 
Q 1478 2131 1606 2115 
Q 1734 2100 1825 2100 
Q 2150 2100 2386 2351 
Q 2622 2603 2622 3003 
Q 2622 3278 2509 3514 
Q 2397 3750 2190 3867 
Q 1984 3984 1722 3984 
Q 1563 3984 1313 3925 
L 1313 2163 
z
" id="TimesNewRomanPSMT-50" transform="scale(0.015625)"/>
       <path d="M 2934 4334 
L 2934 2869 
L 2819 2869 
Q 2763 3291 2617 3541 
Q 2472 3791 2203 3937 
Q 1934 4084 1647 4084 
Q 1322 4084 1109 3886 
Q 897 3688 897 3434 
Q 897 3241 1031 3081 
Q 1225 2847 1953 2456 
Q 2547 2138 2764 1967 
Q 2981 1797 3098 1565 
Q 3216 1334 3216 1081 
Q 3216 600 2842 251 
Q 2469 -97 1881 -97 
Q 1697 -97 1534 -69 
Q 1438 -53 1133 45 
Q 828 144 747 144 
Q 669 144 623 97 
Q 578 50 556 -97 
L 441 -97 
L 441 1356 
L 556 1356 
Q 638 900 775 673 
Q 913 447 1195 297 
Q 1478 147 1816 147 
Q 2206 147 2432 353 
Q 2659 559 2659 841 
Q 2659 997 2573 1156 
Q 2488 1316 2306 1453 
Q 2184 1547 1640 1851 
Q 1097 2156 867 2337 
Q 638 2519 519 2737 
Q 400 2956 400 3219 
Q 400 3675 750 4004 
Q 1100 4334 1641 4334 
Q 1978 4334 2356 4169 
Q 2531 4091 2603 4091 
Q 2684 4091 2736 4139 
Q 2788 4188 2819 4334 
L 2934 4334 
z
" id="TimesNewRomanPSMT-53" transform="scale(0.015625)"/>
      </defs>
      <use xlink:href="#TimesNewRomanPSMT-49"/>
      <use x="33.300781" xlink:href="#TimesNewRomanPSMT-4f"/>
      <use x="105.517578" xlink:href="#TimesNewRomanPSMT-50"/>
      <use x="161.132812" xlink:href="#TimesNewRomanPSMT-53"/>
     </g>
    </g>
   </g>
   <g id="line2d_22">
    <path clip-path="url(#p9fbf32effd)" d="M 72 227.03904 
L 77.01573 226.65096 
L 82.031461 226.95588 
L 87.047191 227.14992 
L 92.062921 227.23308 
L 97.078652 227.06676 
L 102.094382 226.845 
L 107.110112 226.92816 
L 112.125843 227.78748 
L 117.141573 228.14784 
L 122.157303 228.03696 
L 127.173034 228.12012 
L 132.188764 228.06468 
L 137.204494 236.85192 
L 142.220225 320.4 
L 147.235955 320.4 
L 152.251685 320.4 
L 157.267416 296.9766 
L 162.283146 94.87008 
L 167.298876 96.75504 
L 172.314607 164.80764 
L 177.330337 207.55188 
L 182.346067 211.23864 
L 187.361798 227.28852 
L 192.377528 227.03904 
L 197.393258 227.28852 
L 202.408989 227.37168 
L 207.424719 227.03904 
L 212.440449 250.57332 
L 217.45618 320.4 
L 222.47191 320.4 
L 227.48764 320.4 
L 232.503371 263.76804 
L 237.519101 94.39884 
L 242.534831 96.8382 
L 247.550562 182.16036 
L 252.566292 207.91224 
L 257.582022 215.84016 
L 262.597753 227.37168 
L 267.613483 226.87272 
L 272.629213 227.59344 
L 277.644944 227.51028 
L 282.660674 227.9538 
L 287.676404 260.58024 
L 292.692135 320.4 
L 297.707865 320.4 
L 302.723596 320.4 
L 307.739326 238.84776 
L 312.755056 93.6504 
L 317.770787 94.23252 
L 322.786517 197.98848 
L 327.802247 208.134 
L 332.817978 218.36268 
L 337.833708 227.2608 
L 342.849438 227.3994 
L 347.865169 227.34396 
L 352.880899 227.09448 
L 357.896629 227.01132 
L 362.91236 271.4742 
L 367.92809 320.4 
L 372.94382 320.4 
L 377.959551 320.4 
L 382.975281 212.20884 
L 387.991011 95.3136 
L 393.006742 95.67396 
L 398.022472 207.74592 
L 403.038202 207.49644 
L 408.053933 218.6676 
L 413.069663 227.17764 
L 418.085393 227.23308 
L 423.101124 227.01132 
L 428.116854 226.81728 
L 433.132584 226.48464 
L 438.148315 286.96968 
L 443.164045 320.4 
L 448.179775 320.4 
L 453.195506 320.4 
L 458.211236 175.50756 
L 463.226966 95.23044 
L 468.242697 112.25052 
L 473.258427 207.60732 
L 478.274157 208.10628 
L 483.289888 223.1028 
L 488.305618 226.78956 
L 493.321348 226.65096 
L 498.337079 226.48464 
L 503.352809 226.7064 
L 508.368539 226.4292 
L 513.38427 303.96204 
L 518.4 320.4 
" style="fill:none;stroke:#d73027;stroke-linecap:square;stroke-width:2;"/>
    <defs>
     <path d="M -3 3 
L 3 -3 
M -3 -3 
L 3 3 
" id="m2d6f3df14a" style="stroke:#d73027;"/>
    </defs>
    <g clip-path="url(#p9fbf32effd)">
     <use style="fill:#d73027;stroke:#d73027;" x="72" xlink:href="#m2d6f3df14a" y="227.03904"/>
     <use style="fill:#d73027;stroke:#d73027;" x="77.01573" xlink:href="#m2d6f3df14a" y="226.65096"/>
     <use style="fill:#d73027;stroke:#d73027;" x="82.031461" xlink:href="#m2d6f3df14a" y="226.95588"/>
     <use style="fill:#d73027;stroke:#d73027;" x="87.047191" xlink:href="#m2d6f3df14a" y="227.14992"/>
     <use style="fill:#d73027;stroke:#d73027;" x="92.062921" xlink:href="#m2d6f3df14a" y="227.23308"/>
     <use style="fill:#d73027;stroke:#d73027;" x="97.078652" xlink:href="#m2d6f3df14a" y="227.06676"/>
     <use style="fill:#d73027;stroke:#d73027;" x="102.094382" xlink:href="#m2d6f3df14a" y="226.845"/>
     <use style="fill:#d73027;stroke:#d73027;" x="107.110112" xlink:href="#m2d6f3df14a" y="226.92816"/>
     <use style="fill:#d73027;stroke:#d73027;" x="112.125843" xlink:href="#m2d6f3df14a" y="227.78748"/>
     <use style="fill:#d73027;stroke:#d73027;" x="117.141573" xlink:href="#m2d6f3df14a" y="228.14784"/>
     <use style="fill:#d73027;stroke:#d73027;" x="122.157303" xlink:href="#m2d6f3df14a" y="228.03696"/>
     <use style="fill:#d73027;stroke:#d73027;" x="127.173034" xlink:href="#m2d6f3df14a" y="228.12012"/>
     <use style="fill:#d73027;stroke:#d73027;" x="132.188764" xlink:href="#m2d6f3df14a" y="228.06468"/>
     <use style="fill:#d73027;stroke:#d73027;" x="137.204494" xlink:href="#m2d6f3df14a" y="236.85192"/>
     <use style="fill:#d73027;stroke:#d73027;" x="142.220225" xlink:href="#m2d6f3df14a" y="320.4"/>
     <use style="fill:#d73027;stroke:#d73027;" x="147.235955" xlink:href="#m2d6f3df14a" y="320.4"/>
     <use style="fill:#d73027;stroke:#d73027;" x="152.251685" xlink:href="#m2d6f3df14a" y="320.4"/>
     <use style="fill:#d73027;stroke:#d73027;" x="157.267416" xlink:href="#m2d6f3df14a" y="296.9766"/>
     <use style="fill:#d73027;stroke:#d73027;" x="162.283146" xlink:href="#m2d6f3df14a" y="94.87008"/>
     <use style="fill:#d73027;stroke:#d73027;" x="167.298876" xlink:href="#m2d6f3df14a" y="96.75504"/>
     <use style="fill:#d73027;stroke:#d73027;" x="172.314607" xlink:href="#m2d6f3df14a" y="164.80764"/>
     <use style="fill:#d73027;stroke:#d73027;" x="177.330337" xlink:href="#m2d6f3df14a" y="207.55188"/>
     <use style="fill:#d73027;stroke:#d73027;" x="182.346067" xlink:href="#m2d6f3df14a" y="211.23864"/>
     <use style="fill:#d73027;stroke:#d73027;" x="187.361798" xlink:href="#m2d6f3df14a" y="227.28852"/>
     <use style="fill:#d73027;stroke:#d73027;" x="192.377528" xlink:href="#m2d6f3df14a" y="227.03904"/>
     <use style="fill:#d73027;stroke:#d73027;" x="197.393258" xlink:href="#m2d6f3df14a" y="227.28852"/>
     <use style="fill:#d73027;stroke:#d73027;" x="202.408989" xlink:href="#m2d6f3df14a" y="227.37168"/>
     <use style="fill:#d73027;stroke:#d73027;" x="207.424719" xlink:href="#m2d6f3df14a" y="227.03904"/>
     <use style="fill:#d73027;stroke:#d73027;" x="212.440449" xlink:href="#m2d6f3df14a" y="250.57332"/>
     <use style="fill:#d73027;stroke:#d73027;" x="217.45618" xlink:href="#m2d6f3df14a" y="320.4"/>
     <use style="fill:#d73027;stroke:#d73027;" x="222.47191" xlink:href="#m2d6f3df14a" y="320.4"/>
     <use style="fill:#d73027;stroke:#d73027;" x="227.48764" xlink:href="#m2d6f3df14a" y="320.4"/>
     <use style="fill:#d73027;stroke:#d73027;" x="232.503371" xlink:href="#m2d6f3df14a" y="263.76804"/>
     <use style="fill:#d73027;stroke:#d73027;" x="237.519101" xlink:href="#m2d6f3df14a" y="94.39884"/>
     <use style="fill:#d73027;stroke:#d73027;" x="242.534831" xlink:href="#m2d6f3df14a" y="96.8382"/>
     <use style="fill:#d73027;stroke:#d73027;" x="247.550562" xlink:href="#m2d6f3df14a" y="182.16036"/>
     <use style="fill:#d73027;stroke:#d73027;" x="252.566292" xlink:href="#m2d6f3df14a" y="207.91224"/>
     <use style="fill:#d73027;stroke:#d73027;" x="257.582022" xlink:href="#m2d6f3df14a" y="215.84016"/>
     <use style="fill:#d73027;stroke:#d73027;" x="262.597753" xlink:href="#m2d6f3df14a" y="227.37168"/>
     <use style="fill:#d73027;stroke:#d73027;" x="267.613483" xlink:href="#m2d6f3df14a" y="226.87272"/>
     <use style="fill:#d73027;stroke:#d73027;" x="272.629213" xlink:href="#m2d6f3df14a" y="227.59344"/>
     <use style="fill:#d73027;stroke:#d73027;" x="277.644944" xlink:href="#m2d6f3df14a" y="227.51028"/>
     <use style="fill:#d73027;stroke:#d73027;" x="282.660674" xlink:href="#m2d6f3df14a" y="227.9538"/>
     <use style="fill:#d73027;stroke:#d73027;" x="287.676404" xlink:href="#m2d6f3df14a" y="260.58024"/>
     <use style="fill:#d73027;stroke:#d73027;" x="292.692135" xlink:href="#m2d6f3df14a" y="320.4"/>
     <use style="fill:#d73027;stroke:#d73027;" x="297.707865" xlink:href="#m2d6f3df14a" y="320.4"/>
     <use style="fill:#d73027;stroke:#d73027;" x="302.723596" xlink:href="#m2d6f3df14a" y="320.4"/>
     <use style="fill:#d73027;stroke:#d73027;" x="307.739326" xlink:href="#m2d6f3df14a" y="238.84776"/>
     <use style="fill:#d73027;stroke:#d73027;" x="312.755056" xlink:href="#m2d6f3df14a" y="93.6504"/>
     <use style="fill:#d73027;stroke:#d73027;" x="317.770787" xlink:href="#m2d6f3df14a" y="94.23252"/>
     <use style="fill:#d73027;stroke:#d73027;" x="322.786517" xlink:href="#m2d6f3df14a" y="197.98848"/>
     <use style="fill:#d73027;stroke:#d73027;" x="327.802247" xlink:href="#m2d6f3df14a" y="208.134"/>
     <use style="fill:#d73027;stroke:#d73027;" x="332.817978" xlink:href="#m2d6f3df14a" y="218.36268"/>
     <use style="fill:#d73027;stroke:#d73027;" x="337.833708" xlink:href="#m2d6f3df14a" y="227.2608"/>
     <use style="fill:#d73027;stroke:#d73027;" x="342.849438" xlink:href="#m2d6f3df14a" y="227.3994"/>
     <use style="fill:#d73027;stroke:#d73027;" x="347.865169" xlink:href="#m2d6f3df14a" y="227.34396"/>
     <use style="fill:#d73027;stroke:#d73027;" x="352.880899" xlink:href="#m2d6f3df14a" y="227.09448"/>
     <use style="fill:#d73027;stroke:#d73027;" x="357.896629" xlink:href="#m2d6f3df14a" y="227.01132"/>
     <use style="fill:#d73027;stroke:#d73027;" x="362.91236" xlink:href="#m2d6f3df14a" y="271.4742"/>
     <use style="fill:#d73027;stroke:#d73027;" x="367.92809" xlink:href="#m2d6f3df14a" y="320.4"/>
     <use style="fill:#d73027;stroke:#d73027;" x="372.94382" xlink:href="#m2d6f3df14a" y="320.4"/>
     <use style="fill:#d73027;stroke:#d73027;" x="377.959551" xlink:href="#m2d6f3df14a" y="320.4"/>
     <use style="fill:#d73027;stroke:#d73027;" x="382.975281" xlink:href="#m2d6f3df14a" y="212.20884"/>
     <use style="fill:#d73027;stroke:#d73027;" x="387.991011" xlink:href="#m2d6f3df14a" y="95.3136"/>
     <use style="fill:#d73027;stroke:#d73027;" x="393.006742" xlink:href="#m2d6f3df14a" y="95.67396"/>
     <use style="fill:#d73027;stroke:#d73027;" x="398.022472" xlink:href="#m2d6f3df14a" y="207.74592"/>
     <use style="fill:#d73027;stroke:#d73027;" x="403.038202" xlink:href="#m2d6f3df14a" y="207.49644"/>
     <use style="fill:#d73027;stroke:#d73027;" x="408.053933" xlink:href="#m2d6f3df14a" y="218.6676"/>
     <use style="fill:#d73027;stroke:#d73027;" x="413.069663" xlink:href="#m2d6f3df14a" y="227.17764"/>
     <use style="fill:#d73027;stroke:#d73027;" x="418.085393" xlink:href="#m2d6f3df14a" y="227.23308"/>
     <use style="fill:#d73027;stroke:#d73027;" x="423.101124" xlink:href="#m2d6f3df14a" y="227.01132"/>
     <use style="fill:#d73027;stroke:#d73027;" x="428.116854" xlink:href="#m2d6f3df14a" y="226.81728"/>
     <use style="fill:#d73027;stroke:#d73027;" x="433.132584" xlink:href="#m2d6f3df14a" y="226.48464"/>
     <use style="fill:#d73027;stroke:#d73027;" x="438.148315" xlink:href="#m2d6f3df14a" y="286.96968"/>
     <use style="fill:#d73027;stroke:#d73027;" x="443.164045" xlink:href="#m2d6f3df14a" y="320.4"/>
     <use style="fill:#d73027;stroke:#d73027;" x="448.179775" xlink:href="#m2d6f3df14a" y="320.4"/>
     <use style="fill:#d73027;stroke:#d73027;" x="453.195506" xlink:href="#m2d6f3df14a" y="320.4"/>
     <use style="fill:#d73027;stroke:#d73027;" x="458.211236" xlink:href="#m2d6f3df14a" y="175.50756"/>
     <use style="fill:#d73027;stroke:#d73027;" x="463.226966" xlink:href="#m2d6f3df14a" y="95.23044"/>
     <use style="fill:#d73027;stroke:#d73027;" x="468.242697" xlink:href="#m2d6f3df14a" y="112.25052"/>
     <use style="fill:#d73027;stroke:#d73027;" x="473.258427" xlink:href="#m2d6f3df14a" y="207.60732"/>
     <use style="fill:#d73027;stroke:#d73027;" x="478.274157" xlink:href="#m2d6f3df14a" y="208.10628"/>
     <use style="fill:#d73027;stroke:#d73027;" x="483.289888" xlink:href="#m2d6f3df14a" y="223.1028"/>
     <use style="fill:#d73027;stroke:#d73027;" x="488.305618" xlink:href="#m2d6f3df14a" y="226.78956"/>
     <use style="fill:#d73027;stroke:#d73027;" x="493.321348" xlink:href="#m2d6f3df14a" y="226.65096"/>
     <use style="fill:#d73027;stroke:#d73027;" x="498.337079" xlink:href="#m2d6f3df14a" y="226.48464"/>
     <use style="fill:#d73027;stroke:#d73027;" x="503.352809" xlink:href="#m2d6f3df14a" y="226.7064"/>
     <use style="fill:#d73027;stroke:#d73027;" x="508.368539" xlink:href="#m2d6f3df14a" y="226.4292"/>
     <use style="fill:#d73027;stroke:#d73027;" x="513.38427" xlink:href="#m2d6f3df14a" y="303.96204"/>
     <use style="fill:#d73027;stroke:#d73027;" x="518.4" xlink:href="#m2d6f3df14a" y="320.4"/>
    </g>
   </g>
   <g id="line2d_23">
    <path clip-path="url(#p9fbf32effd)" d="M 72 227.09448 
L 77.01573 226.65096 
L 82.031461 226.92816 
L 87.047191 227.20536 
L 92.062921 227.20536 
L 97.078652 227.03904 
L 102.094382 226.845 
L 107.110112 226.95588 
L 112.125843 227.75976 
L 117.141573 228.17556 
L 122.157303 228.03696 
L 127.173034 228.12012 
L 132.188764 228.06468 
L 137.204494 222.52068 
L 142.220225 180.21996 
L 147.235955 180.38628 
L 152.251685 180.1368 
L 157.267416 189.03492 
L 162.283146 264.93228 
L 167.298876 264.96 
L 172.314607 264.96 
L 177.330337 264.96 
L 182.346067 258.14088 
L 187.361798 227.28852 
L 192.377528 227.06676 
L 197.393258 227.23308 
L 202.408989 227.3994 
L 207.424719 227.03904 
L 212.440449 215.81244 
L 217.45618 181.55052 
L 222.47191 181.02384 
L 227.48764 180.99612 
L 232.503371 202.11876 
L 237.519101 264.96 
L 242.534831 264.96 
L 247.550562 264.96 
L 252.566292 264.96 
L 257.582022 251.34948 
L 262.597753 227.31624 
L 267.613483 226.90044 
L 272.629213 227.62116 
L 277.644944 227.51028 
L 282.660674 227.9538 
L 287.676404 210.68424 
L 292.692135 181.3842 
L 297.707865 181.46736 
L 302.723596 181.99404 
L 307.739326 212.59692 
L 312.755056 264.96 
L 317.770787 264.96 
L 322.786517 264.96 
L 327.802247 264.96 
L 332.817978 245.05704 
L 337.833708 227.20536 
L 342.849438 227.3994 
L 347.865169 227.37168 
L 352.880899 227.09448 
L 357.896629 227.01132 
L 362.91236 205.0848 
L 367.92809 180.58032 
L 372.94382 180.414 
L 377.959551 180.35856 
L 382.975281 220.7466 
L 387.991011 264.96 
L 393.006742 264.96 
L 398.022472 264.96 
L 403.038202 264.93228 
L 408.053933 242.784 
L 413.069663 227.14992 
L 418.085393 227.2608 
L 423.101124 227.01132 
L 428.116854 226.81728 
L 433.132584 226.51236 
L 438.148315 196.74108 
L 443.164045 180.9684 
L 448.179775 180.71892 
L 453.195506 180.49716 
L 458.211236 234.93924 
L 463.226966 264.96 
L 468.242697 264.96 
L 473.258427 264.93228 
L 478.274157 264.96 
L 483.289888 236.24208 
L 488.305618 226.81728 
L 493.321348 226.67868 
L 498.337079 226.45692 
L 503.352809 226.73412 
L 508.368539 226.40148 
L 513.38427 303.93432 
L 518.4 320.4 
" style="fill:none;stroke:#f46d43;stroke-dasharray:7.4,3.2;stroke-dashoffset:0;stroke-width:2;"/>
    <defs>
     <path d="M 0 3 
C 0.795609 3 1.55874 2.683901 2.12132 2.12132 
C 2.683901 1.55874 3 0.795609 3 0 
C 3 -0.795609 2.683901 -1.55874 2.12132 -2.12132 
C 1.55874 -2.683901 0.795609 -3 0 -3 
C -0.795609 -3 -1.55874 -2.683901 -2.12132 -2.12132 
C -2.683901 -1.55874 -3 -0.795609 -3 0 
C -3 0.795609 -2.683901 1.55874 -2.12132 2.12132 
C -1.55874 2.683901 -0.795609 3 0 3 
z
" id="m84a790c575" style="stroke:#f46d43;"/>
    </defs>
    <g clip-path="url(#p9fbf32effd)">
     <use style="fill:#f46d43;stroke:#f46d43;" x="72" xlink:href="#m84a790c575" y="227.09448"/>
     <use style="fill:#f46d43;stroke:#f46d43;" x="77.01573" xlink:href="#m84a790c575" y="226.65096"/>
     <use style="fill:#f46d43;stroke:#f46d43;" x="82.031461" xlink:href="#m84a790c575" y="226.92816"/>
     <use style="fill:#f46d43;stroke:#f46d43;" x="87.047191" xlink:href="#m84a790c575" y="227.20536"/>
     <use style="fill:#f46d43;stroke:#f46d43;" x="92.062921" xlink:href="#m84a790c575" y="227.20536"/>
     <use style="fill:#f46d43;stroke:#f46d43;" x="97.078652" xlink:href="#m84a790c575" y="227.03904"/>
     <use style="fill:#f46d43;stroke:#f46d43;" x="102.094382" xlink:href="#m84a790c575" y="226.845"/>
     <use style="fill:#f46d43;stroke:#f46d43;" x="107.110112" xlink:href="#m84a790c575" y="226.95588"/>
     <use style="fill:#f46d43;stroke:#f46d43;" x="112.125843" xlink:href="#m84a790c575" y="227.75976"/>
     <use style="fill:#f46d43;stroke:#f46d43;" x="117.141573" xlink:href="#m84a790c575" y="228.17556"/>
     <use style="fill:#f46d43;stroke:#f46d43;" x="122.157303" xlink:href="#m84a790c575" y="228.03696"/>
     <use style="fill:#f46d43;stroke:#f46d43;" x="127.173034" xlink:href="#m84a790c575" y="228.12012"/>
     <use style="fill:#f46d43;stroke:#f46d43;" x="132.188764" xlink:href="#m84a790c575" y="228.06468"/>
     <use style="fill:#f46d43;stroke:#f46d43;" x="137.204494" xlink:href="#m84a790c575" y="222.52068"/>
     <use style="fill:#f46d43;stroke:#f46d43;" x="142.220225" xlink:href="#m84a790c575" y="180.21996"/>
     <use style="fill:#f46d43;stroke:#f46d43;" x="147.235955" xlink:href="#m84a790c575" y="180.38628"/>
     <use style="fill:#f46d43;stroke:#f46d43;" x="152.251685" xlink:href="#m84a790c575" y="180.1368"/>
     <use style="fill:#f46d43;stroke:#f46d43;" x="157.267416" xlink:href="#m84a790c575" y="189.03492"/>
     <use style="fill:#f46d43;stroke:#f46d43;" x="162.283146" xlink:href="#m84a790c575" y="264.93228"/>
     <use style="fill:#f46d43;stroke:#f46d43;" x="167.298876" xlink:href="#m84a790c575" y="264.96"/>
     <use style="fill:#f46d43;stroke:#f46d43;" x="172.314607" xlink:href="#m84a790c575" y="264.96"/>
     <use style="fill:#f46d43;stroke:#f46d43;" x="177.330337" xlink:href="#m84a790c575" y="264.96"/>
     <use style="fill:#f46d43;stroke:#f46d43;" x="182.346067" xlink:href="#m84a790c575" y="258.14088"/>
     <use style="fill:#f46d43;stroke:#f46d43;" x="187.361798" xlink:href="#m84a790c575" y="227.28852"/>
     <use style="fill:#f46d43;stroke:#f46d43;" x="192.377528" xlink:href="#m84a790c575" y="227.06676"/>
     <use style="fill:#f46d43;stroke:#f46d43;" x="197.393258" xlink:href="#m84a790c575" y="227.23308"/>
     <use style="fill:#f46d43;stroke:#f46d43;" x="202.408989" xlink:href="#m84a790c575" y="227.3994"/>
     <use style="fill:#f46d43;stroke:#f46d43;" x="207.424719" xlink:href="#m84a790c575" y="227.03904"/>
     <use style="fill:#f46d43;stroke:#f46d43;" x="212.440449" xlink:href="#m84a790c575" y="215.81244"/>
     <use style="fill:#f46d43;stroke:#f46d43;" x="217.45618" xlink:href="#m84a790c575" y="181.55052"/>
     <use style="fill:#f46d43;stroke:#f46d43;" x="222.47191" xlink:href="#m84a790c575" y="181.02384"/>
     <use style="fill:#f46d43;stroke:#f46d43;" x="227.48764" xlink:href="#m84a790c575" y="180.99612"/>
     <use style="fill:#f46d43;stroke:#f46d43;" x="232.503371" xlink:href="#m84a790c575" y="202.11876"/>
     <use style="fill:#f46d43;stroke:#f46d43;" x="237.519101" xlink:href="#m84a790c575" y="264.96"/>
     <use style="fill:#f46d43;stroke:#f46d43;" x="242.534831" xlink:href="#m84a790c575" y="264.96"/>
     <use style="fill:#f46d43;stroke:#f46d43;" x="247.550562" xlink:href="#m84a790c575" y="264.96"/>
     <use style="fill:#f46d43;stroke:#f46d43;" x="252.566292" xlink:href="#m84a790c575" y="264.96"/>
     <use style="fill:#f46d43;stroke:#f46d43;" x="257.582022" xlink:href="#m84a790c575" y="251.34948"/>
     <use style="fill:#f46d43;stroke:#f46d43;" x="262.597753" xlink:href="#m84a790c575" y="227.31624"/>
     <use style="fill:#f46d43;stroke:#f46d43;" x="267.613483" xlink:href="#m84a790c575" y="226.90044"/>
     <use style="fill:#f46d43;stroke:#f46d43;" x="272.629213" xlink:href="#m84a790c575" y="227.62116"/>
     <use style="fill:#f46d43;stroke:#f46d43;" x="277.644944" xlink:href="#m84a790c575" y="227.51028"/>
     <use style="fill:#f46d43;stroke:#f46d43;" x="282.660674" xlink:href="#m84a790c575" y="227.9538"/>
     <use style="fill:#f46d43;stroke:#f46d43;" x="287.676404" xlink:href="#m84a790c575" y="210.68424"/>
     <use style="fill:#f46d43;stroke:#f46d43;" x="292.692135" xlink:href="#m84a790c575" y="181.3842"/>
     <use style="fill:#f46d43;stroke:#f46d43;" x="297.707865" xlink:href="#m84a790c575" y="181.46736"/>
     <use style="fill:#f46d43;stroke:#f46d43;" x="302.723596" xlink:href="#m84a790c575" y="181.99404"/>
     <use style="fill:#f46d43;stroke:#f46d43;" x="307.739326" xlink:href="#m84a790c575" y="212.59692"/>
     <use style="fill:#f46d43;stroke:#f46d43;" x="312.755056" xlink:href="#m84a790c575" y="264.96"/>
     <use style="fill:#f46d43;stroke:#f46d43;" x="317.770787" xlink:href="#m84a790c575" y="264.96"/>
     <use style="fill:#f46d43;stroke:#f46d43;" x="322.786517" xlink:href="#m84a790c575" y="264.96"/>
     <use style="fill:#f46d43;stroke:#f46d43;" x="327.802247" xlink:href="#m84a790c575" y="264.96"/>
     <use style="fill:#f46d43;stroke:#f46d43;" x="332.817978" xlink:href="#m84a790c575" y="245.05704"/>
     <use style="fill:#f46d43;stroke:#f46d43;" x="337.833708" xlink:href="#m84a790c575" y="227.20536"/>
     <use style="fill:#f46d43;stroke:#f46d43;" x="342.849438" xlink:href="#m84a790c575" y="227.3994"/>
     <use style="fill:#f46d43;stroke:#f46d43;" x="347.865169" xlink:href="#m84a790c575" y="227.37168"/>
     <use style="fill:#f46d43;stroke:#f46d43;" x="352.880899" xlink:href="#m84a790c575" y="227.09448"/>
     <use style="fill:#f46d43;stroke:#f46d43;" x="357.896629" xlink:href="#m84a790c575" y="227.01132"/>
     <use style="fill:#f46d43;stroke:#f46d43;" x="362.91236" xlink:href="#m84a790c575" y="205.0848"/>
     <use style="fill:#f46d43;stroke:#f46d43;" x="367.92809" xlink:href="#m84a790c575" y="180.58032"/>
     <use style="fill:#f46d43;stroke:#f46d43;" x="372.94382" xlink:href="#m84a790c575" y="180.414"/>
     <use style="fill:#f46d43;stroke:#f46d43;" x="377.959551" xlink:href="#m84a790c575" y="180.35856"/>
     <use style="fill:#f46d43;stroke:#f46d43;" x="382.975281" xlink:href="#m84a790c575" y="220.7466"/>
     <use style="fill:#f46d43;stroke:#f46d43;" x="387.991011" xlink:href="#m84a790c575" y="264.96"/>
     <use style="fill:#f46d43;stroke:#f46d43;" x="393.006742" xlink:href="#m84a790c575" y="264.96"/>
     <use style="fill:#f46d43;stroke:#f46d43;" x="398.022472" xlink:href="#m84a790c575" y="264.96"/>
     <use style="fill:#f46d43;stroke:#f46d43;" x="403.038202" xlink:href="#m84a790c575" y="264.93228"/>
     <use style="fill:#f46d43;stroke:#f46d43;" x="408.053933" xlink:href="#m84a790c575" y="242.784"/>
     <use style="fill:#f46d43;stroke:#f46d43;" x="413.069663" xlink:href="#m84a790c575" y="227.14992"/>
     <use style="fill:#f46d43;stroke:#f46d43;" x="418.085393" xlink:href="#m84a790c575" y="227.2608"/>
     <use style="fill:#f46d43;stroke:#f46d43;" x="423.101124" xlink:href="#m84a790c575" y="227.01132"/>
     <use style="fill:#f46d43;stroke:#f46d43;" x="428.116854" xlink:href="#m84a790c575" y="226.81728"/>
     <use style="fill:#f46d43;stroke:#f46d43;" x="433.132584" xlink:href="#m84a790c575" y="226.51236"/>
     <use style="fill:#f46d43;stroke:#f46d43;" x="438.148315" xlink:href="#m84a790c575" y="196.74108"/>
     <use style="fill:#f46d43;stroke:#f46d43;" x="443.164045" xlink:href="#m84a790c575" y="180.9684"/>
     <use style="fill:#f46d43;stroke:#f46d43;" x="448.179775" xlink:href="#m84a790c575" y="180.71892"/>
     <use style="fill:#f46d43;stroke:#f46d43;" x="453.195506" xlink:href="#m84a790c575" y="180.49716"/>
     <use style="fill:#f46d43;stroke:#f46d43;" x="458.211236" xlink:href="#m84a790c575" y="234.93924"/>
     <use style="fill:#f46d43;stroke:#f46d43;" x="463.226966" xlink:href="#m84a790c575" y="264.96"/>
     <use style="fill:#f46d43;stroke:#f46d43;" x="468.242697" xlink:href="#m84a790c575" y="264.96"/>
     <use style="fill:#f46d43;stroke:#f46d43;" x="473.258427" xlink:href="#m84a790c575" y="264.93228"/>
     <use style="fill:#f46d43;stroke:#f46d43;" x="478.274157" xlink:href="#m84a790c575" y="264.96"/>
     <use style="fill:#f46d43;stroke:#f46d43;" x="483.289888" xlink:href="#m84a790c575" y="236.24208"/>
     <use style="fill:#f46d43;stroke:#f46d43;" x="488.305618" xlink:href="#m84a790c575" y="226.81728"/>
     <use style="fill:#f46d43;stroke:#f46d43;" x="493.321348" xlink:href="#m84a790c575" y="226.67868"/>
     <use style="fill:#f46d43;stroke:#f46d43;" x="498.337079" xlink:href="#m84a790c575" y="226.45692"/>
     <use style="fill:#f46d43;stroke:#f46d43;" x="503.352809" xlink:href="#m84a790c575" y="226.73412"/>
     <use style="fill:#f46d43;stroke:#f46d43;" x="508.368539" xlink:href="#m84a790c575" y="226.40148"/>
     <use style="fill:#f46d43;stroke:#f46d43;" x="513.38427" xlink:href="#m84a790c575" y="303.93432"/>
     <use style="fill:#f46d43;stroke:#f46d43;" x="518.4" xlink:href="#m84a790c575" y="320.4"/>
    </g>
   </g>
   <g id="line2d_24">
    <path clip-path="url(#p9fbf32effd)" d="M 72 227.09448 
L 77.01573 226.59552 
L 82.031461 226.9836 
L 87.047191 227.14992 
L 92.062921 227.23308 
L 97.078652 227.06676 
L 102.094382 226.845 
L 107.110112 226.95588 
L 112.125843 227.75976 
L 117.141573 228.14784 
L 122.157303 228.03696 
L 127.173034 228.14784 
L 132.188764 228.03696 
L 137.204494 222.5484 
L 142.220225 180.19224 
L 147.235955 180.414 
L 152.251685 180.1368 
L 157.267416 194.71752 
L 162.283146 320.4 
L 167.298876 320.31684 
L 172.314607 252.73548 
L 177.330337 207.55188 
L 182.346067 211.23864 
L 187.361798 227.28852 
L 192.377528 227.06676 
L 197.393258 227.2608 
L 202.408989 227.37168 
L 207.424719 227.03904 
L 212.440449 215.81244 
L 217.45618 181.55052 
L 222.47191 181.05156 
L 227.48764 180.99612 
L 232.503371 216.11736 
L 237.519101 320.4 
L 242.534831 320.4 
L 247.550562 232.61076 
L 252.566292 207.91224 
L 257.582022 215.92332 
L 262.597753 227.2608 
L 267.613483 226.90044 
L 272.629213 227.62116 
L 277.644944 227.51028 
L 282.660674 227.92608 
L 287.676404 210.68424 
L 292.692135 181.41192 
L 297.707865 181.43964 
L 302.723596 182.04948 
L 307.739326 232.5276 
L 312.755056 320.4 
L 317.770787 320.4 
L 322.786517 217.58652 
L 327.802247 208.10628 
L 332.817978 218.41812 
L 337.833708 227.23308 
L 342.849438 227.37168 
L 347.865169 227.37168 
L 352.880899 227.1222 
L 357.896629 226.9836 
L 362.91236 205.0848 
L 367.92809 180.60804 
L 372.94382 180.44172 
L 377.959551 180.30312 
L 382.975281 247.2192 
L 387.991011 320.4 
L 393.006742 320.4 
L 398.022472 209.15964 
L 403.038202 207.49644 
L 408.053933 218.69532 
L 413.069663 227.1222 
L 418.085393 227.28852 
L 423.101124 226.9836 
L 428.116854 226.81728 
L 433.132584 226.48464 
L 438.148315 196.82424 
L 443.164045 180.94068 
L 448.179775 180.71892 
L 453.195506 180.46944 
L 458.211236 270.69804 
L 463.226966 320.03964 
L 468.242697 301.43952 
L 473.258427 207.63504 
L 478.274157 208.10628 
L 483.289888 223.13052 
L 488.305618 226.76184 
L 493.321348 226.65096 
L 498.337079 226.51236 
L 503.352809 226.67868 
L 508.368539 226.4292 
L 513.38427 303.87888 
L 518.4 320.4 
" style="fill:none;stroke:#2c7bb6;stroke-dasharray:12.8,3.2,2,3.2;stroke-dashoffset:0;stroke-width:2;"/>
    <defs>
     <path d="M 3 0 
L -3 -3 
L -3 3 
z
" id="m7fd6cb78ad" style="stroke:#2c7bb6;stroke-linejoin:miter;"/>
    </defs>
    <g clip-path="url(#p9fbf32effd)">
     <use style="fill:#2c7bb6;stroke:#2c7bb6;stroke-linejoin:miter;" x="72" xlink:href="#m7fd6cb78ad" y="227.09448"/>
     <use style="fill:#2c7bb6;stroke:#2c7bb6;stroke-linejoin:miter;" x="77.01573" xlink:href="#m7fd6cb78ad" y="226.59552"/>
     <use style="fill:#2c7bb6;stroke:#2c7bb6;stroke-linejoin:miter;" x="82.031461" xlink:href="#m7fd6cb78ad" y="226.9836"/>
     <use style="fill:#2c7bb6;stroke:#2c7bb6;stroke-linejoin:miter;" x="87.047191" xlink:href="#m7fd6cb78ad" y="227.14992"/>
     <use style="fill:#2c7bb6;stroke:#2c7bb6;stroke-linejoin:miter;" x="92.062921" xlink:href="#m7fd6cb78ad" y="227.23308"/>
     <use style="fill:#2c7bb6;stroke:#2c7bb6;stroke-linejoin:miter;" x="97.078652" xlink:href="#m7fd6cb78ad" y="227.06676"/>
     <use style="fill:#2c7bb6;stroke:#2c7bb6;stroke-linejoin:miter;" x="102.094382" xlink:href="#m7fd6cb78ad" y="226.845"/>
     <use style="fill:#2c7bb6;stroke:#2c7bb6;stroke-linejoin:miter;" x="107.110112" xlink:href="#m7fd6cb78ad" y="226.95588"/>
     <use style="fill:#2c7bb6;stroke:#2c7bb6;stroke-linejoin:miter;" x="112.125843" xlink:href="#m7fd6cb78ad" y="227.75976"/>
     <use style="fill:#2c7bb6;stroke:#2c7bb6;stroke-linejoin:miter;" x="117.141573" xlink:href="#m7fd6cb78ad" y="228.14784"/>
     <use style="fill:#2c7bb6;stroke:#2c7bb6;stroke-linejoin:miter;" x="122.157303" xlink:href="#m7fd6cb78ad" y="228.03696"/>
     <use style="fill:#2c7bb6;stroke:#2c7bb6;stroke-linejoin:miter;" x="127.173034" xlink:href="#m7fd6cb78ad" y="228.14784"/>
     <use style="fill:#2c7bb6;stroke:#2c7bb6;stroke-linejoin:miter;" x="132.188764" xlink:href="#m7fd6cb78ad" y="228.03696"/>
     <use style="fill:#2c7bb6;stroke:#2c7bb6;stroke-linejoin:miter;" x="137.204494" xlink:href="#m7fd6cb78ad" y="222.5484"/>
     <use style="fill:#2c7bb6;stroke:#2c7bb6;stroke-linejoin:miter;" x="142.220225" xlink:href="#m7fd6cb78ad" y="180.19224"/>
     <use style="fill:#2c7bb6;stroke:#2c7bb6;stroke-linejoin:miter;" x="147.235955" xlink:href="#m7fd6cb78ad" y="180.414"/>
     <use style="fill:#2c7bb6;stroke:#2c7bb6;stroke-linejoin:miter;" x="152.251685" xlink:href="#m7fd6cb78ad" y="180.1368"/>
     <use style="fill:#2c7bb6;stroke:#2c7bb6;stroke-linejoin:miter;" x="157.267416" xlink:href="#m7fd6cb78ad" y="194.71752"/>
     <use style="fill:#2c7bb6;stroke:#2c7bb6;stroke-linejoin:miter;" x="162.283146" xlink:href="#m7fd6cb78ad" y="320.4"/>
     <use style="fill:#2c7bb6;stroke:#2c7bb6;stroke-linejoin:miter;" x="167.298876" xlink:href="#m7fd6cb78ad" y="320.31684"/>
     <use style="fill:#2c7bb6;stroke:#2c7bb6;stroke-linejoin:miter;" x="172.314607" xlink:href="#m7fd6cb78ad" y="252.73548"/>
     <use style="fill:#2c7bb6;stroke:#2c7bb6;stroke-linejoin:miter;" x="177.330337" xlink:href="#m7fd6cb78ad" y="207.55188"/>
     <use style="fill:#2c7bb6;stroke:#2c7bb6;stroke-linejoin:miter;" x="182.346067" xlink:href="#m7fd6cb78ad" y="211.23864"/>
     <use style="fill:#2c7bb6;stroke:#2c7bb6;stroke-linejoin:miter;" x="187.361798" xlink:href="#m7fd6cb78ad" y="227.28852"/>
     <use style="fill:#2c7bb6;stroke:#2c7bb6;stroke-linejoin:miter;" x="192.377528" xlink:href="#m7fd6cb78ad" y="227.06676"/>
     <use style="fill:#2c7bb6;stroke:#2c7bb6;stroke-linejoin:miter;" x="197.393258" xlink:href="#m7fd6cb78ad" y="227.2608"/>
     <use style="fill:#2c7bb6;stroke:#2c7bb6;stroke-linejoin:miter;" x="202.408989" xlink:href="#m7fd6cb78ad" y="227.37168"/>
     <use style="fill:#2c7bb6;stroke:#2c7bb6;stroke-linejoin:miter;" x="207.424719" xlink:href="#m7fd6cb78ad" y="227.03904"/>
     <use style="fill:#2c7bb6;stroke:#2c7bb6;stroke-linejoin:miter;" x="212.440449" xlink:href="#m7fd6cb78ad" y="215.81244"/>
     <use style="fill:#2c7bb6;stroke:#2c7bb6;stroke-linejoin:miter;" x="217.45618" xlink:href="#m7fd6cb78ad" y="181.55052"/>
     <use style="fill:#2c7bb6;stroke:#2c7bb6;stroke-linejoin:miter;" x="222.47191" xlink:href="#m7fd6cb78ad" y="181.05156"/>
     <use style="fill:#2c7bb6;stroke:#2c7bb6;stroke-linejoin:miter;" x="227.48764" xlink:href="#m7fd6cb78ad" y="180.99612"/>
     <use style="fill:#2c7bb6;stroke:#2c7bb6;stroke-linejoin:miter;" x="232.503371" xlink:href="#m7fd6cb78ad" y="216.11736"/>
     <use style="fill:#2c7bb6;stroke:#2c7bb6;stroke-linejoin:miter;" x="237.519101" xlink:href="#m7fd6cb78ad" y="320.4"/>
     <use style="fill:#2c7bb6;stroke:#2c7bb6;stroke-linejoin:miter;" x="242.534831" xlink:href="#m7fd6cb78ad" y="320.4"/>
     <use style="fill:#2c7bb6;stroke:#2c7bb6;stroke-linejoin:miter;" x="247.550562" xlink:href="#m7fd6cb78ad" y="232.61076"/>
     <use style="fill:#2c7bb6;stroke:#2c7bb6;stroke-linejoin:miter;" x="252.566292" xlink:href="#m7fd6cb78ad" y="207.91224"/>
     <use style="fill:#2c7bb6;stroke:#2c7bb6;stroke-linejoin:miter;" x="257.582022" xlink:href="#m7fd6cb78ad" y="215.92332"/>
     <use style="fill:#2c7bb6;stroke:#2c7bb6;stroke-linejoin:miter;" x="262.597753" xlink:href="#m7fd6cb78ad" y="227.2608"/>
     <use style="fill:#2c7bb6;stroke:#2c7bb6;stroke-linejoin:miter;" x="267.613483" xlink:href="#m7fd6cb78ad" y="226.90044"/>
     <use style="fill:#2c7bb6;stroke:#2c7bb6;stroke-linejoin:miter;" x="272.629213" xlink:href="#m7fd6cb78ad" y="227.62116"/>
     <use style="fill:#2c7bb6;stroke:#2c7bb6;stroke-linejoin:miter;" x="277.644944" xlink:href="#m7fd6cb78ad" y="227.51028"/>
     <use style="fill:#2c7bb6;stroke:#2c7bb6;stroke-linejoin:miter;" x="282.660674" xlink:href="#m7fd6cb78ad" y="227.92608"/>
     <use style="fill:#2c7bb6;stroke:#2c7bb6;stroke-linejoin:miter;" x="287.676404" xlink:href="#m7fd6cb78ad" y="210.68424"/>
     <use style="fill:#2c7bb6;stroke:#2c7bb6;stroke-linejoin:miter;" x="292.692135" xlink:href="#m7fd6cb78ad" y="181.41192"/>
     <use style="fill:#2c7bb6;stroke:#2c7bb6;stroke-linejoin:miter;" x="297.707865" xlink:href="#m7fd6cb78ad" y="181.43964"/>
     <use style="fill:#2c7bb6;stroke:#2c7bb6;stroke-linejoin:miter;" x="302.723596" xlink:href="#m7fd6cb78ad" y="182.04948"/>
     <use style="fill:#2c7bb6;stroke:#2c7bb6;stroke-linejoin:miter;" x="307.739326" xlink:href="#m7fd6cb78ad" y="232.5276"/>
     <use style="fill:#2c7bb6;stroke:#2c7bb6;stroke-linejoin:miter;" x="312.755056" xlink:href="#m7fd6cb78ad" y="320.4"/>
     <use style="fill:#2c7bb6;stroke:#2c7bb6;stroke-linejoin:miter;" x="317.770787" xlink:href="#m7fd6cb78ad" y="320.4"/>
     <use style="fill:#2c7bb6;stroke:#2c7bb6;stroke-linejoin:miter;" x="322.786517" xlink:href="#m7fd6cb78ad" y="217.58652"/>
     <use style="fill:#2c7bb6;stroke:#2c7bb6;stroke-linejoin:miter;" x="327.802247" xlink:href="#m7fd6cb78ad" y="208.10628"/>
     <use style="fill:#2c7bb6;stroke:#2c7bb6;stroke-linejoin:miter;" x="332.817978" xlink:href="#m7fd6cb78ad" y="218.41812"/>
     <use style="fill:#2c7bb6;stroke:#2c7bb6;stroke-linejoin:miter;" x="337.833708" xlink:href="#m7fd6cb78ad" y="227.23308"/>
     <use style="fill:#2c7bb6;stroke:#2c7bb6;stroke-linejoin:miter;" x="342.849438" xlink:href="#m7fd6cb78ad" y="227.37168"/>
     <use style="fill:#2c7bb6;stroke:#2c7bb6;stroke-linejoin:miter;" x="347.865169" xlink:href="#m7fd6cb78ad" y="227.37168"/>
     <use style="fill:#2c7bb6;stroke:#2c7bb6;stroke-linejoin:miter;" x="352.880899" xlink:href="#m7fd6cb78ad" y="227.1222"/>
     <use style="fill:#2c7bb6;stroke:#2c7bb6;stroke-linejoin:miter;" x="357.896629" xlink:href="#m7fd6cb78ad" y="226.9836"/>
     <use style="fill:#2c7bb6;stroke:#2c7bb6;stroke-linejoin:miter;" x="362.91236" xlink:href="#m7fd6cb78ad" y="205.0848"/>
     <use style="fill:#2c7bb6;stroke:#2c7bb6;stroke-linejoin:miter;" x="367.92809" xlink:href="#m7fd6cb78ad" y="180.60804"/>
     <use style="fill:#2c7bb6;stroke:#2c7bb6;stroke-linejoin:miter;" x="372.94382" xlink:href="#m7fd6cb78ad" y="180.44172"/>
     <use style="fill:#2c7bb6;stroke:#2c7bb6;stroke-linejoin:miter;" x="377.959551" xlink:href="#m7fd6cb78ad" y="180.30312"/>
     <use style="fill:#2c7bb6;stroke:#2c7bb6;stroke-linejoin:miter;" x="382.975281" xlink:href="#m7fd6cb78ad" y="247.2192"/>
     <use style="fill:#2c7bb6;stroke:#2c7bb6;stroke-linejoin:miter;" x="387.991011" xlink:href="#m7fd6cb78ad" y="320.4"/>
     <use style="fill:#2c7bb6;stroke:#2c7bb6;stroke-linejoin:miter;" x="393.006742" xlink:href="#m7fd6cb78ad" y="320.4"/>
     <use style="fill:#2c7bb6;stroke:#2c7bb6;stroke-linejoin:miter;" x="398.022472" xlink:href="#m7fd6cb78ad" y="209.15964"/>
     <use style="fill:#2c7bb6;stroke:#2c7bb6;stroke-linejoin:miter;" x="403.038202" xlink:href="#m7fd6cb78ad" y="207.49644"/>
     <use style="fill:#2c7bb6;stroke:#2c7bb6;stroke-linejoin:miter;" x="408.053933" xlink:href="#m7fd6cb78ad" y="218.69532"/>
     <use style="fill:#2c7bb6;stroke:#2c7bb6;stroke-linejoin:miter;" x="413.069663" xlink:href="#m7fd6cb78ad" y="227.1222"/>
     <use style="fill:#2c7bb6;stroke:#2c7bb6;stroke-linejoin:miter;" x="418.085393" xlink:href="#m7fd6cb78ad" y="227.28852"/>
     <use style="fill:#2c7bb6;stroke:#2c7bb6;stroke-linejoin:miter;" x="423.101124" xlink:href="#m7fd6cb78ad" y="226.9836"/>
     <use style="fill:#2c7bb6;stroke:#2c7bb6;stroke-linejoin:miter;" x="428.116854" xlink:href="#m7fd6cb78ad" y="226.81728"/>
     <use style="fill:#2c7bb6;stroke:#2c7bb6;stroke-linejoin:miter;" x="433.132584" xlink:href="#m7fd6cb78ad" y="226.48464"/>
     <use style="fill:#2c7bb6;stroke:#2c7bb6;stroke-linejoin:miter;" x="438.148315" xlink:href="#m7fd6cb78ad" y="196.82424"/>
     <use style="fill:#2c7bb6;stroke:#2c7bb6;stroke-linejoin:miter;" x="443.164045" xlink:href="#m7fd6cb78ad" y="180.94068"/>
     <use style="fill:#2c7bb6;stroke:#2c7bb6;stroke-linejoin:miter;" x="448.179775" xlink:href="#m7fd6cb78ad" y="180.71892"/>
     <use style="fill:#2c7bb6;stroke:#2c7bb6;stroke-linejoin:miter;" x="453.195506" xlink:href="#m7fd6cb78ad" y="180.46944"/>
     <use style="fill:#2c7bb6;stroke:#2c7bb6;stroke-linejoin:miter;" x="458.211236" xlink:href="#m7fd6cb78ad" y="270.69804"/>
     <use style="fill:#2c7bb6;stroke:#2c7bb6;stroke-linejoin:miter;" x="463.226966" xlink:href="#m7fd6cb78ad" y="320.03964"/>
     <use style="fill:#2c7bb6;stroke:#2c7bb6;stroke-linejoin:miter;" x="468.242697" xlink:href="#m7fd6cb78ad" y="301.43952"/>
     <use style="fill:#2c7bb6;stroke:#2c7bb6;stroke-linejoin:miter;" x="473.258427" xlink:href="#m7fd6cb78ad" y="207.63504"/>
     <use style="fill:#2c7bb6;stroke:#2c7bb6;stroke-linejoin:miter;" x="478.274157" xlink:href="#m7fd6cb78ad" y="208.10628"/>
     <use style="fill:#2c7bb6;stroke:#2c7bb6;stroke-linejoin:miter;" x="483.289888" xlink:href="#m7fd6cb78ad" y="223.13052"/>
     <use style="fill:#2c7bb6;stroke:#2c7bb6;stroke-linejoin:miter;" x="488.305618" xlink:href="#m7fd6cb78ad" y="226.76184"/>
     <use style="fill:#2c7bb6;stroke:#2c7bb6;stroke-linejoin:miter;" x="493.321348" xlink:href="#m7fd6cb78ad" y="226.65096"/>
     <use style="fill:#2c7bb6;stroke:#2c7bb6;stroke-linejoin:miter;" x="498.337079" xlink:href="#m7fd6cb78ad" y="226.51236"/>
     <use style="fill:#2c7bb6;stroke:#2c7bb6;stroke-linejoin:miter;" x="503.352809" xlink:href="#m7fd6cb78ad" y="226.67868"/>
     <use style="fill:#2c7bb6;stroke:#2c7bb6;stroke-linejoin:miter;" x="508.368539" xlink:href="#m7fd6cb78ad" y="226.4292"/>
     <use style="fill:#2c7bb6;stroke:#2c7bb6;stroke-linejoin:miter;" x="513.38427" xlink:href="#m7fd6cb78ad" y="303.87888"/>
     <use style="fill:#2c7bb6;stroke:#2c7bb6;stroke-linejoin:miter;" x="518.4" xlink:href="#m7fd6cb78ad" y="320.4"/>
    </g>
   </g>
   <g id="patch_3">
    <path d="M 72 320.4 
L 72 43.2 
" style="fill:none;stroke:#000000;stroke-linecap:square;stroke-linejoin:miter;stroke-width:0.8;"/>
   </g>
   <g id="patch_4">
    <path d="M 518.4 320.4 
L 518.4 43.2 
" style="fill:none;stroke:#000000;stroke-linecap:square;stroke-linejoin:miter;stroke-width:0.8;"/>
   </g>
   <g id="patch_5">
    <path d="M 72 320.4 
L 518.4 320.4 
" style="fill:none;stroke:#000000;stroke-linecap:square;stroke-linejoin:miter;stroke-width:0.8;"/>
   </g>
   <g id="patch_6">
    <path d="M 72 43.2 
L 518.4 43.2 
" style="fill:none;stroke:#000000;stroke-linecap:square;stroke-linejoin:miter;stroke-width:0.8;"/>
   </g>
   <g id="legend_1">
    <g id="patch_7">
     <path d="M 88.22625 78.6225 
L 502.17375 78.6225 
Q 505.37375 78.6225 505.37375 75.4225 
L 505.37375 54.4 
Q 505.37375 51.2 502.17375 51.2 
L 88.22625 51.2 
Q 85.02625 51.2 85.02625 54.4 
L 85.02625 75.4225 
Q 85.02625 78.6225 88.22625 78.6225 
z
" style="fill:#ffffff;opacity:0.8;stroke:#cccccc;stroke-linejoin:miter;"/>
    </g>
    <g id="line2d_25">
     <path d="M 91.42625 63.2 
L 123.42625 63.2 
" style="fill:none;stroke:#d73027;stroke-linecap:square;stroke-width:2;"/>
    </g>
    <g id="line2d_26">
     <g>
      <use style="fill:#d73027;stroke:#d73027;" x="107.42625" xlink:href="#m2d6f3df14a" y="63.2"/>
     </g>
    </g>
    <g id="text_18">
     <!-- B, limit=4000 -->
     <g transform="translate(136.22625 68.8)scale(0.16 -0.16)">
      <defs>
       <path d="M 2956 2163 
Q 3397 2069 3616 1863 
Q 3919 1575 3919 1159 
Q 3919 844 3719 555 
Q 3519 266 3170 133 
Q 2822 0 2106 0 
L 106 0 
L 106 116 
L 266 116 
Q 531 116 647 284 
Q 719 394 719 750 
L 719 3488 
Q 719 3881 628 3984 
Q 506 4122 266 4122 
L 106 4122 
L 106 4238 
L 1938 4238 
Q 2450 4238 2759 4163 
Q 3228 4050 3475 3764 
Q 3722 3478 3722 3106 
Q 3722 2788 3528 2536 
Q 3334 2284 2956 2163 
z
M 1319 2331 
Q 1434 2309 1582 2298 
Q 1731 2288 1909 2288 
Q 2366 2288 2595 2386 
Q 2825 2484 2947 2687 
Q 3069 2891 3069 3131 
Q 3069 3503 2766 3765 
Q 2463 4028 1881 4028 
Q 1569 4028 1319 3959 
L 1319 2331 
z
M 1319 306 
Q 1681 222 2034 222 
Q 2600 222 2897 476 
Q 3194 731 3194 1106 
Q 3194 1353 3059 1581 
Q 2925 1809 2622 1940 
Q 2319 2072 1872 2072 
Q 1678 2072 1540 2065 
Q 1403 2059 1319 2044 
L 1319 306 
z
" id="TimesNewRomanPSMT-42" transform="scale(0.015625)"/>
       <path d="M 344 -1066 
L 344 -928 
Q 666 -822 842 -598 
Q 1019 -375 1019 -125 
Q 1019 -66 991 -25 
Q 969 3 947 3 
Q 913 3 797 -59 
Q 741 -88 678 -88 
Q 525 -88 434 3 
Q 344 94 344 253 
Q 344 406 461 515 
Q 578 625 747 625 
Q 953 625 1114 445 
Q 1275 266 1275 -31 
Q 1275 -353 1051 -629 
Q 828 -906 344 -1066 
z
" id="TimesNewRomanPSMT-2c" transform="scale(0.015625)"/>
       <path d="M 1184 4444 
L 1184 647 
Q 1184 378 1223 290 
Q 1263 203 1344 158 
Q 1425 113 1647 113 
L 1647 0 
L 244 0 
L 244 113 
Q 441 113 512 153 
Q 584 194 625 287 
Q 666 381 666 647 
L 666 3247 
Q 666 3731 644 3842 
Q 622 3953 573 3993 
Q 525 4034 450 4034 
Q 369 4034 244 3984 
L 191 4094 
L 1044 4444 
L 1184 4444 
z
" id="TimesNewRomanPSMT-6c" transform="scale(0.015625)"/>
       <path d="M 1031 3803 
L 1031 2863 
L 1700 2863 
L 1700 2644 
L 1031 2644 
L 1031 788 
Q 1031 509 1111 412 
Q 1191 316 1316 316 
Q 1419 316 1516 380 
Q 1613 444 1666 569 
L 1788 569 
Q 1678 263 1478 108 
Q 1278 -47 1066 -47 
Q 922 -47 784 33 
Q 647 113 581 261 
Q 516 409 516 719 
L 516 2644 
L 63 2644 
L 63 2747 
Q 234 2816 414 2980 
Q 594 3144 734 3369 
Q 806 3488 934 3803 
L 1031 3803 
z
" id="TimesNewRomanPSMT-74" transform="scale(0.015625)"/>
       <path d="M 116 2759 
L 3488 2759 
L 3488 2503 
L 116 2503 
L 116 2759 
z
M 116 1741 
L 3488 1741 
L 3488 1484 
L 116 1484 
L 116 1741 
z
" id="TimesNewRomanPSMT-3d" transform="scale(0.015625)"/>
      </defs>
      <use xlink:href="#TimesNewRomanPSMT-42"/>
      <use x="66.699219" xlink:href="#TimesNewRomanPSMT-2c"/>
      <use x="91.699219" xlink:href="#TimesNewRomanPSMT-20"/>
      <use x="116.699219" xlink:href="#TimesNewRomanPSMT-6c"/>
      <use x="144.482422" xlink:href="#TimesNewRomanPSMT-69"/>
      <use x="172.265625" xlink:href="#TimesNewRomanPSMT-6d"/>
      <use x="250.048828" xlink:href="#TimesNewRomanPSMT-69"/>
      <use x="277.832031" xlink:href="#TimesNewRomanPSMT-74"/>
      <use x="305.615234" xlink:href="#TimesNewRomanPSMT-3d"/>
      <use x="362.011719" xlink:href="#TimesNewRomanPSMT-34"/>
      <use x="412.011719" xlink:href="#TimesNewRomanPSMT-30"/>
      <use x="462.011719" xlink:href="#TimesNewRomanPSMT-30"/>
      <use x="512.011719" xlink:href="#TimesNewRomanPSMT-30"/>
     </g>
    </g>
    <g id="line2d_27">
     <path d="M 258.14625 63.2 
L 290.14625 63.2 
" style="fill:none;stroke:#f46d43;stroke-dasharray:7.4,3.2;stroke-dashoffset:0;stroke-width:2;"/>
    </g>
    <g id="line2d_28">
     <g>
      <use style="fill:#f46d43;stroke:#f46d43;" x="274.14625" xlink:href="#m84a790c575" y="63.2"/>
     </g>
    </g>
    <g id="text_19">
     <!-- R, rserve=1000 -->
     <g transform="translate(302.94625 68.8)scale(0.16 -0.16)">
      <defs>
       <path d="M 4325 0 
L 3194 0 
L 1759 1981 
Q 1600 1975 1500 1975 
Q 1459 1975 1412 1976 
Q 1366 1978 1316 1981 
L 1316 750 
Q 1316 350 1403 253 
Q 1522 116 1759 116 
L 1925 116 
L 1925 0 
L 109 0 
L 109 116 
L 269 116 
Q 538 116 653 291 
Q 719 388 719 750 
L 719 3488 
Q 719 3888 631 3984 
Q 509 4122 269 4122 
L 109 4122 
L 109 4238 
L 1653 4238 
Q 2328 4238 2648 4139 
Q 2969 4041 3192 3777 
Q 3416 3513 3416 3147 
Q 3416 2756 3161 2468 
Q 2906 2181 2372 2063 
L 3247 847 
Q 3547 428 3762 290 
Q 3978 153 4325 116 
L 4325 0 
z
M 1316 2178 
Q 1375 2178 1419 2176 
Q 1463 2175 1491 2175 
Q 2097 2175 2405 2437 
Q 2713 2700 2713 3106 
Q 2713 3503 2464 3751 
Q 2216 4000 1806 4000 
Q 1625 4000 1316 3941 
L 1316 2178 
z
" id="TimesNewRomanPSMT-52" transform="scale(0.015625)"/>
       <path d="M 1038 2947 
L 1038 2303 
Q 1397 2947 1775 2947 
Q 1947 2947 2059 2842 
Q 2172 2738 2172 2600 
Q 2172 2478 2090 2393 
Q 2009 2309 1897 2309 
Q 1788 2309 1652 2417 
Q 1516 2525 1450 2525 
Q 1394 2525 1328 2463 
Q 1188 2334 1038 2041 
L 1038 669 
Q 1038 431 1097 309 
Q 1138 225 1241 169 
Q 1344 113 1538 113 
L 1538 0 
L 72 0 
L 72 113 
Q 291 113 397 181 
Q 475 231 506 341 
Q 522 394 522 644 
L 522 1753 
Q 522 2253 501 2348 
Q 481 2444 426 2487 
Q 372 2531 291 2531 
Q 194 2531 72 2484 
L 41 2597 
L 906 2947 
L 1038 2947 
z
" id="TimesNewRomanPSMT-72" transform="scale(0.015625)"/>
       <path d="M 53 2863 
L 1400 2863 
L 1400 2747 
L 1313 2747 
Q 1191 2747 1127 2687 
Q 1063 2628 1063 2528 
Q 1063 2419 1128 2269 
L 1794 688 
L 2463 2328 
Q 2534 2503 2534 2594 
Q 2534 2638 2509 2666 
Q 2475 2713 2422 2730 
Q 2369 2747 2206 2747 
L 2206 2863 
L 3141 2863 
L 3141 2747 
Q 2978 2734 2916 2681 
Q 2806 2588 2719 2369 
L 1703 -88 
L 1575 -88 
L 553 2328 
Q 484 2497 421 2570 
Q 359 2644 263 2694 
Q 209 2722 53 2747 
L 53 2863 
z
" id="TimesNewRomanPSMT-76" transform="scale(0.015625)"/>
      </defs>
      <use xlink:href="#TimesNewRomanPSMT-52"/>
      <use x="66.699219" xlink:href="#TimesNewRomanPSMT-2c"/>
      <use x="91.699219" xlink:href="#TimesNewRomanPSMT-20"/>
      <use x="116.699219" xlink:href="#TimesNewRomanPSMT-72"/>
      <use x="150" xlink:href="#TimesNewRomanPSMT-73"/>
      <use x="188.916016" xlink:href="#TimesNewRomanPSMT-65"/>
      <use x="233.300781" xlink:href="#TimesNewRomanPSMT-72"/>
      <use x="266.601562" xlink:href="#TimesNewRomanPSMT-76"/>
      <use x="316.601562" xlink:href="#TimesNewRomanPSMT-65"/>
      <use x="360.986328" xlink:href="#TimesNewRomanPSMT-3d"/>
      <use x="417.382812" xlink:href="#TimesNewRomanPSMT-31"/>
      <use x="467.382812" xlink:href="#TimesNewRomanPSMT-30"/>
      <use x="517.382812" xlink:href="#TimesNewRomanPSMT-30"/>
      <use x="567.382812" xlink:href="#TimesNewRomanPSMT-30"/>
     </g>
    </g>
    <g id="line2d_29">
     <path d="M 433.72875 63.2 
L 465.72875 63.2 
" style="fill:none;stroke:#2c7bb6;stroke-dasharray:12.8,3.2,2,3.2;stroke-dashoffset:0;stroke-width:2;"/>
    </g>
    <g id="line2d_30">
     <g>
      <use style="fill:#2c7bb6;stroke:#2c7bb6;stroke-linejoin:miter;" x="449.72875" xlink:href="#m7fd6cb78ad" y="63.2"/>
     </g>
    </g>
    <g id="text_20">
     <!-- BE -->
     <g transform="translate(478.52875 68.8)scale(0.16 -0.16)">
      <defs>
       <path d="M 1338 4006 
L 1338 2331 
L 2269 2331 
Q 2631 2331 2753 2441 
Q 2916 2584 2934 2947 
L 3050 2947 
L 3050 1472 
L 2934 1472 
Q 2891 1781 2847 1869 
Q 2791 1978 2662 2040 
Q 2534 2103 2269 2103 
L 1338 2103 
L 1338 706 
Q 1338 425 1363 364 
Q 1388 303 1450 267 
Q 1513 231 1688 231 
L 2406 231 
Q 2766 231 2928 281 
Q 3091 331 3241 478 
Q 3434 672 3638 1063 
L 3763 1063 
L 3397 0 
L 131 0 
L 131 116 
L 281 116 
Q 431 116 566 188 
Q 666 238 702 338 
Q 738 438 738 747 
L 738 3500 
Q 738 3903 656 3997 
Q 544 4122 281 4122 
L 131 4122 
L 131 4238 
L 3397 4238 
L 3444 3309 
L 3322 3309 
Q 3256 3644 3176 3769 
Q 3097 3894 2941 3959 
Q 2816 4006 2500 4006 
L 1338 4006 
z
" id="TimesNewRomanPSMT-45" transform="scale(0.015625)"/>
      </defs>
      <use xlink:href="#TimesNewRomanPSMT-42"/>
      <use x="66.699219" xlink:href="#TimesNewRomanPSMT-45"/>
     </g>
    </g>
   </g>
  </g>
 </g>
 <defs>
  <clipPath id="p9fbf32effd">
   <rect height="277.2" width="446.4" x="72" y="43.2"/>
  </clipPath>
 </defs>
</svg>
