<?xml version="1.0" encoding="utf-8" standalone="no"?>
<!DOCTYPE svg PUBLIC "-//W3C//DTD SVG 1.1//EN"
  "http://www.w3.org/Graphics/SVG/1.1/DTD/svg11.dtd">
<svg height="360pt" version="1.1" viewBox="0 0 576 360" width="576pt" xmlns="http://www.w3.org/2000/svg" xmlns:xlink="http://www.w3.org/1999/xlink">
 <metadata>
  <rdf:RDF xmlns:cc="http://creativecommons.org/ns#" xmlns:dc="http://purl.org/dc/elements/1.1/" xmlns:rdf="http://www.w3.org/1999/02/22-rdf-syntax-ns#">
   <cc:Work>
    <dc:type rdf:resource="http://purl.org/dc/dcmitype/StillImage"/>
    <dc:date>2021-04-23T17:18:37.075398</dc:date>
    <dc:format>image/svg+xml</dc:format>
    <dc:creator>
     <cc:Agent>
      <dc:title>Matplotlib v3.4.1, https://matplotlib.org/</dc:title>
     </cc:Agent>
    </dc:creator>
   </cc:Work>
  </rdf:RDF>
 </metadata>
 <defs>
  <style type="text/css">*{stroke-linecap:butt;stroke-linejoin:round;}</style>
 </defs>
 <g id="figure_1">
  <g id="patch_1">
   <path d="M 0 360 
L 576 360 
L 576 0 
L 0 0 
z
" style="fill:#ffffff;"/>
  </g>
  <g id="axes_1">
   <g id="patch_2">
    <path d="M 72 320.4 
L 518.4 320.4 
L 518.4 43.2 
L 72 43.2 
z
" style="fill:#ffffff;"/>
   </g>
   <g id="matplotlib.axis_1">
    <g id="xtick_1">
     <g id="line2d_1">
      <defs>
       <path d="M 0 0 
L 0 3.5 
" id="m653a960435" style="stroke:#000000;stroke-width:0.8;"/>
      </defs>
      <g>
       <use style="stroke:#000000;stroke-width:0.8;" x="72" xlink:href="#m653a960435" y="320.4"/>
      </g>
     </g>
     <g id="text_1">
      <!-- 0 -->
      <g transform="translate(68 338.51)scale(0.16 -0.16)">
       <defs>
        <path d="M 231 2094 
Q 231 2819 450 3342 
Q 669 3866 1031 4122 
Q 1313 4325 1613 4325 
Q 2100 4325 2488 3828 
Q 2972 3213 2972 2159 
Q 2972 1422 2759 906 
Q 2547 391 2217 158 
Q 1888 -75 1581 -75 
Q 975 -75 572 641 
Q 231 1244 231 2094 
z
M 844 2016 
Q 844 1141 1059 588 
Q 1238 122 1591 122 
Q 1759 122 1940 273 
Q 2122 425 2216 781 
Q 2359 1319 2359 2297 
Q 2359 3022 2209 3506 
Q 2097 3866 1919 4016 
Q 1791 4119 1609 4119 
Q 1397 4119 1231 3928 
Q 1006 3669 925 3112 
Q 844 2556 844 2016 
z
" id="TimesNewRomanPSMT-30" transform="scale(0.015625)"/>
       </defs>
       <use xlink:href="#TimesNewRomanPSMT-30"/>
      </g>
     </g>
    </g>
    <g id="xtick_2">
     <g id="line2d_2">
      <g>
       <use style="stroke:#000000;stroke-width:0.8;" x="134" xlink:href="#m653a960435" y="320.4"/>
      </g>
     </g>
     <g id="text_2">
      <!-- 10 -->
      <g transform="translate(126 338.51)scale(0.16 -0.16)">
       <defs>
        <path d="M 750 3822 
L 1781 4325 
L 1884 4325 
L 1884 747 
Q 1884 391 1914 303 
Q 1944 216 2037 169 
Q 2131 122 2419 116 
L 2419 0 
L 825 0 
L 825 116 
Q 1125 122 1212 167 
Q 1300 213 1334 289 
Q 1369 366 1369 747 
L 1369 3034 
Q 1369 3497 1338 3628 
Q 1316 3728 1258 3775 
Q 1200 3822 1119 3822 
Q 1003 3822 797 3725 
L 750 3822 
z
" id="TimesNewRomanPSMT-31" transform="scale(0.015625)"/>
       </defs>
       <use xlink:href="#TimesNewRomanPSMT-31"/>
       <use x="50" xlink:href="#TimesNewRomanPSMT-30"/>
      </g>
     </g>
    </g>
    <g id="xtick_3">
     <g id="line2d_3">
      <g>
       <use style="stroke:#000000;stroke-width:0.8;" x="196" xlink:href="#m653a960435" y="320.4"/>
      </g>
     </g>
     <g id="text_3">
      <!-- 20 -->
      <g transform="translate(188 338.51)scale(0.16 -0.16)">
       <defs>
        <path d="M 2934 816 
L 2638 0 
L 138 0 
L 138 116 
Q 1241 1122 1691 1759 
Q 2141 2397 2141 2925 
Q 2141 3328 1894 3587 
Q 1647 3847 1303 3847 
Q 991 3847 742 3664 
Q 494 3481 375 3128 
L 259 3128 
Q 338 3706 661 4015 
Q 984 4325 1469 4325 
Q 1984 4325 2329 3994 
Q 2675 3663 2675 3213 
Q 2675 2891 2525 2569 
Q 2294 2063 1775 1497 
Q 997 647 803 472 
L 1909 472 
Q 2247 472 2383 497 
Q 2519 522 2628 598 
Q 2738 675 2819 816 
L 2934 816 
z
" id="TimesNewRomanPSMT-32" transform="scale(0.015625)"/>
       </defs>
       <use xlink:href="#TimesNewRomanPSMT-32"/>
       <use x="50" xlink:href="#TimesNewRomanPSMT-30"/>
      </g>
     </g>
    </g>
    <g id="xtick_4">
     <g id="line2d_4">
      <g>
       <use style="stroke:#000000;stroke-width:0.8;" x="258" xlink:href="#m653a960435" y="320.4"/>
      </g>
     </g>
     <g id="text_4">
      <!-- 30 -->
      <g transform="translate(250 338.51)scale(0.16 -0.16)">
       <defs>
        <path d="M 325 3431 
Q 506 3859 782 4092 
Q 1059 4325 1472 4325 
Q 1981 4325 2253 3994 
Q 2459 3747 2459 3466 
Q 2459 3003 1878 2509 
Q 2269 2356 2469 2072 
Q 2669 1788 2669 1403 
Q 2669 853 2319 450 
Q 1863 -75 997 -75 
Q 569 -75 414 31 
Q 259 138 259 259 
Q 259 350 332 419 
Q 406 488 509 488 
Q 588 488 669 463 
Q 722 447 909 348 
Q 1097 250 1169 231 
Q 1284 197 1416 197 
Q 1734 197 1970 444 
Q 2206 691 2206 1028 
Q 2206 1275 2097 1509 
Q 2016 1684 1919 1775 
Q 1784 1900 1550 2001 
Q 1316 2103 1072 2103 
L 972 2103 
L 972 2197 
Q 1219 2228 1467 2375 
Q 1716 2522 1828 2728 
Q 1941 2934 1941 3181 
Q 1941 3503 1739 3701 
Q 1538 3900 1238 3900 
Q 753 3900 428 3381 
L 325 3431 
z
" id="TimesNewRomanPSMT-33" transform="scale(0.015625)"/>
       </defs>
       <use xlink:href="#TimesNewRomanPSMT-33"/>
       <use x="50" xlink:href="#TimesNewRomanPSMT-30"/>
      </g>
     </g>
    </g>
    <g id="xtick_5">
     <g id="line2d_5">
      <g>
       <use style="stroke:#000000;stroke-width:0.8;" x="320" xlink:href="#m653a960435" y="320.4"/>
      </g>
     </g>
     <g id="text_5">
      <!-- 40 -->
      <g transform="translate(312 338.51)scale(0.16 -0.16)">
       <defs>
        <path d="M 2978 1563 
L 2978 1119 
L 2409 1119 
L 2409 0 
L 1894 0 
L 1894 1119 
L 100 1119 
L 100 1519 
L 2066 4325 
L 2409 4325 
L 2409 1563 
L 2978 1563 
z
M 1894 1563 
L 1894 3666 
L 406 1563 
L 1894 1563 
z
" id="TimesNewRomanPSMT-34" transform="scale(0.015625)"/>
       </defs>
       <use xlink:href="#TimesNewRomanPSMT-34"/>
       <use x="50" xlink:href="#TimesNewRomanPSMT-30"/>
      </g>
     </g>
    </g>
    <g id="xtick_6">
     <g id="line2d_6">
      <g>
       <use style="stroke:#000000;stroke-width:0.8;" x="382" xlink:href="#m653a960435" y="320.4"/>
      </g>
     </g>
     <g id="text_6">
      <!-- 50 -->
      <g transform="translate(374 338.51)scale(0.16 -0.16)">
       <defs>
        <path d="M 2778 4238 
L 2534 3706 
L 1259 3706 
L 981 3138 
Q 1809 3016 2294 2522 
Q 2709 2097 2709 1522 
Q 2709 1188 2573 903 
Q 2438 619 2231 419 
Q 2025 219 1772 97 
Q 1413 -75 1034 -75 
Q 653 -75 479 54 
Q 306 184 306 341 
Q 306 428 378 495 
Q 450 563 559 563 
Q 641 563 702 538 
Q 763 513 909 409 
Q 1144 247 1384 247 
Q 1750 247 2026 523 
Q 2303 800 2303 1197 
Q 2303 1581 2056 1914 
Q 1809 2247 1375 2428 
Q 1034 2569 447 2591 
L 1259 4238 
L 2778 4238 
z
" id="TimesNewRomanPSMT-35" transform="scale(0.015625)"/>
       </defs>
       <use xlink:href="#TimesNewRomanPSMT-35"/>
       <use x="50" xlink:href="#TimesNewRomanPSMT-30"/>
      </g>
     </g>
    </g>
    <g id="xtick_7">
     <g id="line2d_7">
      <g>
       <use style="stroke:#000000;stroke-width:0.8;" x="444" xlink:href="#m653a960435" y="320.4"/>
      </g>
     </g>
     <g id="text_7">
      <!-- 60 -->
      <g transform="translate(436 338.51)scale(0.16 -0.16)">
       <defs>
        <path d="M 2869 4325 
L 2869 4209 
Q 2456 4169 2195 4045 
Q 1934 3922 1679 3669 
Q 1425 3416 1258 3105 
Q 1091 2794 978 2366 
Q 1428 2675 1881 2675 
Q 2316 2675 2634 2325 
Q 2953 1975 2953 1425 
Q 2953 894 2631 456 
Q 2244 -75 1606 -75 
Q 1172 -75 869 213 
Q 275 772 275 1663 
Q 275 2231 503 2743 
Q 731 3256 1154 3653 
Q 1578 4050 1965 4187 
Q 2353 4325 2688 4325 
L 2869 4325 
z
M 925 2138 
Q 869 1716 869 1456 
Q 869 1156 980 804 
Q 1091 453 1309 247 
Q 1469 100 1697 100 
Q 1969 100 2183 356 
Q 2397 613 2397 1088 
Q 2397 1622 2184 2012 
Q 1972 2403 1581 2403 
Q 1463 2403 1327 2353 
Q 1191 2303 925 2138 
z
" id="TimesNewRomanPSMT-36" transform="scale(0.015625)"/>
       </defs>
       <use xlink:href="#TimesNewRomanPSMT-36"/>
       <use x="50" xlink:href="#TimesNewRomanPSMT-30"/>
      </g>
     </g>
    </g>
    <g id="xtick_8">
     <g id="line2d_8">
      <g>
       <use style="stroke:#000000;stroke-width:0.8;" x="506" xlink:href="#m653a960435" y="320.4"/>
      </g>
     </g>
     <g id="text_8">
      <!-- 70 -->
      <g transform="translate(498 338.51)scale(0.16 -0.16)">
       <defs>
        <path d="M 644 4238 
L 2916 4238 
L 2916 4119 
L 1503 -88 
L 1153 -88 
L 2419 3728 
L 1253 3728 
Q 900 3728 750 3644 
Q 488 3500 328 3200 
L 238 3234 
L 644 4238 
z
" id="TimesNewRomanPSMT-37" transform="scale(0.015625)"/>
       </defs>
       <use xlink:href="#TimesNewRomanPSMT-37"/>
       <use x="50" xlink:href="#TimesNewRomanPSMT-30"/>
      </g>
     </g>
    </g>
    <g id="text_9">
     <!-- Time (sec) -->
     <g transform="translate(261.05375 357.0425)scale(0.16 -0.16)">
      <defs>
       <path d="M 3703 4238 
L 3750 3244 
L 3631 3244 
Q 3597 3506 3538 3619 
Q 3441 3800 3280 3886 
Q 3119 3972 2856 3972 
L 2259 3972 
L 2259 734 
Q 2259 344 2344 247 
Q 2463 116 2709 116 
L 2856 116 
L 2856 0 
L 1059 0 
L 1059 116 
L 1209 116 
Q 1478 116 1591 278 
Q 1659 378 1659 734 
L 1659 3972 
L 1150 3972 
Q 853 3972 728 3928 
Q 566 3869 450 3700 
Q 334 3531 313 3244 
L 194 3244 
L 244 4238 
L 3703 4238 
z
" id="TimesNewRomanPSMT-54" transform="scale(0.015625)"/>
       <path d="M 928 4444 
Q 1059 4444 1151 4351 
Q 1244 4259 1244 4128 
Q 1244 3997 1151 3903 
Q 1059 3809 928 3809 
Q 797 3809 703 3903 
Q 609 3997 609 4128 
Q 609 4259 701 4351 
Q 794 4444 928 4444 
z
M 1188 2947 
L 1188 647 
Q 1188 378 1227 289 
Q 1266 200 1342 156 
Q 1419 113 1622 113 
L 1622 0 
L 231 0 
L 231 113 
Q 441 113 512 153 
Q 584 194 626 287 
Q 669 381 669 647 
L 669 1750 
Q 669 2216 641 2353 
Q 619 2453 572 2492 
Q 525 2531 444 2531 
Q 356 2531 231 2484 
L 188 2597 
L 1050 2947 
L 1188 2947 
z
" id="TimesNewRomanPSMT-69" transform="scale(0.015625)"/>
       <path d="M 1050 2338 
Q 1363 2650 1419 2697 
Q 1559 2816 1721 2881 
Q 1884 2947 2044 2947 
Q 2313 2947 2506 2790 
Q 2700 2634 2766 2338 
Q 3088 2713 3309 2830 
Q 3531 2947 3766 2947 
Q 3994 2947 4170 2830 
Q 4347 2713 4450 2447 
Q 4519 2266 4519 1878 
L 4519 647 
Q 4519 378 4559 278 
Q 4591 209 4675 161 
Q 4759 113 4950 113 
L 4950 0 
L 3538 0 
L 3538 113 
L 3597 113 
Q 3781 113 3884 184 
Q 3956 234 3988 344 
Q 4000 397 4000 647 
L 4000 1878 
Q 4000 2228 3916 2372 
Q 3794 2572 3525 2572 
Q 3359 2572 3192 2489 
Q 3025 2406 2788 2181 
L 2781 2147 
L 2788 2013 
L 2788 647 
Q 2788 353 2820 281 
Q 2853 209 2943 161 
Q 3034 113 3253 113 
L 3253 0 
L 1806 0 
L 1806 113 
Q 2044 113 2133 169 
Q 2222 225 2256 338 
Q 2272 391 2272 647 
L 2272 1878 
Q 2272 2228 2169 2381 
Q 2031 2581 1784 2581 
Q 1616 2581 1450 2491 
Q 1191 2353 1050 2181 
L 1050 647 
Q 1050 366 1089 281 
Q 1128 197 1204 155 
Q 1281 113 1516 113 
L 1516 0 
L 100 0 
L 100 113 
Q 297 113 375 155 
Q 453 197 493 289 
Q 534 381 534 647 
L 534 1741 
Q 534 2213 506 2350 
Q 484 2453 437 2492 
Q 391 2531 309 2531 
Q 222 2531 100 2484 
L 53 2597 
L 916 2947 
L 1050 2947 
L 1050 2338 
z
" id="TimesNewRomanPSMT-6d" transform="scale(0.015625)"/>
       <path d="M 681 1784 
Q 678 1147 991 784 
Q 1303 422 1725 422 
Q 2006 422 2214 576 
Q 2422 731 2563 1106 
L 2659 1044 
Q 2594 616 2278 264 
Q 1963 -88 1488 -88 
Q 972 -88 605 314 
Q 238 716 238 1394 
Q 238 2128 614 2539 
Q 991 2950 1559 2950 
Q 2041 2950 2350 2633 
Q 2659 2316 2659 1784 
L 681 1784 
z
M 681 1966 
L 2006 1966 
Q 1991 2241 1941 2353 
Q 1863 2528 1708 2628 
Q 1553 2728 1384 2728 
Q 1125 2728 920 2526 
Q 716 2325 681 1966 
z
" id="TimesNewRomanPSMT-65" transform="scale(0.015625)"/>
       <path id="TimesNewRomanPSMT-20" transform="scale(0.015625)"/>
       <path d="M 1988 -1253 
L 1988 -1369 
Q 1516 -1131 1200 -813 
Q 750 -359 506 256 
Q 263 872 263 1534 
Q 263 2503 741 3301 
Q 1219 4100 1988 4444 
L 1988 4313 
Q 1603 4100 1356 3731 
Q 1109 3363 987 2797 
Q 866 2231 866 1616 
Q 866 947 969 400 
Q 1050 -31 1165 -292 
Q 1281 -553 1476 -793 
Q 1672 -1034 1988 -1253 
z
" id="TimesNewRomanPSMT-28" transform="scale(0.015625)"/>
       <path d="M 2050 2947 
L 2050 1972 
L 1947 1972 
Q 1828 2431 1642 2597 
Q 1456 2763 1169 2763 
Q 950 2763 815 2647 
Q 681 2531 681 2391 
Q 681 2216 781 2091 
Q 878 1963 1175 1819 
L 1631 1597 
Q 2266 1288 2266 781 
Q 2266 391 1970 151 
Q 1675 -88 1309 -88 
Q 1047 -88 709 6 
Q 606 38 541 38 
Q 469 38 428 -44 
L 325 -44 
L 325 978 
L 428 978 
Q 516 541 762 319 
Q 1009 97 1316 97 
Q 1531 97 1667 223 
Q 1803 350 1803 528 
Q 1803 744 1651 891 
Q 1500 1038 1047 1263 
Q 594 1488 453 1669 
Q 313 1847 313 2119 
Q 313 2472 555 2709 
Q 797 2947 1181 2947 
Q 1350 2947 1591 2875 
Q 1750 2828 1803 2828 
Q 1853 2828 1881 2850 
Q 1909 2872 1947 2947 
L 2050 2947 
z
" id="TimesNewRomanPSMT-73" transform="scale(0.015625)"/>
       <path d="M 2631 1088 
Q 2516 522 2178 217 
Q 1841 -88 1431 -88 
Q 944 -88 581 321 
Q 219 731 219 1428 
Q 219 2103 620 2525 
Q 1022 2947 1584 2947 
Q 2006 2947 2278 2723 
Q 2550 2500 2550 2259 
Q 2550 2141 2473 2067 
Q 2397 1994 2259 1994 
Q 2075 1994 1981 2113 
Q 1928 2178 1911 2362 
Q 1894 2547 1784 2644 
Q 1675 2738 1481 2738 
Q 1169 2738 978 2506 
Q 725 2200 725 1697 
Q 725 1184 976 792 
Q 1228 400 1656 400 
Q 1963 400 2206 609 
Q 2378 753 2541 1131 
L 2631 1088 
z
" id="TimesNewRomanPSMT-63" transform="scale(0.015625)"/>
       <path d="M 144 4313 
L 144 4444 
Q 619 4209 934 3891 
Q 1381 3434 1625 2820 
Q 1869 2206 1869 1541 
Q 1869 572 1392 -226 
Q 916 -1025 144 -1369 
L 144 -1253 
Q 528 -1038 776 -670 
Q 1025 -303 1145 264 
Q 1266 831 1266 1447 
Q 1266 2113 1163 2663 
Q 1084 3094 967 3353 
Q 850 3613 656 3853 
Q 463 4094 144 4313 
z
" id="TimesNewRomanPSMT-29" transform="scale(0.015625)"/>
      </defs>
      <use xlink:href="#TimesNewRomanPSMT-54"/>
      <use x="57.583984" xlink:href="#TimesNewRomanPSMT-69"/>
      <use x="85.367188" xlink:href="#TimesNewRomanPSMT-6d"/>
      <use x="163.150391" xlink:href="#TimesNewRomanPSMT-65"/>
      <use x="207.535156" xlink:href="#TimesNewRomanPSMT-20"/>
      <use x="232.535156" xlink:href="#TimesNewRomanPSMT-28"/>
      <use x="265.835938" xlink:href="#TimesNewRomanPSMT-73"/>
      <use x="304.751953" xlink:href="#TimesNewRomanPSMT-65"/>
      <use x="349.136719" xlink:href="#TimesNewRomanPSMT-63"/>
      <use x="393.521484" xlink:href="#TimesNewRomanPSMT-29"/>
     </g>
    </g>
   </g>
   <g id="matplotlib.axis_2">
    <g id="ytick_1">
     <g id="line2d_9">
      <path clip-path="url(#pd7d35028ac)" d="M 72 320.4 
L 518.4 320.4 
" style="fill:none;stroke:#b2b2b2;stroke-dasharray:0.8,1.32;stroke-dashoffset:0;stroke-width:0.8;"/>
     </g>
     <g id="line2d_10">
      <defs>
       <path d="M 0 0 
L -3.5 0 
" id="m5fc53275e9" style="stroke:#000000;stroke-width:0.8;"/>
      </defs>
      <g>
       <use style="stroke:#000000;stroke-width:0.8;" x="72" xlink:href="#m5fc53275e9" y="320.4"/>
      </g>
     </g>
     <g id="text_10">
      <!-- 0 -->
      <g transform="translate(57 325.955)scale(0.16 -0.16)">
       <use xlink:href="#TimesNewRomanPSMT-30"/>
      </g>
     </g>
    </g>
    <g id="ytick_2">
     <g id="line2d_11">
      <path clip-path="url(#pd7d35028ac)" d="M 72 274.2 
L 518.4 274.2 
" style="fill:none;stroke:#b2b2b2;stroke-dasharray:0.8,1.32;stroke-dashoffset:0;stroke-width:0.8;"/>
     </g>
     <g id="line2d_12">
      <g>
       <use style="stroke:#000000;stroke-width:0.8;" x="72" xlink:href="#m5fc53275e9" y="274.2"/>
      </g>
     </g>
     <g id="text_11">
      <!-- 500 -->
      <g transform="translate(41 279.755)scale(0.16 -0.16)">
       <use xlink:href="#TimesNewRomanPSMT-35"/>
       <use x="50" xlink:href="#TimesNewRomanPSMT-30"/>
       <use x="100" xlink:href="#TimesNewRomanPSMT-30"/>
      </g>
     </g>
    </g>
    <g id="ytick_3">
     <g id="line2d_13">
      <path clip-path="url(#pd7d35028ac)" d="M 72 228 
L 518.4 228 
" style="fill:none;stroke:#b2b2b2;stroke-dasharray:0.8,1.32;stroke-dashoffset:0;stroke-width:0.8;"/>
     </g>
     <g id="line2d_14">
      <g>
       <use style="stroke:#000000;stroke-width:0.8;" x="72" xlink:href="#m5fc53275e9" y="228"/>
      </g>
     </g>
     <g id="text_12">
      <!-- 1000 -->
      <g transform="translate(33 233.555)scale(0.16 -0.16)">
       <use xlink:href="#TimesNewRomanPSMT-31"/>
       <use x="50" xlink:href="#TimesNewRomanPSMT-30"/>
       <use x="100" xlink:href="#TimesNewRomanPSMT-30"/>
       <use x="150" xlink:href="#TimesNewRomanPSMT-30"/>
      </g>
     </g>
    </g>
    <g id="ytick_4">
     <g id="line2d_15">
      <path clip-path="url(#pd7d35028ac)" d="M 72 181.8 
L 518.4 181.8 
" style="fill:none;stroke:#b2b2b2;stroke-dasharray:0.8,1.32;stroke-dashoffset:0;stroke-width:0.8;"/>
     </g>
     <g id="line2d_16">
      <g>
       <use style="stroke:#000000;stroke-width:0.8;" x="72" xlink:href="#m5fc53275e9" y="181.8"/>
      </g>
     </g>
     <g id="text_13">
      <!-- 1500 -->
      <g transform="translate(33 187.355)scale(0.16 -0.16)">
       <use xlink:href="#TimesNewRomanPSMT-31"/>
       <use x="50" xlink:href="#TimesNewRomanPSMT-35"/>
       <use x="100" xlink:href="#TimesNewRomanPSMT-30"/>
       <use x="150" xlink:href="#TimesNewRomanPSMT-30"/>
      </g>
     </g>
    </g>
    <g id="ytick_5">
     <g id="line2d_17">
      <path clip-path="url(#pd7d35028ac)" d="M 72 135.6 
L 518.4 135.6 
" style="fill:none;stroke:#b2b2b2;stroke-dasharray:0.8,1.32;stroke-dashoffset:0;stroke-width:0.8;"/>
     </g>
     <g id="line2d_18">
      <g>
       <use style="stroke:#000000;stroke-width:0.8;" x="72" xlink:href="#m5fc53275e9" y="135.6"/>
      </g>
     </g>
     <g id="text_14">
      <!-- 2000 -->
      <g transform="translate(33 141.155)scale(0.16 -0.16)">
       <use xlink:href="#TimesNewRomanPSMT-32"/>
       <use x="50" xlink:href="#TimesNewRomanPSMT-30"/>
       <use x="100" xlink:href="#TimesNewRomanPSMT-30"/>
       <use x="150" xlink:href="#TimesNewRomanPSMT-30"/>
      </g>
     </g>
    </g>
    <g id="ytick_6">
     <g id="line2d_19">
      <path clip-path="url(#pd7d35028ac)" d="M 72 89.4 
L 518.4 89.4 
" style="fill:none;stroke:#b2b2b2;stroke-dasharray:0.8,1.32;stroke-dashoffset:0;stroke-width:0.8;"/>
     </g>
     <g id="line2d_20">
      <g>
       <use style="stroke:#000000;stroke-width:0.8;" x="72" xlink:href="#m5fc53275e9" y="89.4"/>
      </g>
     </g>
     <g id="text_15">
      <!-- 2500 -->
      <g transform="translate(33 94.955)scale(0.16 -0.16)">
       <use xlink:href="#TimesNewRomanPSMT-32"/>
       <use x="50" xlink:href="#TimesNewRomanPSMT-35"/>
       <use x="100" xlink:href="#TimesNewRomanPSMT-30"/>
       <use x="150" xlink:href="#TimesNewRomanPSMT-30"/>
      </g>
     </g>
    </g>
    <g id="ytick_7">
     <g id="line2d_21">
      <path clip-path="url(#pd7d35028ac)" d="M 72 43.2 
L 518.4 43.2 
" style="fill:none;stroke:#b2b2b2;stroke-dasharray:0.8,1.32;stroke-dashoffset:0;stroke-width:0.8;"/>
     </g>
     <g id="line2d_22">
      <g>
       <use style="stroke:#000000;stroke-width:0.8;" x="72" xlink:href="#m5fc53275e9" y="43.2"/>
      </g>
     </g>
     <g id="text_16">
      <!-- 3000 -->
      <g transform="translate(33 48.755)scale(0.16 -0.16)">
       <use xlink:href="#TimesNewRomanPSMT-33"/>
       <use x="50" xlink:href="#TimesNewRomanPSMT-30"/>
       <use x="100" xlink:href="#TimesNewRomanPSMT-30"/>
       <use x="150" xlink:href="#TimesNewRomanPSMT-30"/>
      </g>
     </g>
    </g>
    <g id="text_17">
     <!-- IOPS -->
     <g transform="translate(25.5775 199.13875)rotate(-90)scale(0.16 -0.16)">
      <defs>
       <path d="M 1975 116 
L 1975 0 
L 159 0 
L 159 116 
L 309 116 
Q 572 116 691 269 
Q 766 369 766 750 
L 766 3488 
Q 766 3809 725 3913 
Q 694 3991 597 4047 
Q 459 4122 309 4122 
L 159 4122 
L 159 4238 
L 1975 4238 
L 1975 4122 
L 1822 4122 
Q 1563 4122 1444 3969 
Q 1366 3869 1366 3488 
L 1366 750 
Q 1366 428 1406 325 
Q 1438 247 1538 191 
Q 1672 116 1822 116 
L 1975 116 
z
" id="TimesNewRomanPSMT-49" transform="scale(0.015625)"/>
       <path d="M 2341 4334 
Q 3166 4334 3770 3707 
Q 4375 3081 4375 2144 
Q 4375 1178 3765 540 
Q 3156 -97 2291 -97 
Q 1416 -97 820 525 
Q 225 1147 225 2134 
Q 225 3144 913 3781 
Q 1509 4334 2341 4334 
z
M 2281 4106 
Q 1713 4106 1369 3684 
Q 941 3159 941 2147 
Q 941 1109 1384 550 
Q 1725 125 2284 125 
Q 2881 125 3270 590 
Q 3659 1056 3659 2059 
Q 3659 3147 3231 3681 
Q 2888 4106 2281 4106 
z
" id="TimesNewRomanPSMT-4f" transform="scale(0.015625)"/>
       <path d="M 1313 1984 
L 1313 750 
Q 1313 350 1400 253 
Q 1519 116 1759 116 
L 1922 116 
L 1922 0 
L 106 0 
L 106 116 
L 266 116 
Q 534 116 650 291 
Q 713 388 713 750 
L 713 3488 
Q 713 3888 628 3984 
Q 506 4122 266 4122 
L 106 4122 
L 106 4238 
L 1659 4238 
Q 2228 4238 2556 4120 
Q 2884 4003 3109 3725 
Q 3334 3447 3334 3066 
Q 3334 2547 2992 2222 
Q 2650 1897 2025 1897 
Q 1872 1897 1694 1919 
Q 1516 1941 1313 1984 
z
M 1313 2163 
Q 1478 2131 1606 2115 
Q 1734 2100 1825 2100 
Q 2150 2100 2386 2351 
Q 2622 2603 2622 3003 
Q 2622 3278 2509 3514 
Q 2397 3750 2190 3867 
Q 1984 3984 1722 3984 
Q 1563 3984 1313 3925 
L 1313 2163 
z
" id="TimesNewRomanPSMT-50" transform="scale(0.015625)"/>
       <path d="M 2934 4334 
L 2934 2869 
L 2819 2869 
Q 2763 3291 2617 3541 
Q 2472 3791 2203 3937 
Q 1934 4084 1647 4084 
Q 1322 4084 1109 3886 
Q 897 3688 897 3434 
Q 897 3241 1031 3081 
Q 1225 2847 1953 2456 
Q 2547 2138 2764 1967 
Q 2981 1797 3098 1565 
Q 3216 1334 3216 1081 
Q 3216 600 2842 251 
Q 2469 -97 1881 -97 
Q 1697 -97 1534 -69 
Q 1438 -53 1133 45 
Q 828 144 747 144 
Q 669 144 623 97 
Q 578 50 556 -97 
L 441 -97 
L 441 1356 
L 556 1356 
Q 638 900 775 673 
Q 913 447 1195 297 
Q 1478 147 1816 147 
Q 2206 147 2432 353 
Q 2659 559 2659 841 
Q 2659 997 2573 1156 
Q 2488 1316 2306 1453 
Q 2184 1547 1640 1851 
Q 1097 2156 867 2337 
Q 638 2519 519 2737 
Q 400 2956 400 3219 
Q 400 3675 750 4004 
Q 1100 4334 1641 4334 
Q 1978 4334 2356 4169 
Q 2531 4091 2603 4091 
Q 2684 4091 2736 4139 
Q 2788 4188 2819 4334 
L 2934 4334 
z
" id="TimesNewRomanPSMT-53" transform="scale(0.015625)"/>
      </defs>
      <use xlink:href="#TimesNewRomanPSMT-49"/>
      <use x="33.300781" xlink:href="#TimesNewRomanPSMT-4f"/>
      <use x="105.517578" xlink:href="#TimesNewRomanPSMT-50"/>
      <use x="161.132812" xlink:href="#TimesNewRomanPSMT-53"/>
     </g>
    </g>
   </g>
   <g id="line2d_23">
    <path clip-path="url(#pd7d35028ac)" d="M 72 148.2588 
L 78.2 148.1664 
L 84.4 148.3512 
L 90.6 147.9354 
L 96.8 257.4756 
L 103 320.4 
L 109.2 320.4 
L 115.4 320.4 
L 121.6 210.5364 
L 127.8 147.5658 
L 134 147.6582 
L 140.2 147.612 
L 146.4 147.612 
L 152.6 197.4156 
L 158.8 320.4 
L 165 320.4 
L 171.2 320.4 
L 177.4 270.4578 
L 183.6 147.612 
L 189.8 147.612 
L 196 147.612 
L 202.2 147.6582 
L 208.4 147.5658 
L 214.6 310.2822 
L 220.8 320.4 
L 227 320.4 
L 233.2 320.4 
L 239.4 157.6374 
L 245.6 147.612 
L 251.8 147.6582 
L 258 147.5658 
L 264.2 147.612 
L 270.4 250.3146 
L 276.6 320.4 
L 282.8 320.4 
L 289 320.4 
L 295.2 217.605 
L 301.4 147.612 
L 307.6 147.612 
L 313.8 147.612 
L 320 147.612 
L 326.2 190.347 
L 332.4 320.4 
L 338.6 320.4 
L 344.8 320.4 
L 351 277.5726 
L 357.2 147.612 
L 363.4 147.6582 
L 369.6 147.612 
L 375.8 147.612 
L 382 147.612 
L 388.2 303.1212 
L 394.4 320.4 
L 400.6 320.4 
L 406.8 320.4 
L 413 164.7522 
L 419.2 147.612 
L 425.4 147.612 
L 431.6 147.7044 
L 437.8 147.6582 
L 444 243.0612 
L 450.2 320.4 
L 456.4 320.4 
L 462.6 320.4 
L 468.8 224.8122 
L 475 147.612 
L 481.2 147.612 
L 487.4 299.61 
L 493.6 320.4 
L 499.8 320.4 
L 506 320.4 
L 512.2 320.4 
L 518.4 320.4 
" style="fill:none;stroke:#d73027;stroke-linecap:square;stroke-width:2;"/>
    <defs>
     <path d="M -3 3 
L 3 -3 
M -3 -3 
L 3 3 
" id="mc371f909eb" style="stroke:#d73027;"/>
    </defs>
    <g clip-path="url(#pd7d35028ac)">
     <use style="fill:#d73027;stroke:#d73027;" x="72" xlink:href="#mc371f909eb" y="148.2588"/>
     <use style="fill:#d73027;stroke:#d73027;" x="78.2" xlink:href="#mc371f909eb" y="148.1664"/>
     <use style="fill:#d73027;stroke:#d73027;" x="84.4" xlink:href="#mc371f909eb" y="148.3512"/>
     <use style="fill:#d73027;stroke:#d73027;" x="90.6" xlink:href="#mc371f909eb" y="147.9354"/>
     <use style="fill:#d73027;stroke:#d73027;" x="96.8" xlink:href="#mc371f909eb" y="257.4756"/>
     <use style="fill:#d73027;stroke:#d73027;" x="103" xlink:href="#mc371f909eb" y="320.4"/>
     <use style="fill:#d73027;stroke:#d73027;" x="109.2" xlink:href="#mc371f909eb" y="320.4"/>
     <use style="fill:#d73027;stroke:#d73027;" x="115.4" xlink:href="#mc371f909eb" y="320.4"/>
     <use style="fill:#d73027;stroke:#d73027;" x="121.6" xlink:href="#mc371f909eb" y="210.5364"/>
     <use style="fill:#d73027;stroke:#d73027;" x="127.8" xlink:href="#mc371f909eb" y="147.5658"/>
     <use style="fill:#d73027;stroke:#d73027;" x="134" xlink:href="#mc371f909eb" y="147.6582"/>
     <use style="fill:#d73027;stroke:#d73027;" x="140.2" xlink:href="#mc371f909eb" y="147.612"/>
     <use style="fill:#d73027;stroke:#d73027;" x="146.4" xlink:href="#mc371f909eb" y="147.612"/>
     <use style="fill:#d73027;stroke:#d73027;" x="152.6" xlink:href="#mc371f909eb" y="197.4156"/>
     <use style="fill:#d73027;stroke:#d73027;" x="158.8" xlink:href="#mc371f909eb" y="320.4"/>
     <use style="fill:#d73027;stroke:#d73027;" x="165" xlink:href="#mc371f909eb" y="320.4"/>
     <use style="fill:#d73027;stroke:#d73027;" x="171.2" xlink:href="#mc371f909eb" y="320.4"/>
     <use style="fill:#d73027;stroke:#d73027;" x="177.4" xlink:href="#mc371f909eb" y="270.4578"/>
     <use style="fill:#d73027;stroke:#d73027;" x="183.6" xlink:href="#mc371f909eb" y="147.612"/>
     <use style="fill:#d73027;stroke:#d73027;" x="189.8" xlink:href="#mc371f909eb" y="147.612"/>
     <use style="fill:#d73027;stroke:#d73027;" x="196" xlink:href="#mc371f909eb" y="147.612"/>
     <use style="fill:#d73027;stroke:#d73027;" x="202.2" xlink:href="#mc371f909eb" y="147.6582"/>
     <use style="fill:#d73027;stroke:#d73027;" x="208.4" xlink:href="#mc371f909eb" y="147.5658"/>
     <use style="fill:#d73027;stroke:#d73027;" x="214.6" xlink:href="#mc371f909eb" y="310.2822"/>
     <use style="fill:#d73027;stroke:#d73027;" x="220.8" xlink:href="#mc371f909eb" y="320.4"/>
     <use style="fill:#d73027;stroke:#d73027;" x="227" xlink:href="#mc371f909eb" y="320.4"/>
     <use style="fill:#d73027;stroke:#d73027;" x="233.2" xlink:href="#mc371f909eb" y="320.4"/>
     <use style="fill:#d73027;stroke:#d73027;" x="239.4" xlink:href="#mc371f909eb" y="157.6374"/>
     <use style="fill:#d73027;stroke:#d73027;" x="245.6" xlink:href="#mc371f909eb" y="147.612"/>
     <use style="fill:#d73027;stroke:#d73027;" x="251.8" xlink:href="#mc371f909eb" y="147.6582"/>
     <use style="fill:#d73027;stroke:#d73027;" x="258" xlink:href="#mc371f909eb" y="147.5658"/>
     <use style="fill:#d73027;stroke:#d73027;" x="264.2" xlink:href="#mc371f909eb" y="147.612"/>
     <use style="fill:#d73027;stroke:#d73027;" x="270.4" xlink:href="#mc371f909eb" y="250.3146"/>
     <use style="fill:#d73027;stroke:#d73027;" x="276.6" xlink:href="#mc371f909eb" y="320.4"/>
     <use style="fill:#d73027;stroke:#d73027;" x="282.8" xlink:href="#mc371f909eb" y="320.4"/>
     <use style="fill:#d73027;stroke:#d73027;" x="289" xlink:href="#mc371f909eb" y="320.4"/>
     <use style="fill:#d73027;stroke:#d73027;" x="295.2" xlink:href="#mc371f909eb" y="217.605"/>
     <use style="fill:#d73027;stroke:#d73027;" x="301.4" xlink:href="#mc371f909eb" y="147.612"/>
     <use style="fill:#d73027;stroke:#d73027;" x="307.6" xlink:href="#mc371f909eb" y="147.612"/>
     <use style="fill:#d73027;stroke:#d73027;" x="313.8" xlink:href="#mc371f909eb" y="147.612"/>
     <use style="fill:#d73027;stroke:#d73027;" x="320" xlink:href="#mc371f909eb" y="147.612"/>
     <use style="fill:#d73027;stroke:#d73027;" x="326.2" xlink:href="#mc371f909eb" y="190.347"/>
     <use style="fill:#d73027;stroke:#d73027;" x="332.4" xlink:href="#mc371f909eb" y="320.4"/>
     <use style="fill:#d73027;stroke:#d73027;" x="338.6" xlink:href="#mc371f909eb" y="320.4"/>
     <use style="fill:#d73027;stroke:#d73027;" x="344.8" xlink:href="#mc371f909eb" y="320.4"/>
     <use style="fill:#d73027;stroke:#d73027;" x="351" xlink:href="#mc371f909eb" y="277.5726"/>
     <use style="fill:#d73027;stroke:#d73027;" x="357.2" xlink:href="#mc371f909eb" y="147.612"/>
     <use style="fill:#d73027;stroke:#d73027;" x="363.4" xlink:href="#mc371f909eb" y="147.6582"/>
     <use style="fill:#d73027;stroke:#d73027;" x="369.6" xlink:href="#mc371f909eb" y="147.612"/>
     <use style="fill:#d73027;stroke:#d73027;" x="375.8" xlink:href="#mc371f909eb" y="147.612"/>
     <use style="fill:#d73027;stroke:#d73027;" x="382" xlink:href="#mc371f909eb" y="147.612"/>
     <use style="fill:#d73027;stroke:#d73027;" x="388.2" xlink:href="#mc371f909eb" y="303.1212"/>
     <use style="fill:#d73027;stroke:#d73027;" x="394.4" xlink:href="#mc371f909eb" y="320.4"/>
     <use style="fill:#d73027;stroke:#d73027;" x="400.6" xlink:href="#mc371f909eb" y="320.4"/>
     <use style="fill:#d73027;stroke:#d73027;" x="406.8" xlink:href="#mc371f909eb" y="320.4"/>
     <use style="fill:#d73027;stroke:#d73027;" x="413" xlink:href="#mc371f909eb" y="164.7522"/>
     <use style="fill:#d73027;stroke:#d73027;" x="419.2" xlink:href="#mc371f909eb" y="147.612"/>
     <use style="fill:#d73027;stroke:#d73027;" x="425.4" xlink:href="#mc371f909eb" y="147.612"/>
     <use style="fill:#d73027;stroke:#d73027;" x="431.6" xlink:href="#mc371f909eb" y="147.7044"/>
     <use style="fill:#d73027;stroke:#d73027;" x="437.8" xlink:href="#mc371f909eb" y="147.6582"/>
     <use style="fill:#d73027;stroke:#d73027;" x="444" xlink:href="#mc371f909eb" y="243.0612"/>
     <use style="fill:#d73027;stroke:#d73027;" x="450.2" xlink:href="#mc371f909eb" y="320.4"/>
     <use style="fill:#d73027;stroke:#d73027;" x="456.4" xlink:href="#mc371f909eb" y="320.4"/>
     <use style="fill:#d73027;stroke:#d73027;" x="462.6" xlink:href="#mc371f909eb" y="320.4"/>
     <use style="fill:#d73027;stroke:#d73027;" x="468.8" xlink:href="#mc371f909eb" y="224.8122"/>
     <use style="fill:#d73027;stroke:#d73027;" x="475" xlink:href="#mc371f909eb" y="147.612"/>
     <use style="fill:#d73027;stroke:#d73027;" x="481.2" xlink:href="#mc371f909eb" y="147.612"/>
     <use style="fill:#d73027;stroke:#d73027;" x="487.4" xlink:href="#mc371f909eb" y="299.61"/>
     <use style="fill:#d73027;stroke:#d73027;" x="493.6" xlink:href="#mc371f909eb" y="320.4"/>
     <use style="fill:#d73027;stroke:#d73027;" x="499.8" xlink:href="#mc371f909eb" y="320.4"/>
     <use style="fill:#d73027;stroke:#d73027;" x="506" xlink:href="#mc371f909eb" y="320.4"/>
     <use style="fill:#d73027;stroke:#d73027;" x="512.2" xlink:href="#mc371f909eb" y="320.4"/>
     <use style="fill:#d73027;stroke:#d73027;" x="518.4" xlink:href="#mc371f909eb" y="320.4"/>
    </g>
   </g>
   <g id="line2d_24">
    <path clip-path="url(#pd7d35028ac)" d="M 72 234.3294 
L 78.2 234.2832 
L 84.4 234.3294 
L 90.6 234.1908 
L 96.8 179.3976 
L 103 155.5122 
L 109.2 155.5122 
L 115.4 155.466 
L 121.6 187.2978 
L 127.8 208.4112 
L 134 207.1176 
L 140.2 205.6854 
L 146.4 206.3322 
L 152.6 186.882 
L 158.8 155.6046 
L 165 155.3736 
L 171.2 155.466 
L 177.4 169.7418 
L 183.6 205.9164 
L 189.8 206.1936 
L 196 206.055 
L 202.2 206.3784 
L 208.4 205.7316 
L 214.6 154.4496 
L 220.8 155.9742 
L 227 155.235 
L 233.2 155.697 
L 239.4 203.4678 
L 245.6 205.9626 
L 251.8 205.593 
L 258 205.9164 
L 264.2 205.824 
L 270.4 171.2202 
L 276.6 155.1888 
L 282.8 155.1888 
L 289 155.0964 
L 295.2 185.265 
L 301.4 205.6392 
L 307.6 205.6854 
L 313.8 205.9626 
L 320 205.7316 
L 326.2 188.6376 
L 332.4 155.4198 
L 338.6 155.3274 
L 344.8 155.6508 
L 351 167.8476 
L 357.2 204.7614 
L 363.4 205.0848 
L 369.6 205.6854 
L 375.8 205.5468 
L 382 205.7778 
L 388.2 222.8718 
L 394.4 320.4 
L 400.6 320.4 
L 406.8 320.4 
L 413 320.4 
L 419.2 320.4 
L 425.4 320.4 
L 431.6 320.4 
L 437.8 320.4 
L 444 320.4 
L 450.2 320.4 
L 456.4 320.4 
L 462.6 320.4 
L 468.8 320.4 
L 475 320.4 
L 481.2 320.4 
L 487.4 320.4 
L 493.6 320.4 
L 499.8 320.4 
L 506 320.4 
L 512.2 320.4 
L 518.4 320.4 
" style="fill:none;stroke:#f46d43;stroke-dasharray:7.4,3.2;stroke-dashoffset:0;stroke-width:2;"/>
    <defs>
     <path d="M 0 3 
C 0.795609 3 1.55874 2.683901 2.12132 2.12132 
C 2.683901 1.55874 3 0.795609 3 0 
C 3 -0.795609 2.683901 -1.55874 2.12132 -2.12132 
C 1.55874 -2.683901 0.795609 -3 0 -3 
C -0.795609 -3 -1.55874 -2.683901 -2.12132 -2.12132 
C -2.683901 -1.55874 -3 -0.795609 -3 0 
C -3 0.795609 -2.683901 1.55874 -2.12132 2.12132 
C -1.55874 2.683901 -0.795609 3 0 3 
z
" id="mca275616a8" style="stroke:#f46d43;"/>
    </defs>
    <g clip-path="url(#pd7d35028ac)">
     <use style="fill:#f46d43;stroke:#f46d43;" x="72" xlink:href="#mca275616a8" y="234.3294"/>
     <use style="fill:#f46d43;stroke:#f46d43;" x="78.2" xlink:href="#mca275616a8" y="234.2832"/>
     <use style="fill:#f46d43;stroke:#f46d43;" x="84.4" xlink:href="#mca275616a8" y="234.3294"/>
     <use style="fill:#f46d43;stroke:#f46d43;" x="90.6" xlink:href="#mca275616a8" y="234.1908"/>
     <use style="fill:#f46d43;stroke:#f46d43;" x="96.8" xlink:href="#mca275616a8" y="179.3976"/>
     <use style="fill:#f46d43;stroke:#f46d43;" x="103" xlink:href="#mca275616a8" y="155.5122"/>
     <use style="fill:#f46d43;stroke:#f46d43;" x="109.2" xlink:href="#mca275616a8" y="155.5122"/>
     <use style="fill:#f46d43;stroke:#f46d43;" x="115.4" xlink:href="#mca275616a8" y="155.466"/>
     <use style="fill:#f46d43;stroke:#f46d43;" x="121.6" xlink:href="#mca275616a8" y="187.2978"/>
     <use style="fill:#f46d43;stroke:#f46d43;" x="127.8" xlink:href="#mca275616a8" y="208.4112"/>
     <use style="fill:#f46d43;stroke:#f46d43;" x="134" xlink:href="#mca275616a8" y="207.1176"/>
     <use style="fill:#f46d43;stroke:#f46d43;" x="140.2" xlink:href="#mca275616a8" y="205.6854"/>
     <use style="fill:#f46d43;stroke:#f46d43;" x="146.4" xlink:href="#mca275616a8" y="206.3322"/>
     <use style="fill:#f46d43;stroke:#f46d43;" x="152.6" xlink:href="#mca275616a8" y="186.882"/>
     <use style="fill:#f46d43;stroke:#f46d43;" x="158.8" xlink:href="#mca275616a8" y="155.6046"/>
     <use style="fill:#f46d43;stroke:#f46d43;" x="165" xlink:href="#mca275616a8" y="155.3736"/>
     <use style="fill:#f46d43;stroke:#f46d43;" x="171.2" xlink:href="#mca275616a8" y="155.466"/>
     <use style="fill:#f46d43;stroke:#f46d43;" x="177.4" xlink:href="#mca275616a8" y="169.7418"/>
     <use style="fill:#f46d43;stroke:#f46d43;" x="183.6" xlink:href="#mca275616a8" y="205.9164"/>
     <use style="fill:#f46d43;stroke:#f46d43;" x="189.8" xlink:href="#mca275616a8" y="206.1936"/>
     <use style="fill:#f46d43;stroke:#f46d43;" x="196" xlink:href="#mca275616a8" y="206.055"/>
     <use style="fill:#f46d43;stroke:#f46d43;" x="202.2" xlink:href="#mca275616a8" y="206.3784"/>
     <use style="fill:#f46d43;stroke:#f46d43;" x="208.4" xlink:href="#mca275616a8" y="205.7316"/>
     <use style="fill:#f46d43;stroke:#f46d43;" x="214.6" xlink:href="#mca275616a8" y="154.4496"/>
     <use style="fill:#f46d43;stroke:#f46d43;" x="220.8" xlink:href="#mca275616a8" y="155.9742"/>
     <use style="fill:#f46d43;stroke:#f46d43;" x="227" xlink:href="#mca275616a8" y="155.235"/>
     <use style="fill:#f46d43;stroke:#f46d43;" x="233.2" xlink:href="#mca275616a8" y="155.697"/>
     <use style="fill:#f46d43;stroke:#f46d43;" x="239.4" xlink:href="#mca275616a8" y="203.4678"/>
     <use style="fill:#f46d43;stroke:#f46d43;" x="245.6" xlink:href="#mca275616a8" y="205.9626"/>
     <use style="fill:#f46d43;stroke:#f46d43;" x="251.8" xlink:href="#mca275616a8" y="205.593"/>
     <use style="fill:#f46d43;stroke:#f46d43;" x="258" xlink:href="#mca275616a8" y="205.9164"/>
     <use style="fill:#f46d43;stroke:#f46d43;" x="264.2" xlink:href="#mca275616a8" y="205.824"/>
     <use style="fill:#f46d43;stroke:#f46d43;" x="270.4" xlink:href="#mca275616a8" y="171.2202"/>
     <use style="fill:#f46d43;stroke:#f46d43;" x="276.6" xlink:href="#mca275616a8" y="155.1888"/>
     <use style="fill:#f46d43;stroke:#f46d43;" x="282.8" xlink:href="#mca275616a8" y="155.1888"/>
     <use style="fill:#f46d43;stroke:#f46d43;" x="289" xlink:href="#mca275616a8" y="155.0964"/>
     <use style="fill:#f46d43;stroke:#f46d43;" x="295.2" xlink:href="#mca275616a8" y="185.265"/>
     <use style="fill:#f46d43;stroke:#f46d43;" x="301.4" xlink:href="#mca275616a8" y="205.6392"/>
     <use style="fill:#f46d43;stroke:#f46d43;" x="307.6" xlink:href="#mca275616a8" y="205.6854"/>
     <use style="fill:#f46d43;stroke:#f46d43;" x="313.8" xlink:href="#mca275616a8" y="205.9626"/>
     <use style="fill:#f46d43;stroke:#f46d43;" x="320" xlink:href="#mca275616a8" y="205.7316"/>
     <use style="fill:#f46d43;stroke:#f46d43;" x="326.2" xlink:href="#mca275616a8" y="188.6376"/>
     <use style="fill:#f46d43;stroke:#f46d43;" x="332.4" xlink:href="#mca275616a8" y="155.4198"/>
     <use style="fill:#f46d43;stroke:#f46d43;" x="338.6" xlink:href="#mca275616a8" y="155.3274"/>
     <use style="fill:#f46d43;stroke:#f46d43;" x="344.8" xlink:href="#mca275616a8" y="155.6508"/>
     <use style="fill:#f46d43;stroke:#f46d43;" x="351" xlink:href="#mca275616a8" y="167.8476"/>
     <use style="fill:#f46d43;stroke:#f46d43;" x="357.2" xlink:href="#mca275616a8" y="204.7614"/>
     <use style="fill:#f46d43;stroke:#f46d43;" x="363.4" xlink:href="#mca275616a8" y="205.0848"/>
     <use style="fill:#f46d43;stroke:#f46d43;" x="369.6" xlink:href="#mca275616a8" y="205.6854"/>
     <use style="fill:#f46d43;stroke:#f46d43;" x="375.8" xlink:href="#mca275616a8" y="205.5468"/>
     <use style="fill:#f46d43;stroke:#f46d43;" x="382" xlink:href="#mca275616a8" y="205.7778"/>
     <use style="fill:#f46d43;stroke:#f46d43;" x="388.2" xlink:href="#mca275616a8" y="222.8718"/>
     <use style="fill:#f46d43;stroke:#f46d43;" x="394.4" xlink:href="#mca275616a8" y="320.4"/>
     <use style="fill:#f46d43;stroke:#f46d43;" x="400.6" xlink:href="#mca275616a8" y="320.4"/>
     <use style="fill:#f46d43;stroke:#f46d43;" x="406.8" xlink:href="#mca275616a8" y="320.4"/>
     <use style="fill:#f46d43;stroke:#f46d43;" x="413" xlink:href="#mca275616a8" y="320.4"/>
     <use style="fill:#f46d43;stroke:#f46d43;" x="419.2" xlink:href="#mca275616a8" y="320.4"/>
     <use style="fill:#f46d43;stroke:#f46d43;" x="425.4" xlink:href="#mca275616a8" y="320.4"/>
     <use style="fill:#f46d43;stroke:#f46d43;" x="431.6" xlink:href="#mca275616a8" y="320.4"/>
     <use style="fill:#f46d43;stroke:#f46d43;" x="437.8" xlink:href="#mca275616a8" y="320.4"/>
     <use style="fill:#f46d43;stroke:#f46d43;" x="444" xlink:href="#mca275616a8" y="320.4"/>
     <use style="fill:#f46d43;stroke:#f46d43;" x="450.2" xlink:href="#mca275616a8" y="320.4"/>
     <use style="fill:#f46d43;stroke:#f46d43;" x="456.4" xlink:href="#mca275616a8" y="320.4"/>
     <use style="fill:#f46d43;stroke:#f46d43;" x="462.6" xlink:href="#mca275616a8" y="320.4"/>
     <use style="fill:#f46d43;stroke:#f46d43;" x="468.8" xlink:href="#mca275616a8" y="320.4"/>
     <use style="fill:#f46d43;stroke:#f46d43;" x="475" xlink:href="#mca275616a8" y="320.4"/>
     <use style="fill:#f46d43;stroke:#f46d43;" x="481.2" xlink:href="#mca275616a8" y="320.4"/>
     <use style="fill:#f46d43;stroke:#f46d43;" x="487.4" xlink:href="#mca275616a8" y="320.4"/>
     <use style="fill:#f46d43;stroke:#f46d43;" x="493.6" xlink:href="#mca275616a8" y="320.4"/>
     <use style="fill:#f46d43;stroke:#f46d43;" x="499.8" xlink:href="#mca275616a8" y="320.4"/>
     <use style="fill:#f46d43;stroke:#f46d43;" x="506" xlink:href="#mca275616a8" y="320.4"/>
     <use style="fill:#f46d43;stroke:#f46d43;" x="512.2" xlink:href="#mca275616a8" y="320.4"/>
     <use style="fill:#f46d43;stroke:#f46d43;" x="518.4" xlink:href="#mca275616a8" y="320.4"/>
    </g>
   </g>
   <g id="line2d_25">
    <path clip-path="url(#pd7d35028ac)" d="M 72 291.7098 
L 78.2 291.6636 
L 84.4 291.7098 
L 90.6 291.6636 
L 96.8 238.1178 
L 103 199.6332 
L 109.2 199.8642 
L 115.4 199.7718 
L 121.6 276.4176 
L 127.8 320.4 
L 134 320.4 
L 140.2 320.4 
L 146.4 320.4 
L 152.6 290.2314 
L 158.8 199.587 
L 165 199.7256 
L 171.2 199.587 
L 177.4 235.2534 
L 183.6 320.4 
L 189.8 320.4 
L 196 320.4 
L 202.2 320.4 
L 208.4 320.4 
L 214.6 210.906 
L 220.8 198.894 
L 227 199.818 
L 233.2 199.4484 
L 239.4 313.3776 
L 245.6 320.4 
L 251.8 320.4 
L 258 320.4 
L 264.2 320.4 
L 270.4 253.3176 
L 276.6 199.8642 
L 282.8 199.8642 
L 289 200.0028 
L 295.2 271.6128 
L 301.4 320.4 
L 307.6 320.4 
L 313.8 320.4 
L 320 320.4 
L 326.2 295.0824 
L 332.4 199.587 
L 338.6 200.049 
L 344.8 199.9104 
L 351 229.5708 
L 357.2 320.4 
L 363.4 320.4 
L 369.6 320.4 
L 375.8 320.4 
L 382 320.4 
L 388.2 148.6746 
L 394.4 32.8974 
L 400.6 32.343 
L 406.8 32.112 
L 413 187.575 
L 419.2 205.0386 
L 425.4 204.8538 
L 431.6 204.5766 
L 437.8 204.5766 
L 444 109.497 
L 450.2 32.5278 
L 456.4 32.7126 
L 462.6 32.6202 
L 468.8 127.746 
L 475 205.4544 
L 481.2 205.2234 
L 487.4 53.364 
L 493.6 32.4816 
L 499.8 32.1582 
L 506 32.3892 
L 512.2 193.6272 
L 518.4 320.4 
" style="fill:none;stroke:#2c7bb6;stroke-dasharray:12.8,3.2,2,3.2;stroke-dashoffset:0;stroke-width:2;"/>
    <defs>
     <path d="M 3 0 
L -3 -3 
L -3 3 
z
" id="m4d2461528c" style="stroke:#2c7bb6;stroke-linejoin:miter;"/>
    </defs>
    <g clip-path="url(#pd7d35028ac)">
     <use style="fill:#2c7bb6;stroke:#2c7bb6;stroke-linejoin:miter;" x="72" xlink:href="#m4d2461528c" y="291.7098"/>
     <use style="fill:#2c7bb6;stroke:#2c7bb6;stroke-linejoin:miter;" x="78.2" xlink:href="#m4d2461528c" y="291.6636"/>
     <use style="fill:#2c7bb6;stroke:#2c7bb6;stroke-linejoin:miter;" x="84.4" xlink:href="#m4d2461528c" y="291.7098"/>
     <use style="fill:#2c7bb6;stroke:#2c7bb6;stroke-linejoin:miter;" x="90.6" xlink:href="#m4d2461528c" y="291.6636"/>
     <use style="fill:#2c7bb6;stroke:#2c7bb6;stroke-linejoin:miter;" x="96.8" xlink:href="#m4d2461528c" y="238.1178"/>
     <use style="fill:#2c7bb6;stroke:#2c7bb6;stroke-linejoin:miter;" x="103" xlink:href="#m4d2461528c" y="199.6332"/>
     <use style="fill:#2c7bb6;stroke:#2c7bb6;stroke-linejoin:miter;" x="109.2" xlink:href="#m4d2461528c" y="199.8642"/>
     <use style="fill:#2c7bb6;stroke:#2c7bb6;stroke-linejoin:miter;" x="115.4" xlink:href="#m4d2461528c" y="199.7718"/>
     <use style="fill:#2c7bb6;stroke:#2c7bb6;stroke-linejoin:miter;" x="121.6" xlink:href="#m4d2461528c" y="276.4176"/>
     <use style="fill:#2c7bb6;stroke:#2c7bb6;stroke-linejoin:miter;" x="127.8" xlink:href="#m4d2461528c" y="320.4"/>
     <use style="fill:#2c7bb6;stroke:#2c7bb6;stroke-linejoin:miter;" x="134" xlink:href="#m4d2461528c" y="320.4"/>
     <use style="fill:#2c7bb6;stroke:#2c7bb6;stroke-linejoin:miter;" x="140.2" xlink:href="#m4d2461528c" y="320.4"/>
     <use style="fill:#2c7bb6;stroke:#2c7bb6;stroke-linejoin:miter;" x="146.4" xlink:href="#m4d2461528c" y="320.4"/>
     <use style="fill:#2c7bb6;stroke:#2c7bb6;stroke-linejoin:miter;" x="152.6" xlink:href="#m4d2461528c" y="290.2314"/>
     <use style="fill:#2c7bb6;stroke:#2c7bb6;stroke-linejoin:miter;" x="158.8" xlink:href="#m4d2461528c" y="199.587"/>
     <use style="fill:#2c7bb6;stroke:#2c7bb6;stroke-linejoin:miter;" x="165" xlink:href="#m4d2461528c" y="199.7256"/>
     <use style="fill:#2c7bb6;stroke:#2c7bb6;stroke-linejoin:miter;" x="171.2" xlink:href="#m4d2461528c" y="199.587"/>
     <use style="fill:#2c7bb6;stroke:#2c7bb6;stroke-linejoin:miter;" x="177.4" xlink:href="#m4d2461528c" y="235.2534"/>
     <use style="fill:#2c7bb6;stroke:#2c7bb6;stroke-linejoin:miter;" x="183.6" xlink:href="#m4d2461528c" y="320.4"/>
     <use style="fill:#2c7bb6;stroke:#2c7bb6;stroke-linejoin:miter;" x="189.8" xlink:href="#m4d2461528c" y="320.4"/>
     <use style="fill:#2c7bb6;stroke:#2c7bb6;stroke-linejoin:miter;" x="196" xlink:href="#m4d2461528c" y="320.4"/>
     <use style="fill:#2c7bb6;stroke:#2c7bb6;stroke-linejoin:miter;" x="202.2" xlink:href="#m4d2461528c" y="320.4"/>
     <use style="fill:#2c7bb6;stroke:#2c7bb6;stroke-linejoin:miter;" x="208.4" xlink:href="#m4d2461528c" y="320.4"/>
     <use style="fill:#2c7bb6;stroke:#2c7bb6;stroke-linejoin:miter;" x="214.6" xlink:href="#m4d2461528c" y="210.906"/>
     <use style="fill:#2c7bb6;stroke:#2c7bb6;stroke-linejoin:miter;" x="220.8" xlink:href="#m4d2461528c" y="198.894"/>
     <use style="fill:#2c7bb6;stroke:#2c7bb6;stroke-linejoin:miter;" x="227" xlink:href="#m4d2461528c" y="199.818"/>
     <use style="fill:#2c7bb6;stroke:#2c7bb6;stroke-linejoin:miter;" x="233.2" xlink:href="#m4d2461528c" y="199.4484"/>
     <use style="fill:#2c7bb6;stroke:#2c7bb6;stroke-linejoin:miter;" x="239.4" xlink:href="#m4d2461528c" y="313.3776"/>
     <use style="fill:#2c7bb6;stroke:#2c7bb6;stroke-linejoin:miter;" x="245.6" xlink:href="#m4d2461528c" y="320.4"/>
     <use style="fill:#2c7bb6;stroke:#2c7bb6;stroke-linejoin:miter;" x="251.8" xlink:href="#m4d2461528c" y="320.4"/>
     <use style="fill:#2c7bb6;stroke:#2c7bb6;stroke-linejoin:miter;" x="258" xlink:href="#m4d2461528c" y="320.4"/>
     <use style="fill:#2c7bb6;stroke:#2c7bb6;stroke-linejoin:miter;" x="264.2" xlink:href="#m4d2461528c" y="320.4"/>
     <use style="fill:#2c7bb6;stroke:#2c7bb6;stroke-linejoin:miter;" x="270.4" xlink:href="#m4d2461528c" y="253.3176"/>
     <use style="fill:#2c7bb6;stroke:#2c7bb6;stroke-linejoin:miter;" x="276.6" xlink:href="#m4d2461528c" y="199.8642"/>
     <use style="fill:#2c7bb6;stroke:#2c7bb6;stroke-linejoin:miter;" x="282.8" xlink:href="#m4d2461528c" y="199.8642"/>
     <use style="fill:#2c7bb6;stroke:#2c7bb6;stroke-linejoin:miter;" x="289" xlink:href="#m4d2461528c" y="200.0028"/>
     <use style="fill:#2c7bb6;stroke:#2c7bb6;stroke-linejoin:miter;" x="295.2" xlink:href="#m4d2461528c" y="271.6128"/>
     <use style="fill:#2c7bb6;stroke:#2c7bb6;stroke-linejoin:miter;" x="301.4" xlink:href="#m4d2461528c" y="320.4"/>
     <use style="fill:#2c7bb6;stroke:#2c7bb6;stroke-linejoin:miter;" x="307.6" xlink:href="#m4d2461528c" y="320.4"/>
     <use style="fill:#2c7bb6;stroke:#2c7bb6;stroke-linejoin:miter;" x="313.8" xlink:href="#m4d2461528c" y="320.4"/>
     <use style="fill:#2c7bb6;stroke:#2c7bb6;stroke-linejoin:miter;" x="320" xlink:href="#m4d2461528c" y="320.4"/>
     <use style="fill:#2c7bb6;stroke:#2c7bb6;stroke-linejoin:miter;" x="326.2" xlink:href="#m4d2461528c" y="295.0824"/>
     <use style="fill:#2c7bb6;stroke:#2c7bb6;stroke-linejoin:miter;" x="332.4" xlink:href="#m4d2461528c" y="199.587"/>
     <use style="fill:#2c7bb6;stroke:#2c7bb6;stroke-linejoin:miter;" x="338.6" xlink:href="#m4d2461528c" y="200.049"/>
     <use style="fill:#2c7bb6;stroke:#2c7bb6;stroke-linejoin:miter;" x="344.8" xlink:href="#m4d2461528c" y="199.9104"/>
     <use style="fill:#2c7bb6;stroke:#2c7bb6;stroke-linejoin:miter;" x="351" xlink:href="#m4d2461528c" y="229.5708"/>
     <use style="fill:#2c7bb6;stroke:#2c7bb6;stroke-linejoin:miter;" x="357.2" xlink:href="#m4d2461528c" y="320.4"/>
     <use style="fill:#2c7bb6;stroke:#2c7bb6;stroke-linejoin:miter;" x="363.4" xlink:href="#m4d2461528c" y="320.4"/>
     <use style="fill:#2c7bb6;stroke:#2c7bb6;stroke-linejoin:miter;" x="369.6" xlink:href="#m4d2461528c" y="320.4"/>
     <use style="fill:#2c7bb6;stroke:#2c7bb6;stroke-linejoin:miter;" x="375.8" xlink:href="#m4d2461528c" y="320.4"/>
     <use style="fill:#2c7bb6;stroke:#2c7bb6;stroke-linejoin:miter;" x="382" xlink:href="#m4d2461528c" y="320.4"/>
     <use style="fill:#2c7bb6;stroke:#2c7bb6;stroke-linejoin:miter;" x="388.2" xlink:href="#m4d2461528c" y="148.6746"/>
     <use style="fill:#2c7bb6;stroke:#2c7bb6;stroke-linejoin:miter;" x="394.4" xlink:href="#m4d2461528c" y="32.8974"/>
     <use style="fill:#2c7bb6;stroke:#2c7bb6;stroke-linejoin:miter;" x="400.6" xlink:href="#m4d2461528c" y="32.343"/>
     <use style="fill:#2c7bb6;stroke:#2c7bb6;stroke-linejoin:miter;" x="406.8" xlink:href="#m4d2461528c" y="32.112"/>
     <use style="fill:#2c7bb6;stroke:#2c7bb6;stroke-linejoin:miter;" x="413" xlink:href="#m4d2461528c" y="187.575"/>
     <use style="fill:#2c7bb6;stroke:#2c7bb6;stroke-linejoin:miter;" x="419.2" xlink:href="#m4d2461528c" y="205.0386"/>
     <use style="fill:#2c7bb6;stroke:#2c7bb6;stroke-linejoin:miter;" x="425.4" xlink:href="#m4d2461528c" y="204.8538"/>
     <use style="fill:#2c7bb6;stroke:#2c7bb6;stroke-linejoin:miter;" x="431.6" xlink:href="#m4d2461528c" y="204.5766"/>
     <use style="fill:#2c7bb6;stroke:#2c7bb6;stroke-linejoin:miter;" x="437.8" xlink:href="#m4d2461528c" y="204.5766"/>
     <use style="fill:#2c7bb6;stroke:#2c7bb6;stroke-linejoin:miter;" x="444" xlink:href="#m4d2461528c" y="109.497"/>
     <use style="fill:#2c7bb6;stroke:#2c7bb6;stroke-linejoin:miter;" x="450.2" xlink:href="#m4d2461528c" y="32.5278"/>
     <use style="fill:#2c7bb6;stroke:#2c7bb6;stroke-linejoin:miter;" x="456.4" xlink:href="#m4d2461528c" y="32.7126"/>
     <use style="fill:#2c7bb6;stroke:#2c7bb6;stroke-linejoin:miter;" x="462.6" xlink:href="#m4d2461528c" y="32.6202"/>
     <use style="fill:#2c7bb6;stroke:#2c7bb6;stroke-linejoin:miter;" x="468.8" xlink:href="#m4d2461528c" y="127.746"/>
     <use style="fill:#2c7bb6;stroke:#2c7bb6;stroke-linejoin:miter;" x="475" xlink:href="#m4d2461528c" y="205.4544"/>
     <use style="fill:#2c7bb6;stroke:#2c7bb6;stroke-linejoin:miter;" x="481.2" xlink:href="#m4d2461528c" y="205.2234"/>
     <use style="fill:#2c7bb6;stroke:#2c7bb6;stroke-linejoin:miter;" x="487.4" xlink:href="#m4d2461528c" y="53.364"/>
     <use style="fill:#2c7bb6;stroke:#2c7bb6;stroke-linejoin:miter;" x="493.6" xlink:href="#m4d2461528c" y="32.4816"/>
     <use style="fill:#2c7bb6;stroke:#2c7bb6;stroke-linejoin:miter;" x="499.8" xlink:href="#m4d2461528c" y="32.1582"/>
     <use style="fill:#2c7bb6;stroke:#2c7bb6;stroke-linejoin:miter;" x="506" xlink:href="#m4d2461528c" y="32.3892"/>
     <use style="fill:#2c7bb6;stroke:#2c7bb6;stroke-linejoin:miter;" x="512.2" xlink:href="#m4d2461528c" y="193.6272"/>
     <use style="fill:#2c7bb6;stroke:#2c7bb6;stroke-linejoin:miter;" x="518.4" xlink:href="#m4d2461528c" y="320.4"/>
    </g>
   </g>
   <g id="patch_3">
    <path d="M 72 320.4 
L 72 43.2 
" style="fill:none;stroke:#000000;stroke-linecap:square;stroke-linejoin:miter;stroke-width:0.8;"/>
   </g>
   <g id="patch_4">
    <path d="M 518.4 320.4 
L 518.4 43.2 
" style="fill:none;stroke:#000000;stroke-linecap:square;stroke-linejoin:miter;stroke-width:0.8;"/>
   </g>
   <g id="patch_5">
    <path d="M 72 320.4 
L 518.4 320.4 
" style="fill:none;stroke:#000000;stroke-linecap:square;stroke-linejoin:miter;stroke-width:0.8;"/>
   </g>
   <g id="patch_6">
    <path d="M 72 43.2 
L 518.4 43.2 
" style="fill:none;stroke:#000000;stroke-linecap:square;stroke-linejoin:miter;stroke-width:0.8;"/>
   </g>
   <g id="legend_1">
    <g id="patch_7">
     <path d="M 88.22625 78.6225 
L 502.17375 78.6225 
Q 505.37375 78.6225 505.37375 75.4225 
L 505.37375 54.4 
Q 505.37375 51.2 502.17375 51.2 
L 88.22625 51.2 
Q 85.02625 51.2 85.02625 54.4 
L 85.02625 75.4225 
Q 85.02625 78.6225 88.22625 78.6225 
z
" style="fill:#ffffff;opacity:0.8;stroke:#cccccc;stroke-linejoin:miter;"/>
    </g>
    <g id="line2d_26">
     <path d="M 91.42625 63.2 
L 123.42625 63.2 
" style="fill:none;stroke:#d73027;stroke-linecap:square;stroke-width:2;"/>
    </g>
    <g id="line2d_27">
     <g>
      <use style="fill:#d73027;stroke:#d73027;" x="107.42625" xlink:href="#mc371f909eb" y="63.2"/>
     </g>
    </g>
    <g id="text_18">
     <!-- B, limit=4000 -->
     <g transform="translate(136.22625 68.8)scale(0.16 -0.16)">
      <defs>
       <path d="M 2956 2163 
Q 3397 2069 3616 1863 
Q 3919 1575 3919 1159 
Q 3919 844 3719 555 
Q 3519 266 3170 133 
Q 2822 0 2106 0 
L 106 0 
L 106 116 
L 266 116 
Q 531 116 647 284 
Q 719 394 719 750 
L 719 3488 
Q 719 3881 628 3984 
Q 506 4122 266 4122 
L 106 4122 
L 106 4238 
L 1938 4238 
Q 2450 4238 2759 4163 
Q 3228 4050 3475 3764 
Q 3722 3478 3722 3106 
Q 3722 2788 3528 2536 
Q 3334 2284 2956 2163 
z
M 1319 2331 
Q 1434 2309 1582 2298 
Q 1731 2288 1909 2288 
Q 2366 2288 2595 2386 
Q 2825 2484 2947 2687 
Q 3069 2891 3069 3131 
Q 3069 3503 2766 3765 
Q 2463 4028 1881 4028 
Q 1569 4028 1319 3959 
L 1319 2331 
z
M 1319 306 
Q 1681 222 2034 222 
Q 2600 222 2897 476 
Q 3194 731 3194 1106 
Q 3194 1353 3059 1581 
Q 2925 1809 2622 1940 
Q 2319 2072 1872 2072 
Q 1678 2072 1540 2065 
Q 1403 2059 1319 2044 
L 1319 306 
z
" id="TimesNewRomanPSMT-42" transform="scale(0.015625)"/>
       <path d="M 344 -1066 
L 344 -928 
Q 666 -822 842 -598 
Q 1019 -375 1019 -125 
Q 1019 -66 991 -25 
Q 969 3 947 3 
Q 913 3 797 -59 
Q 741 -88 678 -88 
Q 525 -88 434 3 
Q 344 94 344 253 
Q 344 406 461 515 
Q 578 625 747 625 
Q 953 625 1114 445 
Q 1275 266 1275 -31 
Q 1275 -353 1051 -629 
Q 828 -906 344 -1066 
z
" id="TimesNewRomanPSMT-2c" transform="scale(0.015625)"/>
       <path d="M 1184 4444 
L 1184 647 
Q 1184 378 1223 290 
Q 1263 203 1344 158 
Q 1425 113 1647 113 
L 1647 0 
L 244 0 
L 244 113 
Q 441 113 512 153 
Q 584 194 625 287 
Q 666 381 666 647 
L 666 3247 
Q 666 3731 644 3842 
Q 622 3953 573 3993 
Q 525 4034 450 4034 
Q 369 4034 244 3984 
L 191 4094 
L 1044 4444 
L 1184 4444 
z
" id="TimesNewRomanPSMT-6c" transform="scale(0.015625)"/>
       <path d="M 1031 3803 
L 1031 2863 
L 1700 2863 
L 1700 2644 
L 1031 2644 
L 1031 788 
Q 1031 509 1111 412 
Q 1191 316 1316 316 
Q 1419 316 1516 380 
Q 1613 444 1666 569 
L 1788 569 
Q 1678 263 1478 108 
Q 1278 -47 1066 -47 
Q 922 -47 784 33 
Q 647 113 581 261 
Q 516 409 516 719 
L 516 2644 
L 63 2644 
L 63 2747 
Q 234 2816 414 2980 
Q 594 3144 734 3369 
Q 806 3488 934 3803 
L 1031 3803 
z
" id="TimesNewRomanPSMT-74" transform="scale(0.015625)"/>
       <path d="M 116 2759 
L 3488 2759 
L 3488 2503 
L 116 2503 
L 116 2759 
z
M 116 1741 
L 3488 1741 
L 3488 1484 
L 116 1484 
L 116 1741 
z
" id="TimesNewRomanPSMT-3d" transform="scale(0.015625)"/>
      </defs>
      <use xlink:href="#TimesNewRomanPSMT-42"/>
      <use x="66.699219" xlink:href="#TimesNewRomanPSMT-2c"/>
      <use x="91.699219" xlink:href="#TimesNewRomanPSMT-20"/>
      <use x="116.699219" xlink:href="#TimesNewRomanPSMT-6c"/>
      <use x="144.482422" xlink:href="#TimesNewRomanPSMT-69"/>
      <use x="172.265625" xlink:href="#TimesNewRomanPSMT-6d"/>
      <use x="250.048828" xlink:href="#TimesNewRomanPSMT-69"/>
      <use x="277.832031" xlink:href="#TimesNewRomanPSMT-74"/>
      <use x="305.615234" xlink:href="#TimesNewRomanPSMT-3d"/>
      <use x="362.011719" xlink:href="#TimesNewRomanPSMT-34"/>
      <use x="412.011719" xlink:href="#TimesNewRomanPSMT-30"/>
      <use x="462.011719" xlink:href="#TimesNewRomanPSMT-30"/>
      <use x="512.011719" xlink:href="#TimesNewRomanPSMT-30"/>
     </g>
    </g>
    <g id="line2d_28">
     <path d="M 258.14625 63.2 
L 290.14625 63.2 
" style="fill:none;stroke:#f46d43;stroke-dasharray:7.4,3.2;stroke-dashoffset:0;stroke-width:2;"/>
    </g>
    <g id="line2d_29">
     <g>
      <use style="fill:#f46d43;stroke:#f46d43;" x="274.14625" xlink:href="#mca275616a8" y="63.2"/>
     </g>
    </g>
    <g id="text_19">
     <!-- R, rserve=1000 -->
     <g transform="translate(302.94625 68.8)scale(0.16 -0.16)">
      <defs>
       <path d="M 4325 0 
L 3194 0 
L 1759 1981 
Q 1600 1975 1500 1975 
Q 1459 1975 1412 1976 
Q 1366 1978 1316 1981 
L 1316 750 
Q 1316 350 1403 253 
Q 1522 116 1759 116 
L 1925 116 
L 1925 0 
L 109 0 
L 109 116 
L 269 116 
Q 538 116 653 291 
Q 719 388 719 750 
L 719 3488 
Q 719 3888 631 3984 
Q 509 4122 269 4122 
L 109 4122 
L 109 4238 
L 1653 4238 
Q 2328 4238 2648 4139 
Q 2969 4041 3192 3777 
Q 3416 3513 3416 3147 
Q 3416 2756 3161 2468 
Q 2906 2181 2372 2063 
L 3247 847 
Q 3547 428 3762 290 
Q 3978 153 4325 116 
L 4325 0 
z
M 1316 2178 
Q 1375 2178 1419 2176 
Q 1463 2175 1491 2175 
Q 2097 2175 2405 2437 
Q 2713 2700 2713 3106 
Q 2713 3503 2464 3751 
Q 2216 4000 1806 4000 
Q 1625 4000 1316 3941 
L 1316 2178 
z
" id="TimesNewRomanPSMT-52" transform="scale(0.015625)"/>
       <path d="M 1038 2947 
L 1038 2303 
Q 1397 2947 1775 2947 
Q 1947 2947 2059 2842 
Q 2172 2738 2172 2600 
Q 2172 2478 2090 2393 
Q 2009 2309 1897 2309 
Q 1788 2309 1652 2417 
Q 1516 2525 1450 2525 
Q 1394 2525 1328 2463 
Q 1188 2334 1038 2041 
L 1038 669 
Q 1038 431 1097 309 
Q 1138 225 1241 169 
Q 1344 113 1538 113 
L 1538 0 
L 72 0 
L 72 113 
Q 291 113 397 181 
Q 475 231 506 341 
Q 522 394 522 644 
L 522 1753 
Q 522 2253 501 2348 
Q 481 2444 426 2487 
Q 372 2531 291 2531 
Q 194 2531 72 2484 
L 41 2597 
L 906 2947 
L 1038 2947 
z
" id="TimesNewRomanPSMT-72" transform="scale(0.015625)"/>
       <path d="M 53 2863 
L 1400 2863 
L 1400 2747 
L 1313 2747 
Q 1191 2747 1127 2687 
Q 1063 2628 1063 2528 
Q 1063 2419 1128 2269 
L 1794 688 
L 2463 2328 
Q 2534 2503 2534 2594 
Q 2534 2638 2509 2666 
Q 2475 2713 2422 2730 
Q 2369 2747 2206 2747 
L 2206 2863 
L 3141 2863 
L 3141 2747 
Q 2978 2734 2916 2681 
Q 2806 2588 2719 2369 
L 1703 -88 
L 1575 -88 
L 553 2328 
Q 484 2497 421 2570 
Q 359 2644 263 2694 
Q 209 2722 53 2747 
L 53 2863 
z
" id="TimesNewRomanPSMT-76" transform="scale(0.015625)"/>
      </defs>
      <use xlink:href="#TimesNewRomanPSMT-52"/>
      <use x="66.699219" xlink:href="#TimesNewRomanPSMT-2c"/>
      <use x="91.699219" xlink:href="#TimesNewRomanPSMT-20"/>
      <use x="116.699219" xlink:href="#TimesNewRomanPSMT-72"/>
      <use x="150" xlink:href="#TimesNewRomanPSMT-73"/>
      <use x="188.916016" xlink:href="#TimesNewRomanPSMT-65"/>
      <use x="233.300781" xlink:href="#TimesNewRomanPSMT-72"/>
      <use x="266.601562" xlink:href="#TimesNewRomanPSMT-76"/>
      <use x="316.601562" xlink:href="#TimesNewRomanPSMT-65"/>
      <use x="360.986328" xlink:href="#TimesNewRomanPSMT-3d"/>
      <use x="417.382812" xlink:href="#TimesNewRomanPSMT-31"/>
      <use x="467.382812" xlink:href="#TimesNewRomanPSMT-30"/>
      <use x="517.382812" xlink:href="#TimesNewRomanPSMT-30"/>
      <use x="567.382812" xlink:href="#TimesNewRomanPSMT-30"/>
     </g>
    </g>
    <g id="line2d_30">
     <path d="M 433.72875 63.2 
L 465.72875 63.2 
" style="fill:none;stroke:#2c7bb6;stroke-dasharray:12.8,3.2,2,3.2;stroke-dashoffset:0;stroke-width:2;"/>
    </g>
    <g id="line2d_31">
     <g>
      <use style="fill:#2c7bb6;stroke:#2c7bb6;stroke-linejoin:miter;" x="449.72875" xlink:href="#m4d2461528c" y="63.2"/>
     </g>
    </g>
    <g id="text_20">
     <!-- BE -->
     <g transform="translate(478.52875 68.8)scale(0.16 -0.16)">
      <defs>
       <path d="M 1338 4006 
L 1338 2331 
L 2269 2331 
Q 2631 2331 2753 2441 
Q 2916 2584 2934 2947 
L 3050 2947 
L 3050 1472 
L 2934 1472 
Q 2891 1781 2847 1869 
Q 2791 1978 2662 2040 
Q 2534 2103 2269 2103 
L 1338 2103 
L 1338 706 
Q 1338 425 1363 364 
Q 1388 303 1450 267 
Q 1513 231 1688 231 
L 2406 231 
Q 2766 231 2928 281 
Q 3091 331 3241 478 
Q 3434 672 3638 1063 
L 3763 1063 
L 3397 0 
L 131 0 
L 131 116 
L 281 116 
Q 431 116 566 188 
Q 666 238 702 338 
Q 738 438 738 747 
L 738 3500 
Q 738 3903 656 3997 
Q 544 4122 281 4122 
L 131 4122 
L 131 4238 
L 3397 4238 
L 3444 3309 
L 3322 3309 
Q 3256 3644 3176 3769 
Q 3097 3894 2941 3959 
Q 2816 4006 2500 4006 
L 1338 4006 
z
" id="TimesNewRomanPSMT-45" transform="scale(0.015625)"/>
      </defs>
      <use xlink:href="#TimesNewRomanPSMT-42"/>
      <use x="66.699219" xlink:href="#TimesNewRomanPSMT-45"/>
     </g>
    </g>
   </g>
  </g>
 </g>
 <defs>
  <clipPath id="pd7d35028ac">
   <rect height="277.2" width="446.4" x="72" y="43.2"/>
  </clipPath>
 </defs>
</svg>
