<?xml version="1.0" encoding="utf-8" standalone="no"?>
<!DOCTYPE svg PUBLIC "-//W3C//DTD SVG 1.1//EN"
  "http://www.w3.org/Graphics/SVG/1.1/DTD/svg11.dtd">
<svg height="360pt" version="1.1" viewBox="0 0 576 360" width="576pt" xmlns="http://www.w3.org/2000/svg" xmlns:xlink="http://www.w3.org/1999/xlink">
 <metadata>
  <rdf:RDF xmlns:cc="http://creativecommons.org/ns#" xmlns:dc="http://purl.org/dc/elements/1.1/" xmlns:rdf="http://www.w3.org/1999/02/22-rdf-syntax-ns#">
   <cc:Work>
    <dc:type rdf:resource="http://purl.org/dc/dcmitype/StillImage"/>
    <dc:date>2021-04-23T16:39:40.666939</dc:date>
    <dc:format>image/svg+xml</dc:format>
    <dc:creator>
     <cc:Agent>
      <dc:title>Matplotlib v3.4.1, https://matplotlib.org/</dc:title>
     </cc:Agent>
    </dc:creator>
   </cc:Work>
  </rdf:RDF>
 </metadata>
 <defs>
  <style type="text/css">*{stroke-linecap:butt;stroke-linejoin:round;}</style>
 </defs>
 <g id="figure_1">
  <g id="patch_1">
   <path d="M 0 360 
L 576 360 
L 576 0 
L 0 0 
z
" style="fill:#ffffff;"/>
  </g>
  <g id="axes_1">
   <g id="patch_2">
    <path d="M 72 320.4 
L 518.4 320.4 
L 518.4 43.2 
L 72 43.2 
z
" style="fill:#ffffff;"/>
   </g>
   <g id="matplotlib.axis_1">
    <g id="xtick_1">
     <g id="line2d_1">
      <defs>
       <path d="M 0 0 
L 0 3.5 
" id="m4f47ec6447" style="stroke:#000000;stroke-width:0.8;"/>
      </defs>
      <g>
       <use style="stroke:#000000;stroke-width:0.8;" x="72" xlink:href="#m4f47ec6447" y="320.4"/>
      </g>
     </g>
     <g id="text_1">
      <!-- 0 -->
      <g transform="translate(68 338.51)scale(0.16 -0.16)">
       <defs>
        <path d="M 231 2094 
Q 231 2819 450 3342 
Q 669 3866 1031 4122 
Q 1313 4325 1613 4325 
Q 2100 4325 2488 3828 
Q 2972 3213 2972 2159 
Q 2972 1422 2759 906 
Q 2547 391 2217 158 
Q 1888 -75 1581 -75 
Q 975 -75 572 641 
Q 231 1244 231 2094 
z
M 844 2016 
Q 844 1141 1059 588 
Q 1238 122 1591 122 
Q 1759 122 1940 273 
Q 2122 425 2216 781 
Q 2359 1319 2359 2297 
Q 2359 3022 2209 3506 
Q 2097 3866 1919 4016 
Q 1791 4119 1609 4119 
Q 1397 4119 1231 3928 
Q 1006 3669 925 3112 
Q 844 2556 844 2016 
z
" id="TimesNewRomanPSMT-30" transform="scale(0.015625)"/>
       </defs>
       <use xlink:href="#TimesNewRomanPSMT-30"/>
      </g>
     </g>
    </g>
    <g id="xtick_2">
     <g id="line2d_2">
      <g>
       <use style="stroke:#000000;stroke-width:0.8;" x="127.8" xlink:href="#m4f47ec6447" y="320.4"/>
      </g>
     </g>
     <g id="text_2">
      <!-- 10 -->
      <g transform="translate(119.8 338.51)scale(0.16 -0.16)">
       <defs>
        <path d="M 750 3822 
L 1781 4325 
L 1884 4325 
L 1884 747 
Q 1884 391 1914 303 
Q 1944 216 2037 169 
Q 2131 122 2419 116 
L 2419 0 
L 825 0 
L 825 116 
Q 1125 122 1212 167 
Q 1300 213 1334 289 
Q 1369 366 1369 747 
L 1369 3034 
Q 1369 3497 1338 3628 
Q 1316 3728 1258 3775 
Q 1200 3822 1119 3822 
Q 1003 3822 797 3725 
L 750 3822 
z
" id="TimesNewRomanPSMT-31" transform="scale(0.015625)"/>
       </defs>
       <use xlink:href="#TimesNewRomanPSMT-31"/>
       <use x="50" xlink:href="#TimesNewRomanPSMT-30"/>
      </g>
     </g>
    </g>
    <g id="xtick_3">
     <g id="line2d_3">
      <g>
       <use style="stroke:#000000;stroke-width:0.8;" x="183.6" xlink:href="#m4f47ec6447" y="320.4"/>
      </g>
     </g>
     <g id="text_3">
      <!-- 20 -->
      <g transform="translate(175.6 338.51)scale(0.16 -0.16)">
       <defs>
        <path d="M 2934 816 
L 2638 0 
L 138 0 
L 138 116 
Q 1241 1122 1691 1759 
Q 2141 2397 2141 2925 
Q 2141 3328 1894 3587 
Q 1647 3847 1303 3847 
Q 991 3847 742 3664 
Q 494 3481 375 3128 
L 259 3128 
Q 338 3706 661 4015 
Q 984 4325 1469 4325 
Q 1984 4325 2329 3994 
Q 2675 3663 2675 3213 
Q 2675 2891 2525 2569 
Q 2294 2063 1775 1497 
Q 997 647 803 472 
L 1909 472 
Q 2247 472 2383 497 
Q 2519 522 2628 598 
Q 2738 675 2819 816 
L 2934 816 
z
" id="TimesNewRomanPSMT-32" transform="scale(0.015625)"/>
       </defs>
       <use xlink:href="#TimesNewRomanPSMT-32"/>
       <use x="50" xlink:href="#TimesNewRomanPSMT-30"/>
      </g>
     </g>
    </g>
    <g id="xtick_4">
     <g id="line2d_4">
      <g>
       <use style="stroke:#000000;stroke-width:0.8;" x="239.4" xlink:href="#m4f47ec6447" y="320.4"/>
      </g>
     </g>
     <g id="text_4">
      <!-- 30 -->
      <g transform="translate(231.4 338.51)scale(0.16 -0.16)">
       <defs>
        <path d="M 325 3431 
Q 506 3859 782 4092 
Q 1059 4325 1472 4325 
Q 1981 4325 2253 3994 
Q 2459 3747 2459 3466 
Q 2459 3003 1878 2509 
Q 2269 2356 2469 2072 
Q 2669 1788 2669 1403 
Q 2669 853 2319 450 
Q 1863 -75 997 -75 
Q 569 -75 414 31 
Q 259 138 259 259 
Q 259 350 332 419 
Q 406 488 509 488 
Q 588 488 669 463 
Q 722 447 909 348 
Q 1097 250 1169 231 
Q 1284 197 1416 197 
Q 1734 197 1970 444 
Q 2206 691 2206 1028 
Q 2206 1275 2097 1509 
Q 2016 1684 1919 1775 
Q 1784 1900 1550 2001 
Q 1316 2103 1072 2103 
L 972 2103 
L 972 2197 
Q 1219 2228 1467 2375 
Q 1716 2522 1828 2728 
Q 1941 2934 1941 3181 
Q 1941 3503 1739 3701 
Q 1538 3900 1238 3900 
Q 753 3900 428 3381 
L 325 3431 
z
" id="TimesNewRomanPSMT-33" transform="scale(0.015625)"/>
       </defs>
       <use xlink:href="#TimesNewRomanPSMT-33"/>
       <use x="50" xlink:href="#TimesNewRomanPSMT-30"/>
      </g>
     </g>
    </g>
    <g id="xtick_5">
     <g id="line2d_5">
      <g>
       <use style="stroke:#000000;stroke-width:0.8;" x="295.2" xlink:href="#m4f47ec6447" y="320.4"/>
      </g>
     </g>
     <g id="text_5">
      <!-- 40 -->
      <g transform="translate(287.2 338.51)scale(0.16 -0.16)">
       <defs>
        <path d="M 2978 1563 
L 2978 1119 
L 2409 1119 
L 2409 0 
L 1894 0 
L 1894 1119 
L 100 1119 
L 100 1519 
L 2066 4325 
L 2409 4325 
L 2409 1563 
L 2978 1563 
z
M 1894 1563 
L 1894 3666 
L 406 1563 
L 1894 1563 
z
" id="TimesNewRomanPSMT-34" transform="scale(0.015625)"/>
       </defs>
       <use xlink:href="#TimesNewRomanPSMT-34"/>
       <use x="50" xlink:href="#TimesNewRomanPSMT-30"/>
      </g>
     </g>
    </g>
    <g id="xtick_6">
     <g id="line2d_6">
      <g>
       <use style="stroke:#000000;stroke-width:0.8;" x="351" xlink:href="#m4f47ec6447" y="320.4"/>
      </g>
     </g>
     <g id="text_6">
      <!-- 50 -->
      <g transform="translate(343 338.51)scale(0.16 -0.16)">
       <defs>
        <path d="M 2778 4238 
L 2534 3706 
L 1259 3706 
L 981 3138 
Q 1809 3016 2294 2522 
Q 2709 2097 2709 1522 
Q 2709 1188 2573 903 
Q 2438 619 2231 419 
Q 2025 219 1772 97 
Q 1413 -75 1034 -75 
Q 653 -75 479 54 
Q 306 184 306 341 
Q 306 428 378 495 
Q 450 563 559 563 
Q 641 563 702 538 
Q 763 513 909 409 
Q 1144 247 1384 247 
Q 1750 247 2026 523 
Q 2303 800 2303 1197 
Q 2303 1581 2056 1914 
Q 1809 2247 1375 2428 
Q 1034 2569 447 2591 
L 1259 4238 
L 2778 4238 
z
" id="TimesNewRomanPSMT-35" transform="scale(0.015625)"/>
       </defs>
       <use xlink:href="#TimesNewRomanPSMT-35"/>
       <use x="50" xlink:href="#TimesNewRomanPSMT-30"/>
      </g>
     </g>
    </g>
    <g id="xtick_7">
     <g id="line2d_7">
      <g>
       <use style="stroke:#000000;stroke-width:0.8;" x="406.8" xlink:href="#m4f47ec6447" y="320.4"/>
      </g>
     </g>
     <g id="text_7">
      <!-- 60 -->
      <g transform="translate(398.8 338.51)scale(0.16 -0.16)">
       <defs>
        <path d="M 2869 4325 
L 2869 4209 
Q 2456 4169 2195 4045 
Q 1934 3922 1679 3669 
Q 1425 3416 1258 3105 
Q 1091 2794 978 2366 
Q 1428 2675 1881 2675 
Q 2316 2675 2634 2325 
Q 2953 1975 2953 1425 
Q 2953 894 2631 456 
Q 2244 -75 1606 -75 
Q 1172 -75 869 213 
Q 275 772 275 1663 
Q 275 2231 503 2743 
Q 731 3256 1154 3653 
Q 1578 4050 1965 4187 
Q 2353 4325 2688 4325 
L 2869 4325 
z
M 925 2138 
Q 869 1716 869 1456 
Q 869 1156 980 804 
Q 1091 453 1309 247 
Q 1469 100 1697 100 
Q 1969 100 2183 356 
Q 2397 613 2397 1088 
Q 2397 1622 2184 2012 
Q 1972 2403 1581 2403 
Q 1463 2403 1327 2353 
Q 1191 2303 925 2138 
z
" id="TimesNewRomanPSMT-36" transform="scale(0.015625)"/>
       </defs>
       <use xlink:href="#TimesNewRomanPSMT-36"/>
       <use x="50" xlink:href="#TimesNewRomanPSMT-30"/>
      </g>
     </g>
    </g>
    <g id="xtick_8">
     <g id="line2d_8">
      <g>
       <use style="stroke:#000000;stroke-width:0.8;" x="462.6" xlink:href="#m4f47ec6447" y="320.4"/>
      </g>
     </g>
     <g id="text_8">
      <!-- 70 -->
      <g transform="translate(454.6 338.51)scale(0.16 -0.16)">
       <defs>
        <path d="M 644 4238 
L 2916 4238 
L 2916 4119 
L 1503 -88 
L 1153 -88 
L 2419 3728 
L 1253 3728 
Q 900 3728 750 3644 
Q 488 3500 328 3200 
L 238 3234 
L 644 4238 
z
" id="TimesNewRomanPSMT-37" transform="scale(0.015625)"/>
       </defs>
       <use xlink:href="#TimesNewRomanPSMT-37"/>
       <use x="50" xlink:href="#TimesNewRomanPSMT-30"/>
      </g>
     </g>
    </g>
    <g id="xtick_9">
     <g id="line2d_9">
      <g>
       <use style="stroke:#000000;stroke-width:0.8;" x="518.4" xlink:href="#m4f47ec6447" y="320.4"/>
      </g>
     </g>
     <g id="text_9">
      <!-- 80 -->
      <g transform="translate(510.4 338.51)scale(0.16 -0.16)">
       <defs>
        <path d="M 1228 2134 
Q 725 2547 579 2797 
Q 434 3047 434 3316 
Q 434 3728 753 4026 
Q 1072 4325 1600 4325 
Q 2113 4325 2425 4047 
Q 2738 3769 2738 3413 
Q 2738 3175 2569 2928 
Q 2400 2681 1866 2347 
Q 2416 1922 2594 1678 
Q 2831 1359 2831 1006 
Q 2831 559 2490 242 
Q 2150 -75 1597 -75 
Q 994 -75 656 303 
Q 388 606 388 966 
Q 388 1247 577 1523 
Q 766 1800 1228 2134 
z
M 1719 2469 
Q 2094 2806 2194 3001 
Q 2294 3197 2294 3444 
Q 2294 3772 2109 3958 
Q 1925 4144 1606 4144 
Q 1288 4144 1088 3959 
Q 888 3775 888 3528 
Q 888 3366 970 3203 
Q 1053 3041 1206 2894 
L 1719 2469 
z
M 1375 2016 
Q 1116 1797 991 1539 
Q 866 1281 866 981 
Q 866 578 1086 336 
Q 1306 94 1647 94 
Q 1984 94 2187 284 
Q 2391 475 2391 747 
Q 2391 972 2272 1150 
Q 2050 1481 1375 2016 
z
" id="TimesNewRomanPSMT-38" transform="scale(0.015625)"/>
       </defs>
       <use xlink:href="#TimesNewRomanPSMT-38"/>
       <use x="50" xlink:href="#TimesNewRomanPSMT-30"/>
      </g>
     </g>
    </g>
    <g id="text_10">
     <!-- Time (sec) -->
     <g transform="translate(261.05375 357.0425)scale(0.16 -0.16)">
      <defs>
       <path d="M 3703 4238 
L 3750 3244 
L 3631 3244 
Q 3597 3506 3538 3619 
Q 3441 3800 3280 3886 
Q 3119 3972 2856 3972 
L 2259 3972 
L 2259 734 
Q 2259 344 2344 247 
Q 2463 116 2709 116 
L 2856 116 
L 2856 0 
L 1059 0 
L 1059 116 
L 1209 116 
Q 1478 116 1591 278 
Q 1659 378 1659 734 
L 1659 3972 
L 1150 3972 
Q 853 3972 728 3928 
Q 566 3869 450 3700 
Q 334 3531 313 3244 
L 194 3244 
L 244 4238 
L 3703 4238 
z
" id="TimesNewRomanPSMT-54" transform="scale(0.015625)"/>
       <path d="M 928 4444 
Q 1059 4444 1151 4351 
Q 1244 4259 1244 4128 
Q 1244 3997 1151 3903 
Q 1059 3809 928 3809 
Q 797 3809 703 3903 
Q 609 3997 609 4128 
Q 609 4259 701 4351 
Q 794 4444 928 4444 
z
M 1188 2947 
L 1188 647 
Q 1188 378 1227 289 
Q 1266 200 1342 156 
Q 1419 113 1622 113 
L 1622 0 
L 231 0 
L 231 113 
Q 441 113 512 153 
Q 584 194 626 287 
Q 669 381 669 647 
L 669 1750 
Q 669 2216 641 2353 
Q 619 2453 572 2492 
Q 525 2531 444 2531 
Q 356 2531 231 2484 
L 188 2597 
L 1050 2947 
L 1188 2947 
z
" id="TimesNewRomanPSMT-69" transform="scale(0.015625)"/>
       <path d="M 1050 2338 
Q 1363 2650 1419 2697 
Q 1559 2816 1721 2881 
Q 1884 2947 2044 2947 
Q 2313 2947 2506 2790 
Q 2700 2634 2766 2338 
Q 3088 2713 3309 2830 
Q 3531 2947 3766 2947 
Q 3994 2947 4170 2830 
Q 4347 2713 4450 2447 
Q 4519 2266 4519 1878 
L 4519 647 
Q 4519 378 4559 278 
Q 4591 209 4675 161 
Q 4759 113 4950 113 
L 4950 0 
L 3538 0 
L 3538 113 
L 3597 113 
Q 3781 113 3884 184 
Q 3956 234 3988 344 
Q 4000 397 4000 647 
L 4000 1878 
Q 4000 2228 3916 2372 
Q 3794 2572 3525 2572 
Q 3359 2572 3192 2489 
Q 3025 2406 2788 2181 
L 2781 2147 
L 2788 2013 
L 2788 647 
Q 2788 353 2820 281 
Q 2853 209 2943 161 
Q 3034 113 3253 113 
L 3253 0 
L 1806 0 
L 1806 113 
Q 2044 113 2133 169 
Q 2222 225 2256 338 
Q 2272 391 2272 647 
L 2272 1878 
Q 2272 2228 2169 2381 
Q 2031 2581 1784 2581 
Q 1616 2581 1450 2491 
Q 1191 2353 1050 2181 
L 1050 647 
Q 1050 366 1089 281 
Q 1128 197 1204 155 
Q 1281 113 1516 113 
L 1516 0 
L 100 0 
L 100 113 
Q 297 113 375 155 
Q 453 197 493 289 
Q 534 381 534 647 
L 534 1741 
Q 534 2213 506 2350 
Q 484 2453 437 2492 
Q 391 2531 309 2531 
Q 222 2531 100 2484 
L 53 2597 
L 916 2947 
L 1050 2947 
L 1050 2338 
z
" id="TimesNewRomanPSMT-6d" transform="scale(0.015625)"/>
       <path d="M 681 1784 
Q 678 1147 991 784 
Q 1303 422 1725 422 
Q 2006 422 2214 576 
Q 2422 731 2563 1106 
L 2659 1044 
Q 2594 616 2278 264 
Q 1963 -88 1488 -88 
Q 972 -88 605 314 
Q 238 716 238 1394 
Q 238 2128 614 2539 
Q 991 2950 1559 2950 
Q 2041 2950 2350 2633 
Q 2659 2316 2659 1784 
L 681 1784 
z
M 681 1966 
L 2006 1966 
Q 1991 2241 1941 2353 
Q 1863 2528 1708 2628 
Q 1553 2728 1384 2728 
Q 1125 2728 920 2526 
Q 716 2325 681 1966 
z
" id="TimesNewRomanPSMT-65" transform="scale(0.015625)"/>
       <path id="TimesNewRomanPSMT-20" transform="scale(0.015625)"/>
       <path d="M 1988 -1253 
L 1988 -1369 
Q 1516 -1131 1200 -813 
Q 750 -359 506 256 
Q 263 872 263 1534 
Q 263 2503 741 3301 
Q 1219 4100 1988 4444 
L 1988 4313 
Q 1603 4100 1356 3731 
Q 1109 3363 987 2797 
Q 866 2231 866 1616 
Q 866 947 969 400 
Q 1050 -31 1165 -292 
Q 1281 -553 1476 -793 
Q 1672 -1034 1988 -1253 
z
" id="TimesNewRomanPSMT-28" transform="scale(0.015625)"/>
       <path d="M 2050 2947 
L 2050 1972 
L 1947 1972 
Q 1828 2431 1642 2597 
Q 1456 2763 1169 2763 
Q 950 2763 815 2647 
Q 681 2531 681 2391 
Q 681 2216 781 2091 
Q 878 1963 1175 1819 
L 1631 1597 
Q 2266 1288 2266 781 
Q 2266 391 1970 151 
Q 1675 -88 1309 -88 
Q 1047 -88 709 6 
Q 606 38 541 38 
Q 469 38 428 -44 
L 325 -44 
L 325 978 
L 428 978 
Q 516 541 762 319 
Q 1009 97 1316 97 
Q 1531 97 1667 223 
Q 1803 350 1803 528 
Q 1803 744 1651 891 
Q 1500 1038 1047 1263 
Q 594 1488 453 1669 
Q 313 1847 313 2119 
Q 313 2472 555 2709 
Q 797 2947 1181 2947 
Q 1350 2947 1591 2875 
Q 1750 2828 1803 2828 
Q 1853 2828 1881 2850 
Q 1909 2872 1947 2947 
L 2050 2947 
z
" id="TimesNewRomanPSMT-73" transform="scale(0.015625)"/>
       <path d="M 2631 1088 
Q 2516 522 2178 217 
Q 1841 -88 1431 -88 
Q 944 -88 581 321 
Q 219 731 219 1428 
Q 219 2103 620 2525 
Q 1022 2947 1584 2947 
Q 2006 2947 2278 2723 
Q 2550 2500 2550 2259 
Q 2550 2141 2473 2067 
Q 2397 1994 2259 1994 
Q 2075 1994 1981 2113 
Q 1928 2178 1911 2362 
Q 1894 2547 1784 2644 
Q 1675 2738 1481 2738 
Q 1169 2738 978 2506 
Q 725 2200 725 1697 
Q 725 1184 976 792 
Q 1228 400 1656 400 
Q 1963 400 2206 609 
Q 2378 753 2541 1131 
L 2631 1088 
z
" id="TimesNewRomanPSMT-63" transform="scale(0.015625)"/>
       <path d="M 144 4313 
L 144 4444 
Q 619 4209 934 3891 
Q 1381 3434 1625 2820 
Q 1869 2206 1869 1541 
Q 1869 572 1392 -226 
Q 916 -1025 144 -1369 
L 144 -1253 
Q 528 -1038 776 -670 
Q 1025 -303 1145 264 
Q 1266 831 1266 1447 
Q 1266 2113 1163 2663 
Q 1084 3094 967 3353 
Q 850 3613 656 3853 
Q 463 4094 144 4313 
z
" id="TimesNewRomanPSMT-29" transform="scale(0.015625)"/>
      </defs>
      <use xlink:href="#TimesNewRomanPSMT-54"/>
      <use x="57.583984" xlink:href="#TimesNewRomanPSMT-69"/>
      <use x="85.367188" xlink:href="#TimesNewRomanPSMT-6d"/>
      <use x="163.150391" xlink:href="#TimesNewRomanPSMT-65"/>
      <use x="207.535156" xlink:href="#TimesNewRomanPSMT-20"/>
      <use x="232.535156" xlink:href="#TimesNewRomanPSMT-28"/>
      <use x="265.835938" xlink:href="#TimesNewRomanPSMT-73"/>
      <use x="304.751953" xlink:href="#TimesNewRomanPSMT-65"/>
      <use x="349.136719" xlink:href="#TimesNewRomanPSMT-63"/>
      <use x="393.521484" xlink:href="#TimesNewRomanPSMT-29"/>
     </g>
    </g>
   </g>
   <g id="matplotlib.axis_2">
    <g id="ytick_1">
     <g id="line2d_10">
      <path clip-path="url(#p7bb67fb4c9)" d="M 72 320.4 
L 518.4 320.4 
" style="fill:none;stroke:#b2b2b2;stroke-dasharray:0.8,1.32;stroke-dashoffset:0;stroke-width:0.8;"/>
     </g>
     <g id="line2d_11">
      <defs>
       <path d="M 0 0 
L -3.5 0 
" id="mf6886d4363" style="stroke:#000000;stroke-width:0.8;"/>
      </defs>
      <g>
       <use style="stroke:#000000;stroke-width:0.8;" x="72" xlink:href="#mf6886d4363" y="320.4"/>
      </g>
     </g>
     <g id="text_11">
      <!-- 0 -->
      <g transform="translate(57 325.955)scale(0.16 -0.16)">
       <use xlink:href="#TimesNewRomanPSMT-30"/>
      </g>
     </g>
    </g>
    <g id="ytick_2">
     <g id="line2d_12">
      <path clip-path="url(#p7bb67fb4c9)" d="M 72 259.58452 
L 518.4 259.58452 
" style="fill:none;stroke:#b2b2b2;stroke-dasharray:0.8,1.32;stroke-dashoffset:0;stroke-width:0.8;"/>
     </g>
     <g id="line2d_13">
      <g>
       <use style="stroke:#000000;stroke-width:0.8;" x="72" xlink:href="#mf6886d4363" y="259.58452"/>
      </g>
     </g>
     <g id="text_12">
      <!-- 500 -->
      <g transform="translate(41 265.13952)scale(0.16 -0.16)">
       <use xlink:href="#TimesNewRomanPSMT-35"/>
       <use x="50" xlink:href="#TimesNewRomanPSMT-30"/>
       <use x="100" xlink:href="#TimesNewRomanPSMT-30"/>
      </g>
     </g>
    </g>
    <g id="ytick_3">
     <g id="line2d_14">
      <path clip-path="url(#p7bb67fb4c9)" d="M 72 198.769039 
L 518.4 198.769039 
" style="fill:none;stroke:#b2b2b2;stroke-dasharray:0.8,1.32;stroke-dashoffset:0;stroke-width:0.8;"/>
     </g>
     <g id="line2d_15">
      <g>
       <use style="stroke:#000000;stroke-width:0.8;" x="72" xlink:href="#mf6886d4363" y="198.769039"/>
      </g>
     </g>
     <g id="text_13">
      <!-- 1000 -->
      <g transform="translate(33 204.324039)scale(0.16 -0.16)">
       <use xlink:href="#TimesNewRomanPSMT-31"/>
       <use x="50" xlink:href="#TimesNewRomanPSMT-30"/>
       <use x="100" xlink:href="#TimesNewRomanPSMT-30"/>
       <use x="150" xlink:href="#TimesNewRomanPSMT-30"/>
      </g>
     </g>
    </g>
    <g id="ytick_4">
     <g id="line2d_16">
      <path clip-path="url(#p7bb67fb4c9)" d="M 72 137.953559 
L 518.4 137.953559 
" style="fill:none;stroke:#b2b2b2;stroke-dasharray:0.8,1.32;stroke-dashoffset:0;stroke-width:0.8;"/>
     </g>
     <g id="line2d_17">
      <g>
       <use style="stroke:#000000;stroke-width:0.8;" x="72" xlink:href="#mf6886d4363" y="137.953559"/>
      </g>
     </g>
     <g id="text_14">
      <!-- 1500 -->
      <g transform="translate(33 143.508559)scale(0.16 -0.16)">
       <use xlink:href="#TimesNewRomanPSMT-31"/>
       <use x="50" xlink:href="#TimesNewRomanPSMT-35"/>
       <use x="100" xlink:href="#TimesNewRomanPSMT-30"/>
       <use x="150" xlink:href="#TimesNewRomanPSMT-30"/>
      </g>
     </g>
    </g>
    <g id="ytick_5">
     <g id="line2d_18">
      <path clip-path="url(#p7bb67fb4c9)" d="M 72 77.138079 
L 518.4 77.138079 
" style="fill:none;stroke:#b2b2b2;stroke-dasharray:0.8,1.32;stroke-dashoffset:0;stroke-width:0.8;"/>
     </g>
     <g id="line2d_19">
      <g>
       <use style="stroke:#000000;stroke-width:0.8;" x="72" xlink:href="#mf6886d4363" y="77.138079"/>
      </g>
     </g>
     <g id="text_15">
      <!-- 2000 -->
      <g transform="translate(33 82.693079)scale(0.16 -0.16)">
       <use xlink:href="#TimesNewRomanPSMT-32"/>
       <use x="50" xlink:href="#TimesNewRomanPSMT-30"/>
       <use x="100" xlink:href="#TimesNewRomanPSMT-30"/>
       <use x="150" xlink:href="#TimesNewRomanPSMT-30"/>
      </g>
     </g>
    </g>
    <g id="text_16">
     <!-- IOPS -->
     <g transform="translate(25.5775 199.13875)rotate(-90)scale(0.16 -0.16)">
      <defs>
       <path d="M 1975 116 
L 1975 0 
L 159 0 
L 159 116 
L 309 116 
Q 572 116 691 269 
Q 766 369 766 750 
L 766 3488 
Q 766 3809 725 3913 
Q 694 3991 597 4047 
Q 459 4122 309 4122 
L 159 4122 
L 159 4238 
L 1975 4238 
L 1975 4122 
L 1822 4122 
Q 1563 4122 1444 3969 
Q 1366 3869 1366 3488 
L 1366 750 
Q 1366 428 1406 325 
Q 1438 247 1538 191 
Q 1672 116 1822 116 
L 1975 116 
z
" id="TimesNewRomanPSMT-49" transform="scale(0.015625)"/>
       <path d="M 2341 4334 
Q 3166 4334 3770 3707 
Q 4375 3081 4375 2144 
Q 4375 1178 3765 540 
Q 3156 -97 2291 -97 
Q 1416 -97 820 525 
Q 225 1147 225 2134 
Q 225 3144 913 3781 
Q 1509 4334 2341 4334 
z
M 2281 4106 
Q 1713 4106 1369 3684 
Q 941 3159 941 2147 
Q 941 1109 1384 550 
Q 1725 125 2284 125 
Q 2881 125 3270 590 
Q 3659 1056 3659 2059 
Q 3659 3147 3231 3681 
Q 2888 4106 2281 4106 
z
" id="TimesNewRomanPSMT-4f" transform="scale(0.015625)"/>
       <path d="M 1313 1984 
L 1313 750 
Q 1313 350 1400 253 
Q 1519 116 1759 116 
L 1922 116 
L 1922 0 
L 106 0 
L 106 116 
L 266 116 
Q 534 116 650 291 
Q 713 388 713 750 
L 713 3488 
Q 713 3888 628 3984 
Q 506 4122 266 4122 
L 106 4122 
L 106 4238 
L 1659 4238 
Q 2228 4238 2556 4120 
Q 2884 4003 3109 3725 
Q 3334 3447 3334 3066 
Q 3334 2547 2992 2222 
Q 2650 1897 2025 1897 
Q 1872 1897 1694 1919 
Q 1516 1941 1313 1984 
z
M 1313 2163 
Q 1478 2131 1606 2115 
Q 1734 2100 1825 2100 
Q 2150 2100 2386 2351 
Q 2622 2603 2622 3003 
Q 2622 3278 2509 3514 
Q 2397 3750 2190 3867 
Q 1984 3984 1722 3984 
Q 1563 3984 1313 3925 
L 1313 2163 
z
" id="TimesNewRomanPSMT-50" transform="scale(0.015625)"/>
       <path d="M 2934 4334 
L 2934 2869 
L 2819 2869 
Q 2763 3291 2617 3541 
Q 2472 3791 2203 3937 
Q 1934 4084 1647 4084 
Q 1322 4084 1109 3886 
Q 897 3688 897 3434 
Q 897 3241 1031 3081 
Q 1225 2847 1953 2456 
Q 2547 2138 2764 1967 
Q 2981 1797 3098 1565 
Q 3216 1334 3216 1081 
Q 3216 600 2842 251 
Q 2469 -97 1881 -97 
Q 1697 -97 1534 -69 
Q 1438 -53 1133 45 
Q 828 144 747 144 
Q 669 144 623 97 
Q 578 50 556 -97 
L 441 -97 
L 441 1356 
L 556 1356 
Q 638 900 775 673 
Q 913 447 1195 297 
Q 1478 147 1816 147 
Q 2206 147 2432 353 
Q 2659 559 2659 841 
Q 2659 997 2573 1156 
Q 2488 1316 2306 1453 
Q 2184 1547 1640 1851 
Q 1097 2156 867 2337 
Q 638 2519 519 2737 
Q 400 2956 400 3219 
Q 400 3675 750 4004 
Q 1100 4334 1641 4334 
Q 1978 4334 2356 4169 
Q 2531 4091 2603 4091 
Q 2684 4091 2736 4139 
Q 2788 4188 2819 4334 
L 2934 4334 
z
" id="TimesNewRomanPSMT-53" transform="scale(0.015625)"/>
      </defs>
      <use xlink:href="#TimesNewRomanPSMT-49"/>
      <use x="33.300781" xlink:href="#TimesNewRomanPSMT-4f"/>
      <use x="105.517578" xlink:href="#TimesNewRomanPSMT-50"/>
      <use x="161.132812" xlink:href="#TimesNewRomanPSMT-53"/>
     </g>
    </g>
   </g>
   <g id="line2d_20">
    <path clip-path="url(#p7bb67fb4c9)" d="M 72 94.531306 
L 77.58 95.321907 
L 83.16 95.261092 
L 88.74 95.01783 
L 94.32 231.974292 
L 99.9 320.4 
L 105.48 320.4 
L 111.06 320.4 
L 116.64 182.044782 
L 122.22 93.010919 
L 127.8 92.950104 
L 133.38 92.950104 
L 138.96 92.950104 
L 144.54 152.184381 
L 150.12 320.4 
L 155.7 320.4 
L 161.28 320.4 
L 166.86 260.983276 
L 172.44 92.950104 
L 178.02 92.950104 
L 183.6 92.950104 
L 189.18 92.950104 
L 194.76 93.010919 
L 200.34 300.695784 
L 205.92 320.4 
L 211.5 320.4 
L 217.08 320.4 
L 222.66 112.471873 
L 228.24 92.950104 
L 233.82 93.010919 
L 239.4 92.950104 
L 244.98 92.889288 
L 250.56 221.818106 
L 256.14 320.4 
L 261.72 320.4 
L 267.3 320.4 
L 272.88 191.471182 
L 278.46 92.950104 
L 284.04 92.950104 
L 289.62 92.889288 
L 295.2 93.010919 
L 300.78 142.818798 
L 306.36 320.4 
L 311.94 320.4 
L 317.52 320.4 
L 323.1 270.34886 
L 328.68 92.950104 
L 334.26 92.889288 
L 339.84 93.010919 
L 345.42 92.950104 
L 351 92.950104 
L 356.58 291.391016 
L 362.16 320.4 
L 367.74 320.4 
L 373.32 320.4 
L 378.9 121.776641 
L 384.48 93.375812 
L 390.06 92.950104 
L 395.64 93.13255 
L 401.22 92.950104 
L 406.8 211.905183 
L 412.38 320.4 
L 417.96 320.4 
L 423.54 320.4 
L 429.12 201.262474 
L 434.7 92.950104 
L 440.28 92.950104 
L 445.86 286.343331 
L 451.44 320.4 
L 457.02 320.4 
L 462.6 320.4 
L 468.18 320.4 
L 473.76 320.4 
L 479.34 320.4 
L 484.92 320.4 
L 490.5 320.4 
L 496.08 320.4 
L 501.66 320.4 
L 507.24 320.4 
L 512.82 320.4 
L 518.4 320.4 
" style="fill:none;stroke:#d73027;stroke-linecap:square;stroke-width:2;"/>
    <defs>
     <path d="M -3 3 
L 3 -3 
M -3 -3 
L 3 3 
" id="m015b4ece84" style="stroke:#d73027;"/>
    </defs>
    <g clip-path="url(#p7bb67fb4c9)">
     <use style="fill:#d73027;stroke:#d73027;" x="72" xlink:href="#m015b4ece84" y="94.531306"/>
     <use style="fill:#d73027;stroke:#d73027;" x="77.58" xlink:href="#m015b4ece84" y="95.321907"/>
     <use style="fill:#d73027;stroke:#d73027;" x="83.16" xlink:href="#m015b4ece84" y="95.261092"/>
     <use style="fill:#d73027;stroke:#d73027;" x="88.74" xlink:href="#m015b4ece84" y="95.01783"/>
     <use style="fill:#d73027;stroke:#d73027;" x="94.32" xlink:href="#m015b4ece84" y="231.974292"/>
     <use style="fill:#d73027;stroke:#d73027;" x="99.9" xlink:href="#m015b4ece84" y="320.4"/>
     <use style="fill:#d73027;stroke:#d73027;" x="105.48" xlink:href="#m015b4ece84" y="320.4"/>
     <use style="fill:#d73027;stroke:#d73027;" x="111.06" xlink:href="#m015b4ece84" y="320.4"/>
     <use style="fill:#d73027;stroke:#d73027;" x="116.64" xlink:href="#m015b4ece84" y="182.044782"/>
     <use style="fill:#d73027;stroke:#d73027;" x="122.22" xlink:href="#m015b4ece84" y="93.010919"/>
     <use style="fill:#d73027;stroke:#d73027;" x="127.8" xlink:href="#m015b4ece84" y="92.950104"/>
     <use style="fill:#d73027;stroke:#d73027;" x="133.38" xlink:href="#m015b4ece84" y="92.950104"/>
     <use style="fill:#d73027;stroke:#d73027;" x="138.96" xlink:href="#m015b4ece84" y="92.950104"/>
     <use style="fill:#d73027;stroke:#d73027;" x="144.54" xlink:href="#m015b4ece84" y="152.184381"/>
     <use style="fill:#d73027;stroke:#d73027;" x="150.12" xlink:href="#m015b4ece84" y="320.4"/>
     <use style="fill:#d73027;stroke:#d73027;" x="155.7" xlink:href="#m015b4ece84" y="320.4"/>
     <use style="fill:#d73027;stroke:#d73027;" x="161.28" xlink:href="#m015b4ece84" y="320.4"/>
     <use style="fill:#d73027;stroke:#d73027;" x="166.86" xlink:href="#m015b4ece84" y="260.983276"/>
     <use style="fill:#d73027;stroke:#d73027;" x="172.44" xlink:href="#m015b4ece84" y="92.950104"/>
     <use style="fill:#d73027;stroke:#d73027;" x="178.02" xlink:href="#m015b4ece84" y="92.950104"/>
     <use style="fill:#d73027;stroke:#d73027;" x="183.6" xlink:href="#m015b4ece84" y="92.950104"/>
     <use style="fill:#d73027;stroke:#d73027;" x="189.18" xlink:href="#m015b4ece84" y="92.950104"/>
     <use style="fill:#d73027;stroke:#d73027;" x="194.76" xlink:href="#m015b4ece84" y="93.010919"/>
     <use style="fill:#d73027;stroke:#d73027;" x="200.34" xlink:href="#m015b4ece84" y="300.695784"/>
     <use style="fill:#d73027;stroke:#d73027;" x="205.92" xlink:href="#m015b4ece84" y="320.4"/>
     <use style="fill:#d73027;stroke:#d73027;" x="211.5" xlink:href="#m015b4ece84" y="320.4"/>
     <use style="fill:#d73027;stroke:#d73027;" x="217.08" xlink:href="#m015b4ece84" y="320.4"/>
     <use style="fill:#d73027;stroke:#d73027;" x="222.66" xlink:href="#m015b4ece84" y="112.471873"/>
     <use style="fill:#d73027;stroke:#d73027;" x="228.24" xlink:href="#m015b4ece84" y="92.950104"/>
     <use style="fill:#d73027;stroke:#d73027;" x="233.82" xlink:href="#m015b4ece84" y="93.010919"/>
     <use style="fill:#d73027;stroke:#d73027;" x="239.4" xlink:href="#m015b4ece84" y="92.950104"/>
     <use style="fill:#d73027;stroke:#d73027;" x="244.98" xlink:href="#m015b4ece84" y="92.889288"/>
     <use style="fill:#d73027;stroke:#d73027;" x="250.56" xlink:href="#m015b4ece84" y="221.818106"/>
     <use style="fill:#d73027;stroke:#d73027;" x="256.14" xlink:href="#m015b4ece84" y="320.4"/>
     <use style="fill:#d73027;stroke:#d73027;" x="261.72" xlink:href="#m015b4ece84" y="320.4"/>
     <use style="fill:#d73027;stroke:#d73027;" x="267.3" xlink:href="#m015b4ece84" y="320.4"/>
     <use style="fill:#d73027;stroke:#d73027;" x="272.88" xlink:href="#m015b4ece84" y="191.471182"/>
     <use style="fill:#d73027;stroke:#d73027;" x="278.46" xlink:href="#m015b4ece84" y="92.950104"/>
     <use style="fill:#d73027;stroke:#d73027;" x="284.04" xlink:href="#m015b4ece84" y="92.950104"/>
     <use style="fill:#d73027;stroke:#d73027;" x="289.62" xlink:href="#m015b4ece84" y="92.889288"/>
     <use style="fill:#d73027;stroke:#d73027;" x="295.2" xlink:href="#m015b4ece84" y="93.010919"/>
     <use style="fill:#d73027;stroke:#d73027;" x="300.78" xlink:href="#m015b4ece84" y="142.818798"/>
     <use style="fill:#d73027;stroke:#d73027;" x="306.36" xlink:href="#m015b4ece84" y="320.4"/>
     <use style="fill:#d73027;stroke:#d73027;" x="311.94" xlink:href="#m015b4ece84" y="320.4"/>
     <use style="fill:#d73027;stroke:#d73027;" x="317.52" xlink:href="#m015b4ece84" y="320.4"/>
     <use style="fill:#d73027;stroke:#d73027;" x="323.1" xlink:href="#m015b4ece84" y="270.34886"/>
     <use style="fill:#d73027;stroke:#d73027;" x="328.68" xlink:href="#m015b4ece84" y="92.950104"/>
     <use style="fill:#d73027;stroke:#d73027;" x="334.26" xlink:href="#m015b4ece84" y="92.889288"/>
     <use style="fill:#d73027;stroke:#d73027;" x="339.84" xlink:href="#m015b4ece84" y="93.010919"/>
     <use style="fill:#d73027;stroke:#d73027;" x="345.42" xlink:href="#m015b4ece84" y="92.950104"/>
     <use style="fill:#d73027;stroke:#d73027;" x="351" xlink:href="#m015b4ece84" y="92.950104"/>
     <use style="fill:#d73027;stroke:#d73027;" x="356.58" xlink:href="#m015b4ece84" y="291.391016"/>
     <use style="fill:#d73027;stroke:#d73027;" x="362.16" xlink:href="#m015b4ece84" y="320.4"/>
     <use style="fill:#d73027;stroke:#d73027;" x="367.74" xlink:href="#m015b4ece84" y="320.4"/>
     <use style="fill:#d73027;stroke:#d73027;" x="373.32" xlink:href="#m015b4ece84" y="320.4"/>
     <use style="fill:#d73027;stroke:#d73027;" x="378.9" xlink:href="#m015b4ece84" y="121.776641"/>
     <use style="fill:#d73027;stroke:#d73027;" x="384.48" xlink:href="#m015b4ece84" y="93.375812"/>
     <use style="fill:#d73027;stroke:#d73027;" x="390.06" xlink:href="#m015b4ece84" y="92.950104"/>
     <use style="fill:#d73027;stroke:#d73027;" x="395.64" xlink:href="#m015b4ece84" y="93.13255"/>
     <use style="fill:#d73027;stroke:#d73027;" x="401.22" xlink:href="#m015b4ece84" y="92.950104"/>
     <use style="fill:#d73027;stroke:#d73027;" x="406.8" xlink:href="#m015b4ece84" y="211.905183"/>
     <use style="fill:#d73027;stroke:#d73027;" x="412.38" xlink:href="#m015b4ece84" y="320.4"/>
     <use style="fill:#d73027;stroke:#d73027;" x="417.96" xlink:href="#m015b4ece84" y="320.4"/>
     <use style="fill:#d73027;stroke:#d73027;" x="423.54" xlink:href="#m015b4ece84" y="320.4"/>
     <use style="fill:#d73027;stroke:#d73027;" x="429.12" xlink:href="#m015b4ece84" y="201.262474"/>
     <use style="fill:#d73027;stroke:#d73027;" x="434.7" xlink:href="#m015b4ece84" y="92.950104"/>
     <use style="fill:#d73027;stroke:#d73027;" x="440.28" xlink:href="#m015b4ece84" y="92.950104"/>
     <use style="fill:#d73027;stroke:#d73027;" x="445.86" xlink:href="#m015b4ece84" y="286.343331"/>
     <use style="fill:#d73027;stroke:#d73027;" x="451.44" xlink:href="#m015b4ece84" y="320.4"/>
     <use style="fill:#d73027;stroke:#d73027;" x="457.02" xlink:href="#m015b4ece84" y="320.4"/>
     <use style="fill:#d73027;stroke:#d73027;" x="462.6" xlink:href="#m015b4ece84" y="320.4"/>
     <use style="fill:#d73027;stroke:#d73027;" x="468.18" xlink:href="#m015b4ece84" y="320.4"/>
     <use style="fill:#d73027;stroke:#d73027;" x="473.76" xlink:href="#m015b4ece84" y="320.4"/>
     <use style="fill:#d73027;stroke:#d73027;" x="479.34" xlink:href="#m015b4ece84" y="320.4"/>
     <use style="fill:#d73027;stroke:#d73027;" x="484.92" xlink:href="#m015b4ece84" y="320.4"/>
     <use style="fill:#d73027;stroke:#d73027;" x="490.5" xlink:href="#m015b4ece84" y="320.4"/>
     <use style="fill:#d73027;stroke:#d73027;" x="496.08" xlink:href="#m015b4ece84" y="320.4"/>
     <use style="fill:#d73027;stroke:#d73027;" x="501.66" xlink:href="#m015b4ece84" y="320.4"/>
     <use style="fill:#d73027;stroke:#d73027;" x="507.24" xlink:href="#m015b4ece84" y="320.4"/>
     <use style="fill:#d73027;stroke:#d73027;" x="512.82" xlink:href="#m015b4ece84" y="320.4"/>
     <use style="fill:#d73027;stroke:#d73027;" x="518.4" xlink:href="#m015b4ece84" y="320.4"/>
    </g>
   </g>
   <g id="line2d_21">
    <path clip-path="url(#p7bb67fb4c9)" d="M 72 207.344022 
L 77.58 207.952177 
L 83.16 207.830546 
L 88.74 207.708915 
L 94.32 205.884451 
L 99.9 207.222391 
L 105.48 207.891361 
L 111.06 207.76973 
L 116.64 208.073808 
L 122.22 208.195439 
L 127.8 208.31707 
L 133.38 206.675052 
L 138.96 207.830546 
L 144.54 208.195439 
L 150.12 208.073808 
L 155.7 207.708915 
L 161.28 206.43179 
L 166.86 207.161576 
L 172.44 208.256254 
L 178.02 208.256254 
L 183.6 208.134623 
L 189.18 208.073808 
L 194.76 208.195439 
L 200.34 208.256254 
L 205.92 208.31707 
L 211.5 208.31707 
L 217.08 207.76973 
L 222.66 208.073808 
L 228.24 208.134623 
L 233.82 208.073808 
L 239.4 208.134623 
L 244.98 207.891361 
L 250.56 208.012992 
L 256.14 207.526469 
L 261.72 206.492605 
L 267.3 207.161576 
L 272.88 207.76973 
L 278.46 207.830546 
L 284.04 208.073808 
L 289.62 207.161576 
L 295.2 207.283207 
L 300.78 208.073808 
L 306.36 208.31707 
L 311.94 207.283207 
L 317.52 208.134623 
L 323.1 206.614236 
L 328.68 208.012992 
L 334.26 205.641189 
L 339.84 207.587284 
L 345.42 207.952177 
L 351 207.222391 
L 356.58 207.10076 
L 362.16 208.073808 
L 367.74 208.073808 
L 373.32 208.256254 
L 378.9 208.256254 
L 384.48 207.526469 
L 390.06 208.195439 
L 395.64 208.134623 
L 401.22 208.195439 
L 406.8 207.952177 
L 412.38 206.249343 
L 417.96 206.43179 
L 423.54 205.702004 
L 429.12 206.249343 
L 434.7 206.796683 
L 440.28 206.918314 
L 445.86 207.526469 
L 451.44 206.553421 
L 457.02 206.006082 
L 462.6 205.945266 
L 468.18 205.945266 
L 473.76 205.945266 
L 479.34 205.945266 
L 484.92 205.945266 
L 490.5 205.884451 
L 496.08 205.945266 
L 501.66 205.884451 
L 507.24 205.945266 
L 512.82 238.968072 
L 518.4 320.4 
" style="fill:none;stroke:#f46d43;stroke-dasharray:7.4,3.2;stroke-dashoffset:0;stroke-width:2;"/>
    <defs>
     <path d="M 0 3 
C 0.795609 3 1.55874 2.683901 2.12132 2.12132 
C 2.683901 1.55874 3 0.795609 3 0 
C 3 -0.795609 2.683901 -1.55874 2.12132 -2.12132 
C 1.55874 -2.683901 0.795609 -3 0 -3 
C -0.795609 -3 -1.55874 -2.683901 -2.12132 -2.12132 
C -2.683901 -1.55874 -3 -0.795609 -3 0 
C -3 0.795609 -2.683901 1.55874 -2.12132 2.12132 
C -1.55874 2.683901 -0.795609 3 0 3 
z
" id="m67af4c9744" style="stroke:#f46d43;"/>
    </defs>
    <g clip-path="url(#p7bb67fb4c9)">
     <use style="fill:#f46d43;stroke:#f46d43;" x="72" xlink:href="#m67af4c9744" y="207.344022"/>
     <use style="fill:#f46d43;stroke:#f46d43;" x="77.58" xlink:href="#m67af4c9744" y="207.952177"/>
     <use style="fill:#f46d43;stroke:#f46d43;" x="83.16" xlink:href="#m67af4c9744" y="207.830546"/>
     <use style="fill:#f46d43;stroke:#f46d43;" x="88.74" xlink:href="#m67af4c9744" y="207.708915"/>
     <use style="fill:#f46d43;stroke:#f46d43;" x="94.32" xlink:href="#m67af4c9744" y="205.884451"/>
     <use style="fill:#f46d43;stroke:#f46d43;" x="99.9" xlink:href="#m67af4c9744" y="207.222391"/>
     <use style="fill:#f46d43;stroke:#f46d43;" x="105.48" xlink:href="#m67af4c9744" y="207.891361"/>
     <use style="fill:#f46d43;stroke:#f46d43;" x="111.06" xlink:href="#m67af4c9744" y="207.76973"/>
     <use style="fill:#f46d43;stroke:#f46d43;" x="116.64" xlink:href="#m67af4c9744" y="208.073808"/>
     <use style="fill:#f46d43;stroke:#f46d43;" x="122.22" xlink:href="#m67af4c9744" y="208.195439"/>
     <use style="fill:#f46d43;stroke:#f46d43;" x="127.8" xlink:href="#m67af4c9744" y="208.31707"/>
     <use style="fill:#f46d43;stroke:#f46d43;" x="133.38" xlink:href="#m67af4c9744" y="206.675052"/>
     <use style="fill:#f46d43;stroke:#f46d43;" x="138.96" xlink:href="#m67af4c9744" y="207.830546"/>
     <use style="fill:#f46d43;stroke:#f46d43;" x="144.54" xlink:href="#m67af4c9744" y="208.195439"/>
     <use style="fill:#f46d43;stroke:#f46d43;" x="150.12" xlink:href="#m67af4c9744" y="208.073808"/>
     <use style="fill:#f46d43;stroke:#f46d43;" x="155.7" xlink:href="#m67af4c9744" y="207.708915"/>
     <use style="fill:#f46d43;stroke:#f46d43;" x="161.28" xlink:href="#m67af4c9744" y="206.43179"/>
     <use style="fill:#f46d43;stroke:#f46d43;" x="166.86" xlink:href="#m67af4c9744" y="207.161576"/>
     <use style="fill:#f46d43;stroke:#f46d43;" x="172.44" xlink:href="#m67af4c9744" y="208.256254"/>
     <use style="fill:#f46d43;stroke:#f46d43;" x="178.02" xlink:href="#m67af4c9744" y="208.256254"/>
     <use style="fill:#f46d43;stroke:#f46d43;" x="183.6" xlink:href="#m67af4c9744" y="208.134623"/>
     <use style="fill:#f46d43;stroke:#f46d43;" x="189.18" xlink:href="#m67af4c9744" y="208.073808"/>
     <use style="fill:#f46d43;stroke:#f46d43;" x="194.76" xlink:href="#m67af4c9744" y="208.195439"/>
     <use style="fill:#f46d43;stroke:#f46d43;" x="200.34" xlink:href="#m67af4c9744" y="208.256254"/>
     <use style="fill:#f46d43;stroke:#f46d43;" x="205.92" xlink:href="#m67af4c9744" y="208.31707"/>
     <use style="fill:#f46d43;stroke:#f46d43;" x="211.5" xlink:href="#m67af4c9744" y="208.31707"/>
     <use style="fill:#f46d43;stroke:#f46d43;" x="217.08" xlink:href="#m67af4c9744" y="207.76973"/>
     <use style="fill:#f46d43;stroke:#f46d43;" x="222.66" xlink:href="#m67af4c9744" y="208.073808"/>
     <use style="fill:#f46d43;stroke:#f46d43;" x="228.24" xlink:href="#m67af4c9744" y="208.134623"/>
     <use style="fill:#f46d43;stroke:#f46d43;" x="233.82" xlink:href="#m67af4c9744" y="208.073808"/>
     <use style="fill:#f46d43;stroke:#f46d43;" x="239.4" xlink:href="#m67af4c9744" y="208.134623"/>
     <use style="fill:#f46d43;stroke:#f46d43;" x="244.98" xlink:href="#m67af4c9744" y="207.891361"/>
     <use style="fill:#f46d43;stroke:#f46d43;" x="250.56" xlink:href="#m67af4c9744" y="208.012992"/>
     <use style="fill:#f46d43;stroke:#f46d43;" x="256.14" xlink:href="#m67af4c9744" y="207.526469"/>
     <use style="fill:#f46d43;stroke:#f46d43;" x="261.72" xlink:href="#m67af4c9744" y="206.492605"/>
     <use style="fill:#f46d43;stroke:#f46d43;" x="267.3" xlink:href="#m67af4c9744" y="207.161576"/>
     <use style="fill:#f46d43;stroke:#f46d43;" x="272.88" xlink:href="#m67af4c9744" y="207.76973"/>
     <use style="fill:#f46d43;stroke:#f46d43;" x="278.46" xlink:href="#m67af4c9744" y="207.830546"/>
     <use style="fill:#f46d43;stroke:#f46d43;" x="284.04" xlink:href="#m67af4c9744" y="208.073808"/>
     <use style="fill:#f46d43;stroke:#f46d43;" x="289.62" xlink:href="#m67af4c9744" y="207.161576"/>
     <use style="fill:#f46d43;stroke:#f46d43;" x="295.2" xlink:href="#m67af4c9744" y="207.283207"/>
     <use style="fill:#f46d43;stroke:#f46d43;" x="300.78" xlink:href="#m67af4c9744" y="208.073808"/>
     <use style="fill:#f46d43;stroke:#f46d43;" x="306.36" xlink:href="#m67af4c9744" y="208.31707"/>
     <use style="fill:#f46d43;stroke:#f46d43;" x="311.94" xlink:href="#m67af4c9744" y="207.283207"/>
     <use style="fill:#f46d43;stroke:#f46d43;" x="317.52" xlink:href="#m67af4c9744" y="208.134623"/>
     <use style="fill:#f46d43;stroke:#f46d43;" x="323.1" xlink:href="#m67af4c9744" y="206.614236"/>
     <use style="fill:#f46d43;stroke:#f46d43;" x="328.68" xlink:href="#m67af4c9744" y="208.012992"/>
     <use style="fill:#f46d43;stroke:#f46d43;" x="334.26" xlink:href="#m67af4c9744" y="205.641189"/>
     <use style="fill:#f46d43;stroke:#f46d43;" x="339.84" xlink:href="#m67af4c9744" y="207.587284"/>
     <use style="fill:#f46d43;stroke:#f46d43;" x="345.42" xlink:href="#m67af4c9744" y="207.952177"/>
     <use style="fill:#f46d43;stroke:#f46d43;" x="351" xlink:href="#m67af4c9744" y="207.222391"/>
     <use style="fill:#f46d43;stroke:#f46d43;" x="356.58" xlink:href="#m67af4c9744" y="207.10076"/>
     <use style="fill:#f46d43;stroke:#f46d43;" x="362.16" xlink:href="#m67af4c9744" y="208.073808"/>
     <use style="fill:#f46d43;stroke:#f46d43;" x="367.74" xlink:href="#m67af4c9744" y="208.073808"/>
     <use style="fill:#f46d43;stroke:#f46d43;" x="373.32" xlink:href="#m67af4c9744" y="208.256254"/>
     <use style="fill:#f46d43;stroke:#f46d43;" x="378.9" xlink:href="#m67af4c9744" y="208.256254"/>
     <use style="fill:#f46d43;stroke:#f46d43;" x="384.48" xlink:href="#m67af4c9744" y="207.526469"/>
     <use style="fill:#f46d43;stroke:#f46d43;" x="390.06" xlink:href="#m67af4c9744" y="208.195439"/>
     <use style="fill:#f46d43;stroke:#f46d43;" x="395.64" xlink:href="#m67af4c9744" y="208.134623"/>
     <use style="fill:#f46d43;stroke:#f46d43;" x="401.22" xlink:href="#m67af4c9744" y="208.195439"/>
     <use style="fill:#f46d43;stroke:#f46d43;" x="406.8" xlink:href="#m67af4c9744" y="207.952177"/>
     <use style="fill:#f46d43;stroke:#f46d43;" x="412.38" xlink:href="#m67af4c9744" y="206.249343"/>
     <use style="fill:#f46d43;stroke:#f46d43;" x="417.96" xlink:href="#m67af4c9744" y="206.43179"/>
     <use style="fill:#f46d43;stroke:#f46d43;" x="423.54" xlink:href="#m67af4c9744" y="205.702004"/>
     <use style="fill:#f46d43;stroke:#f46d43;" x="429.12" xlink:href="#m67af4c9744" y="206.249343"/>
     <use style="fill:#f46d43;stroke:#f46d43;" x="434.7" xlink:href="#m67af4c9744" y="206.796683"/>
     <use style="fill:#f46d43;stroke:#f46d43;" x="440.28" xlink:href="#m67af4c9744" y="206.918314"/>
     <use style="fill:#f46d43;stroke:#f46d43;" x="445.86" xlink:href="#m67af4c9744" y="207.526469"/>
     <use style="fill:#f46d43;stroke:#f46d43;" x="451.44" xlink:href="#m67af4c9744" y="206.553421"/>
     <use style="fill:#f46d43;stroke:#f46d43;" x="457.02" xlink:href="#m67af4c9744" y="206.006082"/>
     <use style="fill:#f46d43;stroke:#f46d43;" x="462.6" xlink:href="#m67af4c9744" y="205.945266"/>
     <use style="fill:#f46d43;stroke:#f46d43;" x="468.18" xlink:href="#m67af4c9744" y="205.945266"/>
     <use style="fill:#f46d43;stroke:#f46d43;" x="473.76" xlink:href="#m67af4c9744" y="205.945266"/>
     <use style="fill:#f46d43;stroke:#f46d43;" x="479.34" xlink:href="#m67af4c9744" y="205.945266"/>
     <use style="fill:#f46d43;stroke:#f46d43;" x="484.92" xlink:href="#m67af4c9744" y="205.945266"/>
     <use style="fill:#f46d43;stroke:#f46d43;" x="490.5" xlink:href="#m67af4c9744" y="205.884451"/>
     <use style="fill:#f46d43;stroke:#f46d43;" x="496.08" xlink:href="#m67af4c9744" y="205.945266"/>
     <use style="fill:#f46d43;stroke:#f46d43;" x="501.66" xlink:href="#m67af4c9744" y="205.884451"/>
     <use style="fill:#f46d43;stroke:#f46d43;" x="507.24" xlink:href="#m67af4c9744" y="205.945266"/>
     <use style="fill:#f46d43;stroke:#f46d43;" x="512.82" xlink:href="#m67af4c9744" y="238.968072"/>
     <use style="fill:#f46d43;stroke:#f46d43;" x="518.4" xlink:href="#m67af4c9744" y="320.4"/>
    </g>
   </g>
   <g id="line2d_22">
    <path clip-path="url(#p7bb67fb4c9)" d="M 72 282.755218 
L 77.58 282.876849 
L 83.16 282.876849 
L 88.74 282.876849 
L 94.32 147.379959 
L 99.9 57.129786 
L 105.48 57.008155 
L 111.06 56.886524 
L 116.64 194.937664 
L 122.22 283.606634 
L 127.8 283.363372 
L 133.38 284.458051 
L 138.96 284.214789 
L 144.54 224.433172 
L 150.12 56.643262 
L 155.7 56.947339 
L 161.28 59.501589 
L 166.86 118.857498 
L 172.44 284.093158 
L 178.02 283.910712 
L 183.6 283.66745 
L 189.18 283.606634 
L 194.76 284.640498 
L 200.34 76.408293 
L 205.92 56.460815 
L 211.5 56.4 
L 217.08 56.764893 
L 222.66 263.963234 
L 228.24 283.545819 
L 233.82 283.971527 
L 239.4 283.66745 
L 244.98 284.640498 
L 250.56 155.711679 
L 256.14 57.555494 
L 261.72 58.467726 
L 267.3 57.859572 
L 272.88 185.268003 
L 278.46 284.275605 
L 284.04 283.241742 
L 289.62 283.485003 
L 295.2 284.153974 
L 300.78 234.042018 
L 306.36 56.582446 
L 311.94 57.373048 
L 317.52 56.582446 
L 323.1 108.579682 
L 328.68 282.937664 
L 334.26 285.127021 
L 339.84 284.032343 
L 345.42 283.485003 
L 351 284.944575 
L 356.58 85.956323 
L 362.16 57.61631 
L 367.74 57.251417 
L 373.32 56.947339 
L 378.9 255.388252 
L 384.48 285.674361 
L 390.06 284.275605 
L 395.64 283.363372 
L 401.22 282.937664 
L 406.8 164.773186 
L 412.38 60.048929 
L 417.96 58.832619 
L 423.54 59.136697 
L 429.12 177.483621 
L 434.7 285.187837 
L 440.28 285.248652 
L 445.86 91.186455 
L 451.44 245.536144 
L 457.02 320.4 
L 462.6 320.4 
L 468.18 320.4 
L 473.76 320.4 
L 479.34 320.4 
L 484.92 320.4 
L 490.5 320.4 
L 496.08 320.4 
L 501.66 320.4 
L 507.24 320.4 
L 512.82 320.4 
L 518.4 320.4 
" style="fill:none;stroke:#2c7bb6;stroke-dasharray:12.8,3.2,2,3.2;stroke-dashoffset:0;stroke-width:2;"/>
    <defs>
     <path d="M 3 0 
L -3 -3 
L -3 3 
z
" id="m7754393ecd" style="stroke:#2c7bb6;stroke-linejoin:miter;"/>
    </defs>
    <g clip-path="url(#p7bb67fb4c9)">
     <use style="fill:#2c7bb6;stroke:#2c7bb6;stroke-linejoin:miter;" x="72" xlink:href="#m7754393ecd" y="282.755218"/>
     <use style="fill:#2c7bb6;stroke:#2c7bb6;stroke-linejoin:miter;" x="77.58" xlink:href="#m7754393ecd" y="282.876849"/>
     <use style="fill:#2c7bb6;stroke:#2c7bb6;stroke-linejoin:miter;" x="83.16" xlink:href="#m7754393ecd" y="282.876849"/>
     <use style="fill:#2c7bb6;stroke:#2c7bb6;stroke-linejoin:miter;" x="88.74" xlink:href="#m7754393ecd" y="282.876849"/>
     <use style="fill:#2c7bb6;stroke:#2c7bb6;stroke-linejoin:miter;" x="94.32" xlink:href="#m7754393ecd" y="147.379959"/>
     <use style="fill:#2c7bb6;stroke:#2c7bb6;stroke-linejoin:miter;" x="99.9" xlink:href="#m7754393ecd" y="57.129786"/>
     <use style="fill:#2c7bb6;stroke:#2c7bb6;stroke-linejoin:miter;" x="105.48" xlink:href="#m7754393ecd" y="57.008155"/>
     <use style="fill:#2c7bb6;stroke:#2c7bb6;stroke-linejoin:miter;" x="111.06" xlink:href="#m7754393ecd" y="56.886524"/>
     <use style="fill:#2c7bb6;stroke:#2c7bb6;stroke-linejoin:miter;" x="116.64" xlink:href="#m7754393ecd" y="194.937664"/>
     <use style="fill:#2c7bb6;stroke:#2c7bb6;stroke-linejoin:miter;" x="122.22" xlink:href="#m7754393ecd" y="283.606634"/>
     <use style="fill:#2c7bb6;stroke:#2c7bb6;stroke-linejoin:miter;" x="127.8" xlink:href="#m7754393ecd" y="283.363372"/>
     <use style="fill:#2c7bb6;stroke:#2c7bb6;stroke-linejoin:miter;" x="133.38" xlink:href="#m7754393ecd" y="284.458051"/>
     <use style="fill:#2c7bb6;stroke:#2c7bb6;stroke-linejoin:miter;" x="138.96" xlink:href="#m7754393ecd" y="284.214789"/>
     <use style="fill:#2c7bb6;stroke:#2c7bb6;stroke-linejoin:miter;" x="144.54" xlink:href="#m7754393ecd" y="224.433172"/>
     <use style="fill:#2c7bb6;stroke:#2c7bb6;stroke-linejoin:miter;" x="150.12" xlink:href="#m7754393ecd" y="56.643262"/>
     <use style="fill:#2c7bb6;stroke:#2c7bb6;stroke-linejoin:miter;" x="155.7" xlink:href="#m7754393ecd" y="56.947339"/>
     <use style="fill:#2c7bb6;stroke:#2c7bb6;stroke-linejoin:miter;" x="161.28" xlink:href="#m7754393ecd" y="59.501589"/>
     <use style="fill:#2c7bb6;stroke:#2c7bb6;stroke-linejoin:miter;" x="166.86" xlink:href="#m7754393ecd" y="118.857498"/>
     <use style="fill:#2c7bb6;stroke:#2c7bb6;stroke-linejoin:miter;" x="172.44" xlink:href="#m7754393ecd" y="284.093158"/>
     <use style="fill:#2c7bb6;stroke:#2c7bb6;stroke-linejoin:miter;" x="178.02" xlink:href="#m7754393ecd" y="283.910712"/>
     <use style="fill:#2c7bb6;stroke:#2c7bb6;stroke-linejoin:miter;" x="183.6" xlink:href="#m7754393ecd" y="283.66745"/>
     <use style="fill:#2c7bb6;stroke:#2c7bb6;stroke-linejoin:miter;" x="189.18" xlink:href="#m7754393ecd" y="283.606634"/>
     <use style="fill:#2c7bb6;stroke:#2c7bb6;stroke-linejoin:miter;" x="194.76" xlink:href="#m7754393ecd" y="284.640498"/>
     <use style="fill:#2c7bb6;stroke:#2c7bb6;stroke-linejoin:miter;" x="200.34" xlink:href="#m7754393ecd" y="76.408293"/>
     <use style="fill:#2c7bb6;stroke:#2c7bb6;stroke-linejoin:miter;" x="205.92" xlink:href="#m7754393ecd" y="56.460815"/>
     <use style="fill:#2c7bb6;stroke:#2c7bb6;stroke-linejoin:miter;" x="211.5" xlink:href="#m7754393ecd" y="56.4"/>
     <use style="fill:#2c7bb6;stroke:#2c7bb6;stroke-linejoin:miter;" x="217.08" xlink:href="#m7754393ecd" y="56.764893"/>
     <use style="fill:#2c7bb6;stroke:#2c7bb6;stroke-linejoin:miter;" x="222.66" xlink:href="#m7754393ecd" y="263.963234"/>
     <use style="fill:#2c7bb6;stroke:#2c7bb6;stroke-linejoin:miter;" x="228.24" xlink:href="#m7754393ecd" y="283.545819"/>
     <use style="fill:#2c7bb6;stroke:#2c7bb6;stroke-linejoin:miter;" x="233.82" xlink:href="#m7754393ecd" y="283.971527"/>
     <use style="fill:#2c7bb6;stroke:#2c7bb6;stroke-linejoin:miter;" x="239.4" xlink:href="#m7754393ecd" y="283.66745"/>
     <use style="fill:#2c7bb6;stroke:#2c7bb6;stroke-linejoin:miter;" x="244.98" xlink:href="#m7754393ecd" y="284.640498"/>
     <use style="fill:#2c7bb6;stroke:#2c7bb6;stroke-linejoin:miter;" x="250.56" xlink:href="#m7754393ecd" y="155.711679"/>
     <use style="fill:#2c7bb6;stroke:#2c7bb6;stroke-linejoin:miter;" x="256.14" xlink:href="#m7754393ecd" y="57.555494"/>
     <use style="fill:#2c7bb6;stroke:#2c7bb6;stroke-linejoin:miter;" x="261.72" xlink:href="#m7754393ecd" y="58.467726"/>
     <use style="fill:#2c7bb6;stroke:#2c7bb6;stroke-linejoin:miter;" x="267.3" xlink:href="#m7754393ecd" y="57.859572"/>
     <use style="fill:#2c7bb6;stroke:#2c7bb6;stroke-linejoin:miter;" x="272.88" xlink:href="#m7754393ecd" y="185.268003"/>
     <use style="fill:#2c7bb6;stroke:#2c7bb6;stroke-linejoin:miter;" x="278.46" xlink:href="#m7754393ecd" y="284.275605"/>
     <use style="fill:#2c7bb6;stroke:#2c7bb6;stroke-linejoin:miter;" x="284.04" xlink:href="#m7754393ecd" y="283.241742"/>
     <use style="fill:#2c7bb6;stroke:#2c7bb6;stroke-linejoin:miter;" x="289.62" xlink:href="#m7754393ecd" y="283.485003"/>
     <use style="fill:#2c7bb6;stroke:#2c7bb6;stroke-linejoin:miter;" x="295.2" xlink:href="#m7754393ecd" y="284.153974"/>
     <use style="fill:#2c7bb6;stroke:#2c7bb6;stroke-linejoin:miter;" x="300.78" xlink:href="#m7754393ecd" y="234.042018"/>
     <use style="fill:#2c7bb6;stroke:#2c7bb6;stroke-linejoin:miter;" x="306.36" xlink:href="#m7754393ecd" y="56.582446"/>
     <use style="fill:#2c7bb6;stroke:#2c7bb6;stroke-linejoin:miter;" x="311.94" xlink:href="#m7754393ecd" y="57.373048"/>
     <use style="fill:#2c7bb6;stroke:#2c7bb6;stroke-linejoin:miter;" x="317.52" xlink:href="#m7754393ecd" y="56.582446"/>
     <use style="fill:#2c7bb6;stroke:#2c7bb6;stroke-linejoin:miter;" x="323.1" xlink:href="#m7754393ecd" y="108.579682"/>
     <use style="fill:#2c7bb6;stroke:#2c7bb6;stroke-linejoin:miter;" x="328.68" xlink:href="#m7754393ecd" y="282.937664"/>
     <use style="fill:#2c7bb6;stroke:#2c7bb6;stroke-linejoin:miter;" x="334.26" xlink:href="#m7754393ecd" y="285.127021"/>
     <use style="fill:#2c7bb6;stroke:#2c7bb6;stroke-linejoin:miter;" x="339.84" xlink:href="#m7754393ecd" y="284.032343"/>
     <use style="fill:#2c7bb6;stroke:#2c7bb6;stroke-linejoin:miter;" x="345.42" xlink:href="#m7754393ecd" y="283.485003"/>
     <use style="fill:#2c7bb6;stroke:#2c7bb6;stroke-linejoin:miter;" x="351" xlink:href="#m7754393ecd" y="284.944575"/>
     <use style="fill:#2c7bb6;stroke:#2c7bb6;stroke-linejoin:miter;" x="356.58" xlink:href="#m7754393ecd" y="85.956323"/>
     <use style="fill:#2c7bb6;stroke:#2c7bb6;stroke-linejoin:miter;" x="362.16" xlink:href="#m7754393ecd" y="57.61631"/>
     <use style="fill:#2c7bb6;stroke:#2c7bb6;stroke-linejoin:miter;" x="367.74" xlink:href="#m7754393ecd" y="57.251417"/>
     <use style="fill:#2c7bb6;stroke:#2c7bb6;stroke-linejoin:miter;" x="373.32" xlink:href="#m7754393ecd" y="56.947339"/>
     <use style="fill:#2c7bb6;stroke:#2c7bb6;stroke-linejoin:miter;" x="378.9" xlink:href="#m7754393ecd" y="255.388252"/>
     <use style="fill:#2c7bb6;stroke:#2c7bb6;stroke-linejoin:miter;" x="384.48" xlink:href="#m7754393ecd" y="285.674361"/>
     <use style="fill:#2c7bb6;stroke:#2c7bb6;stroke-linejoin:miter;" x="390.06" xlink:href="#m7754393ecd" y="284.275605"/>
     <use style="fill:#2c7bb6;stroke:#2c7bb6;stroke-linejoin:miter;" x="395.64" xlink:href="#m7754393ecd" y="283.363372"/>
     <use style="fill:#2c7bb6;stroke:#2c7bb6;stroke-linejoin:miter;" x="401.22" xlink:href="#m7754393ecd" y="282.937664"/>
     <use style="fill:#2c7bb6;stroke:#2c7bb6;stroke-linejoin:miter;" x="406.8" xlink:href="#m7754393ecd" y="164.773186"/>
     <use style="fill:#2c7bb6;stroke:#2c7bb6;stroke-linejoin:miter;" x="412.38" xlink:href="#m7754393ecd" y="60.048929"/>
     <use style="fill:#2c7bb6;stroke:#2c7bb6;stroke-linejoin:miter;" x="417.96" xlink:href="#m7754393ecd" y="58.832619"/>
     <use style="fill:#2c7bb6;stroke:#2c7bb6;stroke-linejoin:miter;" x="423.54" xlink:href="#m7754393ecd" y="59.136697"/>
     <use style="fill:#2c7bb6;stroke:#2c7bb6;stroke-linejoin:miter;" x="429.12" xlink:href="#m7754393ecd" y="177.483621"/>
     <use style="fill:#2c7bb6;stroke:#2c7bb6;stroke-linejoin:miter;" x="434.7" xlink:href="#m7754393ecd" y="285.187837"/>
     <use style="fill:#2c7bb6;stroke:#2c7bb6;stroke-linejoin:miter;" x="440.28" xlink:href="#m7754393ecd" y="285.248652"/>
     <use style="fill:#2c7bb6;stroke:#2c7bb6;stroke-linejoin:miter;" x="445.86" xlink:href="#m7754393ecd" y="91.186455"/>
     <use style="fill:#2c7bb6;stroke:#2c7bb6;stroke-linejoin:miter;" x="451.44" xlink:href="#m7754393ecd" y="245.536144"/>
     <use style="fill:#2c7bb6;stroke:#2c7bb6;stroke-linejoin:miter;" x="457.02" xlink:href="#m7754393ecd" y="320.4"/>
     <use style="fill:#2c7bb6;stroke:#2c7bb6;stroke-linejoin:miter;" x="462.6" xlink:href="#m7754393ecd" y="320.4"/>
     <use style="fill:#2c7bb6;stroke:#2c7bb6;stroke-linejoin:miter;" x="468.18" xlink:href="#m7754393ecd" y="320.4"/>
     <use style="fill:#2c7bb6;stroke:#2c7bb6;stroke-linejoin:miter;" x="473.76" xlink:href="#m7754393ecd" y="320.4"/>
     <use style="fill:#2c7bb6;stroke:#2c7bb6;stroke-linejoin:miter;" x="479.34" xlink:href="#m7754393ecd" y="320.4"/>
     <use style="fill:#2c7bb6;stroke:#2c7bb6;stroke-linejoin:miter;" x="484.92" xlink:href="#m7754393ecd" y="320.4"/>
     <use style="fill:#2c7bb6;stroke:#2c7bb6;stroke-linejoin:miter;" x="490.5" xlink:href="#m7754393ecd" y="320.4"/>
     <use style="fill:#2c7bb6;stroke:#2c7bb6;stroke-linejoin:miter;" x="496.08" xlink:href="#m7754393ecd" y="320.4"/>
     <use style="fill:#2c7bb6;stroke:#2c7bb6;stroke-linejoin:miter;" x="501.66" xlink:href="#m7754393ecd" y="320.4"/>
     <use style="fill:#2c7bb6;stroke:#2c7bb6;stroke-linejoin:miter;" x="507.24" xlink:href="#m7754393ecd" y="320.4"/>
     <use style="fill:#2c7bb6;stroke:#2c7bb6;stroke-linejoin:miter;" x="512.82" xlink:href="#m7754393ecd" y="320.4"/>
     <use style="fill:#2c7bb6;stroke:#2c7bb6;stroke-linejoin:miter;" x="518.4" xlink:href="#m7754393ecd" y="320.4"/>
    </g>
   </g>
   <g id="patch_3">
    <path d="M 72 320.4 
L 72 43.2 
" style="fill:none;stroke:#000000;stroke-linecap:square;stroke-linejoin:miter;stroke-width:0.8;"/>
   </g>
   <g id="patch_4">
    <path d="M 518.4 320.4 
L 518.4 43.2 
" style="fill:none;stroke:#000000;stroke-linecap:square;stroke-linejoin:miter;stroke-width:0.8;"/>
   </g>
   <g id="patch_5">
    <path d="M 72 320.4 
L 518.4 320.4 
" style="fill:none;stroke:#000000;stroke-linecap:square;stroke-linejoin:miter;stroke-width:0.8;"/>
   </g>
   <g id="patch_6">
    <path d="M 72 43.2 
L 518.4 43.2 
" style="fill:none;stroke:#000000;stroke-linecap:square;stroke-linejoin:miter;stroke-width:0.8;"/>
   </g>
   <g id="legend_1">
    <g id="patch_7">
     <path d="M 88.22625 78.6225 
L 502.17375 78.6225 
Q 505.37375 78.6225 505.37375 75.4225 
L 505.37375 54.4 
Q 505.37375 51.2 502.17375 51.2 
L 88.22625 51.2 
Q 85.02625 51.2 85.02625 54.4 
L 85.02625 75.4225 
Q 85.02625 78.6225 88.22625 78.6225 
z
" style="fill:#ffffff;opacity:0.8;stroke:#cccccc;stroke-linejoin:miter;"/>
    </g>
    <g id="line2d_23">
     <path d="M 91.42625 63.2 
L 123.42625 63.2 
" style="fill:none;stroke:#d73027;stroke-linecap:square;stroke-width:2;"/>
    </g>
    <g id="line2d_24">
     <g>
      <use style="fill:#d73027;stroke:#d73027;" x="107.42625" xlink:href="#m015b4ece84" y="63.2"/>
     </g>
    </g>
    <g id="text_17">
     <!-- B, limit=4000 -->
     <g transform="translate(136.22625 68.8)scale(0.16 -0.16)">
      <defs>
       <path d="M 2956 2163 
Q 3397 2069 3616 1863 
Q 3919 1575 3919 1159 
Q 3919 844 3719 555 
Q 3519 266 3170 133 
Q 2822 0 2106 0 
L 106 0 
L 106 116 
L 266 116 
Q 531 116 647 284 
Q 719 394 719 750 
L 719 3488 
Q 719 3881 628 3984 
Q 506 4122 266 4122 
L 106 4122 
L 106 4238 
L 1938 4238 
Q 2450 4238 2759 4163 
Q 3228 4050 3475 3764 
Q 3722 3478 3722 3106 
Q 3722 2788 3528 2536 
Q 3334 2284 2956 2163 
z
M 1319 2331 
Q 1434 2309 1582 2298 
Q 1731 2288 1909 2288 
Q 2366 2288 2595 2386 
Q 2825 2484 2947 2687 
Q 3069 2891 3069 3131 
Q 3069 3503 2766 3765 
Q 2463 4028 1881 4028 
Q 1569 4028 1319 3959 
L 1319 2331 
z
M 1319 306 
Q 1681 222 2034 222 
Q 2600 222 2897 476 
Q 3194 731 3194 1106 
Q 3194 1353 3059 1581 
Q 2925 1809 2622 1940 
Q 2319 2072 1872 2072 
Q 1678 2072 1540 2065 
Q 1403 2059 1319 2044 
L 1319 306 
z
" id="TimesNewRomanPSMT-42" transform="scale(0.015625)"/>
       <path d="M 344 -1066 
L 344 -928 
Q 666 -822 842 -598 
Q 1019 -375 1019 -125 
Q 1019 -66 991 -25 
Q 969 3 947 3 
Q 913 3 797 -59 
Q 741 -88 678 -88 
Q 525 -88 434 3 
Q 344 94 344 253 
Q 344 406 461 515 
Q 578 625 747 625 
Q 953 625 1114 445 
Q 1275 266 1275 -31 
Q 1275 -353 1051 -629 
Q 828 -906 344 -1066 
z
" id="TimesNewRomanPSMT-2c" transform="scale(0.015625)"/>
       <path d="M 1184 4444 
L 1184 647 
Q 1184 378 1223 290 
Q 1263 203 1344 158 
Q 1425 113 1647 113 
L 1647 0 
L 244 0 
L 244 113 
Q 441 113 512 153 
Q 584 194 625 287 
Q 666 381 666 647 
L 666 3247 
Q 666 3731 644 3842 
Q 622 3953 573 3993 
Q 525 4034 450 4034 
Q 369 4034 244 3984 
L 191 4094 
L 1044 4444 
L 1184 4444 
z
" id="TimesNewRomanPSMT-6c" transform="scale(0.015625)"/>
       <path d="M 1031 3803 
L 1031 2863 
L 1700 2863 
L 1700 2644 
L 1031 2644 
L 1031 788 
Q 1031 509 1111 412 
Q 1191 316 1316 316 
Q 1419 316 1516 380 
Q 1613 444 1666 569 
L 1788 569 
Q 1678 263 1478 108 
Q 1278 -47 1066 -47 
Q 922 -47 784 33 
Q 647 113 581 261 
Q 516 409 516 719 
L 516 2644 
L 63 2644 
L 63 2747 
Q 234 2816 414 2980 
Q 594 3144 734 3369 
Q 806 3488 934 3803 
L 1031 3803 
z
" id="TimesNewRomanPSMT-74" transform="scale(0.015625)"/>
       <path d="M 116 2759 
L 3488 2759 
L 3488 2503 
L 116 2503 
L 116 2759 
z
M 116 1741 
L 3488 1741 
L 3488 1484 
L 116 1484 
L 116 1741 
z
" id="TimesNewRomanPSMT-3d" transform="scale(0.015625)"/>
      </defs>
      <use xlink:href="#TimesNewRomanPSMT-42"/>
      <use x="66.699219" xlink:href="#TimesNewRomanPSMT-2c"/>
      <use x="91.699219" xlink:href="#TimesNewRomanPSMT-20"/>
      <use x="116.699219" xlink:href="#TimesNewRomanPSMT-6c"/>
      <use x="144.482422" xlink:href="#TimesNewRomanPSMT-69"/>
      <use x="172.265625" xlink:href="#TimesNewRomanPSMT-6d"/>
      <use x="250.048828" xlink:href="#TimesNewRomanPSMT-69"/>
      <use x="277.832031" xlink:href="#TimesNewRomanPSMT-74"/>
      <use x="305.615234" xlink:href="#TimesNewRomanPSMT-3d"/>
      <use x="362.011719" xlink:href="#TimesNewRomanPSMT-34"/>
      <use x="412.011719" xlink:href="#TimesNewRomanPSMT-30"/>
      <use x="462.011719" xlink:href="#TimesNewRomanPSMT-30"/>
      <use x="512.011719" xlink:href="#TimesNewRomanPSMT-30"/>
     </g>
    </g>
    <g id="line2d_25">
     <path d="M 258.14625 63.2 
L 290.14625 63.2 
" style="fill:none;stroke:#f46d43;stroke-dasharray:7.4,3.2;stroke-dashoffset:0;stroke-width:2;"/>
    </g>
    <g id="line2d_26">
     <g>
      <use style="fill:#f46d43;stroke:#f46d43;" x="274.14625" xlink:href="#m67af4c9744" y="63.2"/>
     </g>
    </g>
    <g id="text_18">
     <!-- R, rserve=1000 -->
     <g transform="translate(302.94625 68.8)scale(0.16 -0.16)">
      <defs>
       <path d="M 4325 0 
L 3194 0 
L 1759 1981 
Q 1600 1975 1500 1975 
Q 1459 1975 1412 1976 
Q 1366 1978 1316 1981 
L 1316 750 
Q 1316 350 1403 253 
Q 1522 116 1759 116 
L 1925 116 
L 1925 0 
L 109 0 
L 109 116 
L 269 116 
Q 538 116 653 291 
Q 719 388 719 750 
L 719 3488 
Q 719 3888 631 3984 
Q 509 4122 269 4122 
L 109 4122 
L 109 4238 
L 1653 4238 
Q 2328 4238 2648 4139 
Q 2969 4041 3192 3777 
Q 3416 3513 3416 3147 
Q 3416 2756 3161 2468 
Q 2906 2181 2372 2063 
L 3247 847 
Q 3547 428 3762 290 
Q 3978 153 4325 116 
L 4325 0 
z
M 1316 2178 
Q 1375 2178 1419 2176 
Q 1463 2175 1491 2175 
Q 2097 2175 2405 2437 
Q 2713 2700 2713 3106 
Q 2713 3503 2464 3751 
Q 2216 4000 1806 4000 
Q 1625 4000 1316 3941 
L 1316 2178 
z
" id="TimesNewRomanPSMT-52" transform="scale(0.015625)"/>
       <path d="M 1038 2947 
L 1038 2303 
Q 1397 2947 1775 2947 
Q 1947 2947 2059 2842 
Q 2172 2738 2172 2600 
Q 2172 2478 2090 2393 
Q 2009 2309 1897 2309 
Q 1788 2309 1652 2417 
Q 1516 2525 1450 2525 
Q 1394 2525 1328 2463 
Q 1188 2334 1038 2041 
L 1038 669 
Q 1038 431 1097 309 
Q 1138 225 1241 169 
Q 1344 113 1538 113 
L 1538 0 
L 72 0 
L 72 113 
Q 291 113 397 181 
Q 475 231 506 341 
Q 522 394 522 644 
L 522 1753 
Q 522 2253 501 2348 
Q 481 2444 426 2487 
Q 372 2531 291 2531 
Q 194 2531 72 2484 
L 41 2597 
L 906 2947 
L 1038 2947 
z
" id="TimesNewRomanPSMT-72" transform="scale(0.015625)"/>
       <path d="M 53 2863 
L 1400 2863 
L 1400 2747 
L 1313 2747 
Q 1191 2747 1127 2687 
Q 1063 2628 1063 2528 
Q 1063 2419 1128 2269 
L 1794 688 
L 2463 2328 
Q 2534 2503 2534 2594 
Q 2534 2638 2509 2666 
Q 2475 2713 2422 2730 
Q 2369 2747 2206 2747 
L 2206 2863 
L 3141 2863 
L 3141 2747 
Q 2978 2734 2916 2681 
Q 2806 2588 2719 2369 
L 1703 -88 
L 1575 -88 
L 553 2328 
Q 484 2497 421 2570 
Q 359 2644 263 2694 
Q 209 2722 53 2747 
L 53 2863 
z
" id="TimesNewRomanPSMT-76" transform="scale(0.015625)"/>
      </defs>
      <use xlink:href="#TimesNewRomanPSMT-52"/>
      <use x="66.699219" xlink:href="#TimesNewRomanPSMT-2c"/>
      <use x="91.699219" xlink:href="#TimesNewRomanPSMT-20"/>
      <use x="116.699219" xlink:href="#TimesNewRomanPSMT-72"/>
      <use x="150" xlink:href="#TimesNewRomanPSMT-73"/>
      <use x="188.916016" xlink:href="#TimesNewRomanPSMT-65"/>
      <use x="233.300781" xlink:href="#TimesNewRomanPSMT-72"/>
      <use x="266.601562" xlink:href="#TimesNewRomanPSMT-76"/>
      <use x="316.601562" xlink:href="#TimesNewRomanPSMT-65"/>
      <use x="360.986328" xlink:href="#TimesNewRomanPSMT-3d"/>
      <use x="417.382812" xlink:href="#TimesNewRomanPSMT-31"/>
      <use x="467.382812" xlink:href="#TimesNewRomanPSMT-30"/>
      <use x="517.382812" xlink:href="#TimesNewRomanPSMT-30"/>
      <use x="567.382812" xlink:href="#TimesNewRomanPSMT-30"/>
     </g>
    </g>
    <g id="line2d_27">
     <path d="M 433.72875 63.2 
L 465.72875 63.2 
" style="fill:none;stroke:#2c7bb6;stroke-dasharray:12.8,3.2,2,3.2;stroke-dashoffset:0;stroke-width:2;"/>
    </g>
    <g id="line2d_28">
     <g>
      <use style="fill:#2c7bb6;stroke:#2c7bb6;stroke-linejoin:miter;" x="449.72875" xlink:href="#m7754393ecd" y="63.2"/>
     </g>
    </g>
    <g id="text_19">
     <!-- BE -->
     <g transform="translate(478.52875 68.8)scale(0.16 -0.16)">
      <defs>
       <path d="M 1338 4006 
L 1338 2331 
L 2269 2331 
Q 2631 2331 2753 2441 
Q 2916 2584 2934 2947 
L 3050 2947 
L 3050 1472 
L 2934 1472 
Q 2891 1781 2847 1869 
Q 2791 1978 2662 2040 
Q 2534 2103 2269 2103 
L 1338 2103 
L 1338 706 
Q 1338 425 1363 364 
Q 1388 303 1450 267 
Q 1513 231 1688 231 
L 2406 231 
Q 2766 231 2928 281 
Q 3091 331 3241 478 
Q 3434 672 3638 1063 
L 3763 1063 
L 3397 0 
L 131 0 
L 131 116 
L 281 116 
Q 431 116 566 188 
Q 666 238 702 338 
Q 738 438 738 747 
L 738 3500 
Q 738 3903 656 3997 
Q 544 4122 281 4122 
L 131 4122 
L 131 4238 
L 3397 4238 
L 3444 3309 
L 3322 3309 
Q 3256 3644 3176 3769 
Q 3097 3894 2941 3959 
Q 2816 4006 2500 4006 
L 1338 4006 
z
" id="TimesNewRomanPSMT-45" transform="scale(0.015625)"/>
      </defs>
      <use xlink:href="#TimesNewRomanPSMT-42"/>
      <use x="66.699219" xlink:href="#TimesNewRomanPSMT-45"/>
     </g>
    </g>
   </g>
  </g>
 </g>
 <defs>
  <clipPath id="p7bb67fb4c9">
   <rect height="277.2" width="446.4" x="72" y="43.2"/>
  </clipPath>
 </defs>
</svg>
